<svg xmlns="http://www.w3.org/2000/svg" width="164" height="164" viewBox="0 0 164 164"><defs><style>.a{fill:#b70569;}.b{fill:#dbd8dd;}.b,.c,.d,.e,.f,.g,.h{stroke:#707070;}.c{fill:#bbbbcd;}.d{fill:#eeefee;}.e{fill:#575b6d;}.f{fill:#fed19a;}.g{fill:#f6c863;}.h{fill:#eab54e;}</style></defs><circle class="a" cx="82" cy="82" r="82"/><g transform="translate(38.542 29.547)"><path class="b" d="M30.371,65.926l6.972-12.692h72.937l6.972,12.692-3.337,4.232L44.792,71.349,31.8,67.893Z" transform="translate(-29.897 -14.395)"/><path class="b" d="M32.6,71.881h81.158v42.546H32.6Z" transform="translate(-29.264 -9.087)"/><path class="c" d="M30.371,63.114H117.25V76.879H30.371Z" transform="translate(-29.897 -11.582)"/><path class="d" d="M38.79,80.3h65.249v23.418H38.79Z" transform="translate(-27.501 -6.691)"/><g transform="translate(17.622 43.13)"><path class="e" d="M43.72,85.783h2.955q4.753,0,4.753,4.614,0,4.716-4.753,4.716H43.72ZM44.955,94h1.694a3.354,3.354,0,0,0,2.768-.945,4.239,4.239,0,0,0,.739-2.664,4.045,4.045,0,0,0-.735-2.591,3.413,3.413,0,0,0-2.772-.913H44.956Z" transform="translate(-43.72 -48.26)"/><path class="e" d="M55.184,85.66A4.211,4.211,0,0,1,58.4,86.984a5.536,5.536,0,0,1,0,7,4.56,4.56,0,0,1-6.423,0,5.51,5.51,0,0,1,0-7A4.239,4.239,0,0,1,55.184,85.66Zm-.013,8.593a2.955,2.955,0,0,0,2.294-.993,4.76,4.76,0,0,0,0-5.551,2.917,2.917,0,0,0-2.273-.993,2.975,2.975,0,0,0-2.312.993,4.728,4.728,0,0,0,0,5.547,2.941,2.941,0,0,0,2.291,1Z" transform="translate(-41.728 -48.296)"/><path class="e" d="M66.267,95.113H65l-4.888-7.365v7.365H58.941v-9.33H60.2l4.888,7.365V85.783h1.178Z" transform="translate(-39.388 -48.26)"/><path class="e" d="M74.167,95.114H72.773l-1.082-2.839H67.782l-1.028,2.839H65.447l3.584-9.332h1.331Zm-2.839-3.819-1.642-4.333L68.12,91.289Z" transform="translate(-37.536 -48.26)"/><path class="e" d="M79.837,86.89H76.754v8.222H75.513V86.89H72.448V85.783h7.389Z" transform="translate(-35.543 -48.26)"/><path class="e" d="M86.194,95.113H79.236v-9.33h6.74V86.89h-5.5v2.852h5.149V90.85H80.474v3.158H86.2Z" transform="translate(-33.611 -48.26)"/><path class="e" d="M94.4,58.362a1.8,1.8,0,0,1-1.811,1.788H47.141a1.788,1.788,0,1,1,0-3.576H92.591A1.8,1.8,0,0,1,94.4,58.362Z" transform="translate(-43.262 -56.574)"/></g><path class="f" d="M77.25,47.987,75.085,36.3a5.67,5.67,0,0,0-4.164-4.46c-9.932-2.556-26.156-4.9-30.068-3.844L37.622,42.031s6.986,7.884,15.516,7.989a15.7,15.7,0,0,1,3.8.48,7.931,7.931,0,0,1,2.632,1.241l8.088,5.834a2.566,2.566,0,0,0,3.515-3.67l-6.656-8.427a2.454,2.454,0,1,1,4.193-2.46l2.761,6.666Z" transform="translate(-27.834 -21.653)"/><path class="e" d="M46.7,26.267,40.328,48.1a.681.681,0,0,1-.84.462L30.5,45.99a.681.681,0,0,1-.461-.859l6.823-21.655a.681.681,0,0,1,.832-.45l8.542,2.393a.681.681,0,0,1,.469.848Z" transform="translate(-30.002 -23)"/><circle class="c" cx="2.269" cy="2.269" r="2.269" transform="translate(8.057 4.104)"/><path class="g" d="M82.4,54.751a14.067,14.067,0,0,1-4.138,9.967l-20.538,0a14.1,14.1,0,0,1-4.133-9.965A13.928,13.928,0,0,1,55.2,48.23a14.279,14.279,0,0,1,5.349-5.652A14.559,14.559,0,0,1,72.1,41.12,14.239,14.239,0,0,1,82.4,54.751Z" transform="translate(-23.287 -18.011)"/><path class="h" d="M79.054,54.226a11.819,11.819,0,0,1-5.448,9.967H60.785a11.851,11.851,0,1,1,18.269-9.967Z" transform="translate(-22.79 -17.486)"/><path class="g" d="M76.954,53.849a10.137,10.137,0,0,1-8.288,9.968h-3.7a10.149,10.149,0,0,1-7.387-14.131v-.008a10.178,10.178,0,0,1,4.59-4.834A10,10,0,0,1,65.484,43.8a10.215,10.215,0,0,1,1.33-.1,9.892,9.892,0,0,1,2.775.393H69.6A10.131,10.131,0,0,1,76.954,53.849Z" transform="translate(-22.407 -17.108)"/><path class="h" d="M72.622,51.893a3.409,3.409,0,0,0-3.34-3.132c-1.809,0-2.761,1.309-3.589,3.425-.629,1.542-1.33,2.346-2.474,2.346-1.187,0-2.037-.994-2.037-2.466a4.072,4.072,0,0,1,.058-.73,5.448,5.448,0,0,1,.836-2.266l-1.394-.493a5.245,5.245,0,0,0-.75,1.816V50.4a6.593,6.593,0,0,0-.164,1.351H58.716v1.309h1.115a3.621,3.621,0,0,0,3.533,3.282c1.852,0,2.932-1.08,3.8-3.212.744-1.809,1.285-2.569,2.366-2.569.83,0,1.788.6,1.788,2.2a5.01,5.01,0,0,1-.708,2.617l1.373.514a5.494,5.494,0,0,0,.722-2.7h1.073v-1.3Z" transform="translate(-21.829 -15.72)"/><path class="f" d="M65.215,55.651l-8.082-5.834A7.9,7.9,0,0,0,54.5,48.577a15.524,15.524,0,0,0-3.8-.479c-.385,0-.771-.024-4.512-7.821l12-5.781c3.4,8.209,3.566,8.661,3.883,9.062l6.653,8.43a2.569,2.569,0,0,1-3.516,3.664Z" transform="translate(-25.394 -19.728)"/></g></svg>