<svg xmlns="http://www.w3.org/2000/svg" width="32.004" height="32.004" viewBox="0 0 32.004 32.004"><defs><style>.a{fill:#fff;}</style></defs><path class="a" d="M22.67,2.667a6.688,6.688,0,0,1,6.668,6.668V22.67a6.688,6.688,0,0,1-6.668,6.668H9.335A6.688,6.688,0,0,1,2.667,22.67V9.335A6.688,6.688,0,0,1,9.335,2.667ZM22.67,0H9.335A9.362,9.362,0,0,0,0,9.335V22.67A9.362,9.362,0,0,0,9.335,32H22.67A9.362,9.362,0,0,0,32,22.67V9.335A9.362,9.362,0,0,0,22.67,0Z"/><path class="a" d="M21.833,8.668a2,2,0,1,1,.766-.151A2,2,0,0,1,21.833,8.668Z" transform="translate(2.836 0.667)"/><path class="a" d="M15,9.667a5.34,5.34,0,1,1-3.77,1.564A5.335,5.335,0,0,1,15,9.667ZM15,7a8,8,0,1,0,5.658,2.343A8,8,0,0,0,15,7Z" transform="translate(1.001 1.001)"/></svg>