<?xml version="1.0" encoding="iso-8859-1"?>
<!-- Generator: Adobe Illustrator 19.0.0, SVG Export Plug-In . SVG Version: 6.00 Build 0)  -->
<svg version="1.1" id="Layer_1" xmlns="http://www.w3.org/2000/svg" xmlns:xlink="http://www.w3.org/1999/xlink" x="0px" y="0px"
	 viewBox="0 0 512 512" style="enable-background:new 0 0 512 512;" xml:space="preserve">
<g>
	<g>
		<path d="M449.596,121.778c0.355,0.04,0.709,0.059,1.062,0.059c2.529,0,4.975-1.002,6.785-2.811l51.746-51.745
			c2.632-2.633,3.505-6.551,2.237-10.053c-1.268-3.502-4.447-5.954-8.155-6.291L464.58,47.42l-3.519-38.691
			c-0.336-3.708-2.789-6.887-6.29-8.154c-3.502-1.268-7.42-0.396-10.054,2.237l-51.746,51.746c-2.061,2.061-3.075,4.949-2.752,7.847
			l4.58,41.223l-9.69,9.69c-35.788-32.737-82.728-53.464-134.382-55.76V39.335c0-5.3-4.297-9.597-9.597-9.597
			c-5.3,0-9.597,4.297-9.597,9.597v18.22c-110.125,4.896-198.819,93.59-203.716,203.716H9.597c-5.3,0-9.597,4.297-9.597,9.597
			c0,5.3,4.297,9.597,9.597,9.597h18.22c4.897,110.126,93.591,198.819,203.716,203.716v18.22c0,5.3,4.297,9.597,9.597,9.597
			c5.3,0,9.597-4.297,9.597-9.597v-18.22c110.125-4.896,198.819-93.59,203.716-203.716h18.22c5.3,0,9.597-4.297,9.597-9.597
			c0-5.3-4.297-9.597-9.597-9.597h-18.22c-2.296-51.654-23.023-98.594-55.759-134.384l9.69-9.69L449.596,121.778z M443.802,30.873
			l2.387,26.25c0.42,4.614,4.074,8.269,8.688,8.689l26.25,2.386l-33.996,33.995l-33.592-3.732l-3.732-33.592L443.802,30.873z
			 M435.236,261.271h-13.521c-5.3,0-9.597,4.297-9.597,9.597c0,5.3,4.297,9.597,9.597,9.597h13.521
			c-4.865,99.542-84.967,179.644-184.508,184.508v-13.52c0-5.3-4.297-9.597-9.597-9.597c-5.3,0-9.597,4.297-9.597,9.597v13.52
			C131.992,460.11,51.89,380.006,47.025,280.466h13.521c5.3,0,9.597-4.297,9.597-9.597c0-5.3-4.297-9.597-9.597-9.597H47.025
			c4.865-99.54,84.967-179.644,184.508-184.508v13.52c0,5.3,4.297,9.597,9.597,9.597c5.3,0,9.597-4.297,9.597-9.597v-13.52
			c46.366,2.266,88.513,20.855,120.805,50.13l-28.878,28.878c-27.083-23.919-62.635-38.459-101.525-38.459
			c-84.671,0-153.556,68.884-153.556,153.556s68.885,153.556,153.556,153.556s153.556-68.884,153.556-153.556
			c0-38.889-14.54-74.441-38.457-101.526l28.878-28.878C414.382,172.758,432.97,214.906,435.236,261.271z M234.344,277.655
			c1.875,1.874,4.33,2.811,6.786,2.811s4.913-0.937,6.786-2.811l52.12-52.12c9.688,12.56,15.472,28.281,15.472,45.334
			c0,41.013-33.366,74.379-74.379,74.379s-74.379-33.366-74.379-74.379s33.366-74.379,74.379-74.379
			c17.053,0,32.773,5.784,45.334,15.472l-52.12,52.12C230.597,267.831,230.597,273.907,234.344,277.655z M241.131,177.297
			c-51.597,0-93.573,41.977-93.573,93.573s41.976,93.573,93.573,93.573c51.597,0,93.573-41.977,93.573-93.573
			c0-22.348-7.885-42.884-21.006-58.994l28.942-28.942c20.457,23.583,32.853,54.338,32.853,87.935
			c0,74.087-60.274,134.361-134.361,134.361s-134.361-60.274-134.361-134.361s60.274-134.362,134.361-134.362
			c33.596,0,64.353,12.396,87.936,32.853l-28.942,28.943C284.015,185.182,263.48,177.297,241.131,177.297z" fill="#b70569"/>
	</g>
</g>
<g>
</g>
<g>
</g>
<g>
</g>
<g>
</g>
<g>
</g>
<g>
</g>
<g>
</g>
<g>
</g>
<g>
</g>
<g>
</g>
<g>
</g>
<g>
</g>
<g>
</g>
<g>
</g>
<g>
</g>
</svg>
