<svg xmlns="http://www.w3.org/2000/svg" xmlns:xlink="http://www.w3.org/1999/xlink" width="72" height="72" viewBox="0 0 72 72"><defs><style>.a{fill:rgba(245,245,245,0);}.b{clip-path:url(#a);}.c{fill:#b70569;}</style><clipPath id="a"><rect class="a" width="72" height="72" transform="translate(278 1077)"/></clipPath></defs><g transform="translate(-278 -1077)"><g class="b"><g transform="translate(278 1077)"><path class="c" d="M63.879,36.367l-7.833-12.1a3.268,3.268,0,0,0-2.753-1.5H18.732a3.269,3.269,0,0,0-2.751,1.494l-7.858,12.1a3.288,3.288,0,0,0,.3,3.969L33.549,68.54A3.283,3.283,0,0,0,36,69.638h0a3.284,3.284,0,0,0,2.45-1.1L63.575,40.332A3.288,3.288,0,0,0,63.879,36.367ZM51.706,25.585,45.118,35.772,38.527,25.585Zm-9.172,11.37H29.463L36,26.856Zm-9.063-11.37L26.9,35.745,20.326,25.586ZM17.726,26.744l6.605,10.211H11.093ZM11.687,39.768H25.84l7.483,24.291ZM36,63.188l-7.215-23.42H43.214Zm2.675.872,7.484-24.292H60.311Zm9.03-27.1,6.6-10.2,6.608,10.2Z"/><path class="c" d="M4.266,36.955H1.406a1.406,1.406,0,0,0,0,2.813H4.266a1.406,1.406,0,0,0,0-2.812Z"/><path class="c" d="M70.594,36.955H67.734a1.406,1.406,0,0,0,0,2.813h2.859a1.406,1.406,0,0,0,0-2.812Z"/><path class="c" d="M61.474,12.913a1.406,1.406,0,0,0-1.989,0l-4.671,4.671A1.406,1.406,0,0,0,56.8,19.573L61.474,14.9A1.406,1.406,0,0,0,61.474,12.913Z"/><path class="c" d="M17.247,17.559l-4.671-4.671a1.406,1.406,0,0,0-1.989,1.989l4.671,4.671a1.406,1.406,0,0,0,1.989-1.989Z"/><path class="c" d="M36.036,2.362a1.406,1.406,0,0,0-1.406,1.406v9.164a1.406,1.406,0,0,0,2.813,0V3.768A1.406,1.406,0,0,0,36.036,2.362Z"/><path class="c" d="M37.029,16.695a1.405,1.405,0,1,0,.412.994A1.416,1.416,0,0,0,37.029,16.695Z"/></g></g></g></svg>