<svg xmlns="http://www.w3.org/2000/svg" width="44.785" height="32" viewBox="0 0 44.785 32"><defs><style>.a{fill:rgba(255,255,255,0);}.b{fill:#fff;}.c{fill:#1a1a1a;}</style></defs><g transform="translate(-1598 -8187)"><rect class="a" width="32" height="32" transform="translate(1598 8187)"/><g transform="translate(1599 8187.218)"><path class="b" d="M42.883,4.8A5.486,5.486,0,0,0,39.024.938C35.6,0,21.892,0,21.892,0S8.187,0,4.761.9A5.6,5.6,0,0,0,.9,4.8C0,8.223,0,15.328,0,15.328S0,22.47.9,25.86a5.487,5.487,0,0,0,3.859,3.859c3.462.938,17.132.938,17.132.938s13.705,0,17.132-.9A5.486,5.486,0,0,0,42.884,25.9c.9-3.426.9-10.531.9-10.531s.036-7.141-.9-10.567Zm0,0"/><path class="c" d="M204.969,115.613l11.4-6.564-11.4-6.564Zm0,0" transform="translate(-187.44 -93.72)"/></g></g></svg>