<svg width="205" height="181" viewBox="0 0 205 181" fill="none" xmlns="http://www.w3.org/2000/svg">
<path fill-rule="evenodd" clip-rule="evenodd" d="M137.983 179.748C143.888 177.504 153.103 172.573 159.771 168.091C167.748 162.728 178.709 152.5 184.168 145.325C193.972 132.438 199.102 119.331 202.049 99.6277C204.031 86.3787 204.172 83.0149 204.355 44.5594C204.549 3.66096 204.727 6.2281 201.486 2.98774C198.359 -0.139621 200.209 0.000941982 162.121 0.000938652C125.334 0.000935436 126.622 -0.0741268 123.583 2.24424C122.806 2.83601 121.686 4.14573 121.093 5.15437L120.015 6.98878L119.907 41.8342L119.798 76.6796L120.661 78.6853C121.674 81.04 124.454 83.6642 126.554 84.2476C127.415 84.4864 134.589 84.6501 144.273 84.6513L160.544 84.6537L160.544 87.1645C160.544 92.8814 158.914 102.583 156.874 109.011C154.161 117.557 150.023 124.448 144.027 130.399C139.136 135.254 133.473 139.109 125.511 143.005C119.689 145.853 118.816 146.56 117.216 149.719C116.792 150.555 116.51 152.046 116.496 153.52C116.476 155.654 116.742 156.52 118.709 160.729C126.192 176.746 126.804 177.762 129.931 179.357C132.223 180.527 135.515 180.686 137.983 179.748ZM19.904 180.041C22.117 179.632 32.5225 174.541 38.1571 171.109C55.2513 160.698 68.5949 146.75 76.4034 131.13C82.113 119.709 84.9413 108.171 86.9331 88.1716C87.4625 82.8568 87.6143 74.9102 87.7572 44.9619C87.9549 3.61464 88.1338 6.23289 84.8886 2.98773C81.7617 -0.139232 83.6092 0.000931788 45.5442 0.00092846C8.44197 0.000925217 9.7425 -0.0797435 6.72534 2.40713C5.93392 3.0596 4.82106 4.52744 4.25205 5.66906L3.21785 7.74464L3.22662 42.3057C3.2354 76.2124 3.25099 76.9012 4.0488 78.6641C4.98357 80.7297 6.40949 82.3385 8.40881 83.5835C9.77404 84.4341 10.2029 84.4588 26.9709 84.6537L44.1355 84.8533L44.0137 88.0478C43.6986 96.2986 41.7069 106.118 38.9405 113.055C36.0963 120.187 32.6898 125.39 27.5204 130.496C22.8158 135.143 18.0125 138.455 10.4728 142.248C3.24499 145.884 1.22489 147.56 0.40671 150.598C-0.561606 154.194 -0.0516694 156.006 4.71404 165.912C7.37382 171.441 9.73409 175.794 10.6445 176.85C12.9573 179.532 16.3418 180.699 19.904 180.041Z" fill="#FDC0E3"/>
</svg>
