<svg width="26" height="26" viewBox="0 0 26 26" fill="none" xmlns="http://www.w3.org/2000/svg">
<g id="Line Duotone / Users / Users Group Two Rounded" clip-path="url(#clip0_2406_2657)">
<circle id="Vector" cx="13" cy="6.625" r="4.25" stroke="#1C274C" stroke-width="1.59375"/>
<path id="Vector_2" opacity="0.5" d="M19.375 9.8125C21.1354 9.8125 22.5625 8.62326 22.5625 7.15625C22.5625 5.68924 21.1354 4.5 19.375 4.5" stroke="#1C274C" stroke-width="1.59375" stroke-linecap="round"/>
<path id="Vector_3" opacity="0.5" d="M6.625 9.8125C4.86459 9.8125 3.4375 8.62326 3.4375 7.15625C3.4375 5.68924 4.86459 4.5 6.625 4.5" stroke="#1C274C" stroke-width="1.59375" stroke-linecap="round"/>
<ellipse id="Vector_4" cx="13" cy="18.3125" rx="6.375" ry="4.25" stroke="#1C274C" stroke-width="1.59375"/>
<path id="Vector_5" opacity="0.5" d="M21.5 20.4375C23.3639 20.0288 24.6875 18.9936 24.6875 17.7812C24.6875 16.5689 23.3639 15.5337 21.5 15.125" stroke="#1C274C" stroke-width="1.59375" stroke-linecap="round"/>
<path id="Vector_6" opacity="0.5" d="M4.5 20.4375C2.63611 20.0288 1.3125 18.9936 1.3125 17.7812C1.3125 16.5689 2.63611 15.5337 4.5 15.125" stroke="#1C274C" stroke-width="1.59375" stroke-linecap="round"/>
</g>
<defs>
<clipPath id="clip0_2406_2657">
<rect width="25.5" height="25.5" fill="white" transform="translate(0.25 0.25)"/>
</clipPath>
</defs>
</svg>
