<svg width="215" height="280" viewBox="0 0 215 280" fill="none" xmlns="http://www.w3.org/2000/svg">
<path d="M214.324 93.6098C214.324 196.158 149.627 279.065 70.063 279.065C-9.50099 279.065 -74.1982 196.158 -74.1982 93.6098C-74.1982 -8.93821 -9.50099 -91.8457 70.063 -91.8457C149.627 -91.8457 214.324 -8.93821 214.324 93.6098Z" stroke="#210D15" stroke-opacity="0.74"/>
<path d="M186.176 65.2001C186.176 167.748 121.478 250.656 41.9145 250.656C-37.6494 250.656 -102.347 167.748 -102.347 65.2001C-102.347 -37.3479 -37.6494 -120.255 41.9145 -120.255C121.478 -120.255 186.176 -37.3479 186.176 65.2001Z" stroke="#210D15" stroke-opacity="0.74"/>
<path d="M157.022 41.9555C157.022 144.504 92.3251 227.411 12.7612 227.411C-66.8027 227.411 -131.5 144.504 -131.5 41.9555C-131.5 -60.5925 -66.8027 -143.5 12.7612 -143.5C92.3251 -143.5 157.022 -60.5925 157.022 41.9555Z" stroke="#210D15" stroke-opacity="0.74"/>
</svg>
