<svg width="55" height="55" viewBox="0 0 55 55" fill="currentColor" xmlns="http://www.w3.org/2000/svg">
<rect width="55" height="55" rx="27.5" fill="url(#paint0_linear_440_488)"/>
<path fill-rule="evenodd" clip-rule="evenodd" d="M38.4994 28C38.4994 27.8011 38.4204 27.6103 38.2797 27.4696C38.1391 27.329 37.9483 27.25 37.7494 27.25H20.0599L24.7804 22.531C24.8501 22.4612 24.9054 22.3785 24.9432 22.2873C24.9809 22.1962 25.0003 22.0986 25.0003 22C25.0003 21.9014 24.9809 21.8037 24.9432 21.7126C24.9054 21.6215 24.8501 21.5387 24.7804 21.469C24.7107 21.3992 24.6279 21.3439 24.5368 21.3062C24.4457 21.2684 24.348 21.249 24.2494 21.249C24.1508 21.249 24.0531 21.2684 23.962 21.3062C23.8709 21.3439 23.7881 21.3992 23.7184 21.469L17.7184 27.469C17.6485 27.5386 17.5931 27.6214 17.5553 27.7125C17.5175 27.8036 17.498 27.9013 17.498 28C17.498 28.0986 17.5175 28.1963 17.5553 28.2874C17.5931 28.3785 17.6485 28.4613 17.7184 28.531L23.7184 34.531C23.7881 34.6007 23.8709 34.656 23.962 34.6938C24.0531 34.7315 24.1508 34.7509 24.2494 34.7509C24.348 34.7509 24.4457 34.7315 24.5368 34.6938C24.6279 34.656 24.7107 34.6007 24.7804 34.531C24.8501 34.4612 24.9054 34.3785 24.9432 34.2873C24.9809 34.1962 25.0003 34.0986 25.0003 34C25.0003 33.9014 24.9809 33.8037 24.9432 33.7126C24.9054 33.6215 24.8501 33.5387 24.7804 33.469L20.0599 28.75H37.7494C37.9483 28.75 38.1391 28.671 38.2797 28.5303C38.4204 28.3896 38.4994 28.1989 38.4994 28Z" fill="currentColor"/>
<defs>
<linearGradient id="paint0_linear_440_488" x1="55" y1="28" x2="7.5143e-07" y2="28" gradientUnits="userSpaceOnUse">
<stop stop-color="white" stop-opacity="0.3"/>
<stop offset="1" stop-color="white" stop-opacity="0.1"/>
</linearGradient>
</defs>
</svg>
