<svg width="55" height="55" viewBox="0 0 55 55" fill="currentColor" xmlns="http://www.w3.org/2000/svg">
<rect width="55" height="55" rx="27.5" fill="url(#paint0_linear_440_485)"/>
<path fill-rule="evenodd" clip-rule="evenodd" d="M17.5006 28C17.5006 27.8011 17.5796 27.6103 17.7203 27.4696C17.8609 27.329 18.0517 27.25 18.2506 27.25H35.9401L31.2196 22.531C31.1499 22.4612 31.0946 22.3785 31.0568 22.2873C31.0191 22.1962 30.9997 22.0986 30.9997 22C30.9997 21.9014 31.0191 21.8037 31.0568 21.7126C31.0946 21.6215 31.1499 21.5387 31.2196 21.469C31.2893 21.3992 31.3721 21.3439 31.4632 21.3062C31.5543 21.2684 31.652 21.249 31.7506 21.249C31.8492 21.249 31.9469 21.2684 32.038 21.3062C32.1291 21.3439 32.2119 21.3992 32.2816 21.469L38.2816 27.469C38.3515 27.5386 38.4069 27.6214 38.4447 27.7125C38.4825 27.8036 38.502 27.9013 38.502 28C38.502 28.0986 38.4825 28.1963 38.4447 28.2874C38.4069 28.3785 38.3515 28.4613 38.2816 28.531L32.2816 34.531C32.2119 34.6007 32.1291 34.656 32.038 34.6938C31.9469 34.7315 31.8492 34.7509 31.7506 34.7509C31.652 34.7509 31.5543 34.7315 31.4632 34.6938C31.3721 34.656 31.2893 34.6007 31.2196 34.531C31.1499 34.4612 31.0946 34.3785 31.0568 34.2873C31.0191 34.1962 30.9997 34.0986 30.9997 34C30.9997 33.9014 31.0191 33.8037 31.0568 33.7126C31.0946 33.6215 31.1499 33.5387 31.2196 33.469L35.9401 28.75H18.2506C18.0517 28.75 17.8609 28.671 17.7203 28.5303C17.5796 28.3896 17.5006 28.1989 17.5006 28Z" fill="currentColor"/>
<defs>
<linearGradient id="paint0_linear_440_485" x1="55" y1="28" x2="7.5143e-07" y2="28" gradientUnits="userSpaceOnUse">
<stop stop-color="white" stop-opacity="0.3"/>
<stop offset="1" stop-color="white" stop-opacity="0.1"/>
</linearGradient>
</defs>
</svg>
