<svg xmlns="http://www.w3.org/2000/svg" xmlns:xlink="http://www.w3.org/1999/xlink" width="364.481" height="294" viewBox="0 0 364.481 294"><defs><style>.a{fill:#f0cde1;}.b{fill:#6c63ff;}.b,.d,.e,.i,.s,.v{opacity:0.1;}.c{fill:#a8a8a8;}.d,.n{fill:#fff;}.f{fill:#464353;}.g{fill:#816d00;}.h{fill:url(#a);}.j{opacity:0.06;}.k{fill:#fbbebe;}.l{fill:#f0f0f0;}.m{fill:#6d033f;}.o{fill:#b70569;}.p{fill:url(#b);}.q{fill:#d6d8e1;}.r{fill:#444176;}.s{fill:none;stroke:#000;stroke-miterlimit:10;}.t{opacity:0.05;}.u{opacity:0.2;}.v{fill:#c91c24;}</style><linearGradient id="a" y1="0.5" x2="1" y2="0.5" gradientUnits="objectBoundingBox"><stop offset="0" stop-color="gray" stop-opacity="0.251"/><stop offset="0.54" stop-color="gray" stop-opacity="0.122"/><stop offset="1" stop-color="gray" stop-opacity="0.102"/></linearGradient><linearGradient id="b" x1="12.106" y1="0.5" x2="13.106" y2="0.5" xlink:href="#a"/></defs><path class="a" d="M164.711,0c90.967,0,164.711,65.814,164.711,147S255.679,294,164.711,294,0,228.186,0,147,73.744,0,164.711,0Z" transform="translate(22.778 0)"/><ellipse class="b" cx="60.732" cy="9.413" rx="60.732" ry="9.413" transform="translate(0 212.781)"/><ellipse class="b" cx="23.622" cy="4.88" rx="23.622" ry="4.88" transform="translate(66.3 266.695)"/><ellipse class="b" cx="23.622" cy="4.88" rx="23.622" ry="4.88" transform="translate(227.71 247.921)"/><ellipse class="b" cx="38.413" cy="6.508" rx="38.413" ry="6.508" transform="translate(132.763 240.57)"/><ellipse class="b" cx="80.121" cy="12.549" rx="80.121" ry="12.549" transform="translate(204.24 202.316)"/><path class="c" d="M126.392,514.334a22.294,22.294,0,0,0,1.162,22.383,5.537,5.537,0,0,0,1.875,2.023c2.489.978,7.475,3.383,7.475,3.383l12.005-4.717s1.949-10.31,3.792-19.162h0c1.257-6.038,2.472-11.394,2.969-12.334,1.243-2.313,0-27.492,0-27.492s-12.005-.805-15.307,8.45l-1.444,2.825Z" transform="translate(-109.785 -321.372)"/><path class="d" d="M168.508,517.123c7.3,8.365,10.377,1.13,10.377,1.13h0c1.257-6.038,2.472-11.394,2.97-12.334,1.243-2.313,0-27.492,0-27.492s-12.005-.8-15.307,8.45L165.1,489.7C164.179,497.106,163.264,511.1,168.508,517.123Z" transform="translate(-135.963 -321.379)"/><path class="c" d="M180.59,488.126l42.371-4.894,7.56-49.744-5.717-12.92a52.35,52.35,0,0,0-9.887-14.915c-2.878-3.033-6.356-5.95-10.014-7.415a15.062,15.062,0,0,0-1.529-.523,3.958,3.958,0,0,0-3.531.625c-5.226,3.7-7.094,19.452-7.7,27.033a84.6,84.6,0,0,1-1.261,9.283Z" transform="translate(-146.442 -269.067)"/><path class="d" d="M244.036,432.946l-8.827,21.715c4.626-3.383,11.479-21.8,11.479-21.8l6.14,21-4.894-22.135a69.23,69.23,0,0,0,.621-14.526c-.388-5.558-5.6-14.477-8.435-18.968a15.057,15.057,0,0,0-1.529-.523,3.958,3.958,0,0,0-3.531.625c2.225,4.467,7.786,15.635,9.481,18.954C246.691,421.466,244.036,432.946,244.036,432.946Z" transform="translate(-181.679 -269.061)"/><path class="c" d="M280.89,552.42h22.99a6.974,6.974,0,0,0,6.967-7.327c-.508-9.858-1.8-27.435-4.862-38.593-1.656-6.02-3.58-9.18-5.346-10.738a5.216,5.216,0,0,0-3.04-1.43,3.99,3.99,0,0,0-2.472.6c-4.269,4.092-9.255,25.628-9.255,25.628Z" transform="translate(-211.327 -331.67)"/><path class="d" d="M309.192,588.362a11.287,11.287,0,0,1,0,8.6l-5.123,2.532s-13.771-5.837-12.1-17.8c0,0,.452-2.472,5.194-2.281a13.442,13.442,0,0,1,12.026,8.951Z" transform="translate(-218.404 -386.71)"/><path class="d" d="M313.6,501.9c-.159-4.195,2.119-5.65,4-6.112a5.215,5.215,0,0,0-3.04-1.43,8.072,8.072,0,0,0-2.652,4.237L307.11,522S313.872,508.932,313.6,501.9Z" transform="translate(-228.289 -331.697)"/><path class="c" d="M197.1,568.14l11.384,15.571,1.974,12.853-7.316,3.612-10.547,2.33a10.135,10.135,0,0,1-3.1.2l-28.781-2.532,3.916-9.078,13.523-18.986Z" transform="translate(-133.588 -379.425)"/><path class="d" d="M199.844,552.989s7.768.533,4.852,13.88-32.926,14.417-32.926,14.417,6.377-11.3,16.186-19.4c1.1-.907,2.164-1.854,3.178-2.864C193.39,556.77,197.7,552.805,199.844,552.989Z" transform="translate(-140.737 -369.62)"/><path class="e" d="M271.07,581.5s10.526,9.579,9.534,24.321" transform="translate(-204.974 -388.068)"/><path class="e" d="M298.714,496.06s-11.045,14.689-12.284,37.29" transform="translate(-214.911 -332.797)"/><path class="e" d="M199.2,478.43s5.346,24.275-8,42.572" transform="translate(-153.306 -321.392)"/><path class="f" d="M483.7,623.235h57.6a3.227,3.227,0,0,0,2.825-4.756l-28.788-53.487a3.224,3.224,0,0,0-5.678,0l-28.8,53.487a3.227,3.227,0,0,0,2.839,4.756Zm32.467-9.774h-7.33v-7.327h7.33Zm0-12.213h-7.33V586.591h7.33Z" transform="translate(-340.443 -376.292)"/><path class="e" d="M483.7,623.235h57.6a3.227,3.227,0,0,0,2.825-4.756l-28.788-53.487a3.224,3.224,0,0,0-5.678,0l-28.8,53.487a3.227,3.227,0,0,0,2.839,4.756Zm32.467-9.774h-7.33v-7.327h7.33Zm0-12.213h-7.33V586.591h7.33Z" transform="translate(-340.443 -376.292)"/><path class="g" d="M483.7,628.235h57.6a3.227,3.227,0,0,0,2.825-4.756l-28.788-53.487a3.224,3.224,0,0,0-5.678,0l-28.8,53.487a3.227,3.227,0,0,0,2.839,4.756Zm32.467-9.774h-7.33v-7.327h7.33Zm0-12.214h-7.33V591.591h7.33Z" transform="translate(-340.442 -379.526)"/><path class="h" d="M197.475,380.639a3.958,3.958,0,0,0-.816-.4c-.946-.353-1.956-.445-2.9-.784a4.157,4.157,0,0,1-1.458-.862c-.071-.071-.138-.141-.2-.215.353-.222.674-.445,1.024-.653a12.132,12.132,0,0,0-4.258-4.237c.568-.837,1.85-.77,2.6-1.444a2.472,2.472,0,0,0,.706-1.388,9.591,9.591,0,0,0-.413-4.191,51.665,51.665,0,0,0-2.436-7.892,31.1,31.1,0,0,1-1.321-3.2c-.915-3.044-.275-6.356-.967-9.466a6.641,6.641,0,0,1-.332-3.019c.385-1.532,2.1-2.44,2.472-3.972,1.356-5.455,1.6-11.115,2.369-16.684a21.477,21.477,0,0,0,.286-3.2c0-1.126-.2-2.242-.282-3.365-.219-3.153.413-6.3.685-9.452a9.887,9.887,0,0,1,1.282,3.16,12.758,12.758,0,0,1,.074,3.135,14.726,14.726,0,0,1-.222,2.087c-.173.819-.477,1.6-.678,2.422a7.489,7.489,0,0,0,.335,4.859c.48,1.059,1.536,2.041,2.634,1.723a2.845,2.845,0,0,0,1.557-1.691,10.321,10.321,0,0,0,.936-7.235c-.47-1.589-1.5-3.026-1.6-4.686a12.115,12.115,0,0,1,.155-1.981c.441-3.835-.512-7.687-.724-11.543a22.521,22.521,0,0,0-.194-3.372c-.028-.131-.06-.261-.1-.385a.827.827,0,0,1,.254.116,2.3,2.3,0,0,0-.049-1.974,5.016,5.016,0,0,1-.332-.621c-.134-.353-.109-.763-.275-1.1a4.708,4.708,0,0,0-.353-.512,4.109,4.109,0,0,1-.491-2.316q-.081-6.271-.353-12.528a20.516,20.516,0,0,0-.957-6.274,9.406,9.406,0,0,0-3.319-4.4,7.744,7.744,0,0,0-.745-.466,2.584,2.584,0,0,0,.212-.953,2.283,2.283,0,0,0,0-.311l-.021-.177h0a7.45,7.45,0,0,0-.706-2.119,5.953,5.953,0,0,1-.674-2.316,3.6,3.6,0,0,1,.025-.438h0c.12-1.017.65-1.97.837-2.987a5.121,5.121,0,0,0,.078-.957v-.335a9.625,9.625,0,0,0-1.133-3.566c-.177-.353-.353-.706-.551-1.059-.092-.66-.194-1.321-.3-1.977-.057-.381-.117-.763-.2-1.141q-.06-.282-.138-.551c.547-.516.23-1.271-.12-1.97-.674-1.328-.533-2.913-.819-4.375a13.219,13.219,0,0,0-1.038-2.938,6.546,6.546,0,0,0-1.126-1.85,6.907,6.907,0,0,0-1.458-1.059,4.644,4.644,0,0,0-1.448-.653c-.321-.064-.65-.06-.967-.134a3.064,3.064,0,0,1-.593-.215,4.035,4.035,0,0,0-1.268-.463,2.824,2.824,0,0,0-1.222.233,4.5,4.5,0,0,1-1.313.353h-.5a1.1,1.1,0,0,0-.674.162,2.551,2.551,0,0,0-.29.3,3.907,3.907,0,0,1-.851.583,8.386,8.386,0,0,0-4.117,7.168,3.552,3.552,0,0,1-.1,1.162c-.1.3-.3.554-.388.858a2.408,2.408,0,0,0-.039.805c.028.413.071.823.117,1.236h0a2.6,2.6,0,0,0-.516,1.141h0a1.557,1.557,0,0,0-.032.219v.028h0a6.394,6.394,0,0,0,.537,2.119,7.528,7.528,0,0,1-.106,4.156,16.368,16.368,0,0,0-.706,2.825h0v.064a3.414,3.414,0,0,0,.162,1.412c.117.321.29.621.4.946a3.9,3.9,0,0,1-.89,3.369h0c-.113.159-.23.311-.353.459h.018l-.018.018.734.519c-.215.113-.431.237-.65.353a6.68,6.68,0,0,0-2.394.886,9.731,9.731,0,0,0-1.942,1.292,8.238,8.238,0,0,0-1.532,2.119,26.621,26.621,0,0,0-1.3,2.74,8.579,8.579,0,0,0-.664,2.376c-.3.646-.554,1.342-.833,1.967-.141.321-.279.643-.417.964l-12.153-29.759-1.886.784.148.353-.392.166.533,1.3c-.078.053-.155.106-.229.162l-.1.078-.2.155-.1.081-.2.169-.074.064-.251.23h0c-.268.244-.526.5-.777.759l-.646.667-.124.131-.215.219-.12.124-.307.307-.021.021-.191.184-.12.113c-.049.049-.1.1-.155.141l-.148.138-.24.2-.071.064-.328.261a9.206,9.206,0,0,1-1.412.907c-1.931,1-3.976,1.836-5.861,2.906a16.879,16.879,0,0,0-2.9,2.034,23.06,23.06,0,0,1-3.746,3.273l-.159.085c-2.556,1.314-5.568.526-8.474.47-.434,0-.862,0-1.285.028a16.232,16.232,0,0,0-6.6,2.306c-1.469.823-2.9,1.748-4.343,2.585-.911.526-1.825,1.1-2.744,1.684a62.007,62.007,0,0,1-7.129,4.152,14.983,14.983,0,0,1-7.062,1.571h-.032a5.889,5.889,0,0,1-.706-.06c-.229,1.854,1.253,3.347,2.242,4.979a5.046,5.046,0,0,1,.837,2.359,4.238,4.238,0,0,1-.071.946,11.889,11.889,0,0,0-.583,3.418,3.958,3.958,0,0,0,.752,1.857c.629.9,1.5,1.695,2.094,2.631a14.172,14.172,0,0,1,1.479,4.8,10.088,10.088,0,0,0,1.162,3.323,14.2,14.2,0,0,0,3.022,3.061c.2.173.4.353.59.53.141.127.279.261.41.4,1.282,1.31,2.235,3.33,1.462,4.968-.025.056-.053.106-.081.159a1.405,1.405,0,0,0,.194.117c.985.48,2.221-.29,3.03-1.105.4-.4.777-.823,1.144-1.253.985-1.095,1.889-2.281,2.825-3.418.254-.307.508-.607.77-.9a13.064,13.064,0,0,1,3.489-2.825,12.815,12.815,0,0,1,2.14-.869c1.095-.353,2.224-.614,3.323-.96a27.3,27.3,0,0,0,4.375-1.836,67.279,67.279,0,0,0,7.062-4.378l.353-.229a12.107,12.107,0,0,0,2.1-1.677c.113-.124.222-.251.325-.381.551-.706.907-1.543,1.412-2.277a7.326,7.326,0,0,1,1.981-1.91c2.179-1.465,5.07-2.023,7.659-2.825h.028a29.765,29.765,0,0,0,12.065-7.164l1.935,4.739q-.3.84-.568,1.7A13.807,13.807,0,0,1,154.284,282a3.029,3.029,0,0,0-.614,1.091,3.533,3.533,0,0,1-.145.876c-.12.24-.371.4-.473.646-.148.353.046.809-.152,1.141a1.8,1.8,0,0,1-.335.353,2.344,2.344,0,0,0-.639,1.8,6.3,6.3,0,0,1-.159,1.949,4.624,4.624,0,0,1,.456-.237,2.12,2.12,0,0,0-.039.353,3.936,3.936,0,0,0,.124.992,7.836,7.836,0,0,0,1.031,2.062,14.651,14.651,0,0,0,1.105,1.589,14.475,14.475,0,0,0,2.337,2.09l3.559,2.747-.353,1.487a41.546,41.546,0,0,0-1.6,9.481,40.855,40.855,0,0,0,.286,4.551l.307,3.1c.247,2.5.494,4.993.766,7.489a19.18,19.18,0,0,0,.911,4.668c.84,2.263-.088,4.82.268,7.214.282,1.875.84,3.813.279,5.625-.226.706-.621,1.384-.911,2.083a15.632,15.632,0,0,0-.858,5.551,23.589,23.589,0,0,0,.18,4.943c.3,1.688.975,3.344.844,5.056-.184,2.433-1.963,4.513-2.179,6.945a10.245,10.245,0,0,0,1.578,5.533c.667,1.268-.265,2.906-.618,4.3-.706,2.736.466,5.6,1.9,8.022a.4.4,0,0,0,.18.191c.162.06.314-.1.42-.24a2.9,2.9,0,0,1,.212-.251c0,.109.021.219.028.325,0,.23.018.459.018.706a7.1,7.1,0,0,0,.48,2.613,4.617,4.617,0,0,0,.2.473,2.181,2.181,0,0,0,.353.568,2.157,2.157,0,0,0,1.412.593,18.293,18.293,0,0,0,3.531-.219c1.243-.106,2.489-.06,3.736-.088a.539.539,0,0,0,.279-.06.476.476,0,0,0,.159-.254,2.825,2.825,0,0,0,.06-1.391,9.864,9.864,0,0,0-.265-1.105c-.166-.583-.318-1.169-.463-1.765-.028-.109-.053-.219-.078-.328l.056.025q1.14-2.563,2.285-5.127a4.616,4.616,0,0,0,.586-2.729,8.024,8.024,0,0,0-.862-1.833,10.757,10.757,0,0,1-.745-4.71l-.042-9.082a19.893,19.893,0,0,0,3.531-7.708,24.932,24.932,0,0,1,.208,12.005,11.182,11.182,0,0,0-.335,1.829c-.138,2.518,1.822,4.65,2.345,7.115a1.6,1.6,0,0,1,.039.579,2.172,2.172,0,0,1-.29.671c-.939,1.72-.837,3.8-.706,5.752l.413.067a1.1,1.1,0,0,0,.438.431h0a2.16,2.16,0,0,0,.547.226,13.486,13.486,0,0,0,2.059.314c1,.1,1.995.2,2.994.261.4.025.791.046,1.186.056a11.858,11.858,0,0,1,1.662.117,12.01,12.01,0,0,1,1.763.512c2.574.862,5.455,1.352,7.948.279a3.581,3.581,0,0,0,1.451-1.028,1.709,1.709,0,0,0-.427-2.655ZM163.324,279.983c.374.745.749,1.487,1.059,2.26a7.793,7.793,0,0,1,.593,4.739c-.113.459-.851.812-.847,1.285a1.054,1.054,0,0,0-.057.109l-2.306-5.65A20.151,20.151,0,0,1,163.324,279.983Zm-2.532,12.005a9.773,9.773,0,0,1-1.25-2.157c-.042-.1-.088-.187-.131-.283a.848.848,0,0,0,.335-.251c.353-.445.162-1.095.215-1.667a3.6,3.6,0,0,1,.561-1.412l2.164,5.3q-.328.862-.614,1.741A12.356,12.356,0,0,1,160.792,291.988Z" transform="translate(-85.855 -160.736)"/><path class="f" d="M315.9,261.413a6.322,6.322,0,0,0,.544,2.119,7.5,7.5,0,0,1-.1,4.145c-.4,1.412-1.059,2.906-.554,4.287.117.325.293.621.4.946.438,1.342-.374,2.754-1.264,3.852l3.492,2.447a4.014,4.014,0,0,0,1.765.844,1.382,1.382,0,0,0,1.547-.914c.046-.219,0-.448.042-.671a1.822,1.822,0,0,1,.978-1.356,3.2,3.2,0,0,1,1.691-.314c2.143.117,3.965,1.525,5.914,2.429a23.8,23.8,0,0,0,3.979,1.321,3.2,3.2,0,0,0,2.33,0,2.21,2.21,0,0,0,.967-2.087,6.824,6.824,0,0,0-.741-2.3,5.847,5.847,0,0,1-.681-2.313c0-1.186.65-2.267.869-3.432a7.824,7.824,0,0,0-1.08-4.845,20.527,20.527,0,0,1-2.059-4.59,6.707,6.707,0,0,0-.385-1.451,3.306,3.306,0,0,0-.706-.946,7.905,7.905,0,0,0-5.007-2.044,22.689,22.689,0,0,0-5.491.48,11.476,11.476,0,0,0-2.037.484,12.94,12.94,0,0,0-2.68,1.451A3.49,3.49,0,0,0,315.9,261.413Z" transform="translate(-233.341 -177.828)"/><g class="i" transform="translate(81.568 83.351)"><path d="M375.17,296.273a1.551,1.551,0,0,0,.021.314c.109-1.035.653-2.006.847-3.04a5.021,5.021,0,0,0,.067-1.257,3.444,3.444,0,0,1-.067.551C375.816,294.006,375.155,295.087,375.17,296.273Z" transform="translate(-353.885 -284.328)"/><path d="M318.465,273.5a6.322,6.322,0,0,0-.237-2.119,12.285,12.285,0,0,1-.512-1.645c0,.074-.028.145-.032.219a6.322,6.322,0,0,0,.544,2.119,5.964,5.964,0,0,1,.237,1.427Z" transform="translate(-316.696 -269.74)"/><path d="M337.576,314.09a2.02,2.02,0,0,1-.946,1.557,3.2,3.2,0,0,1-2.33,0,23.49,23.49,0,0,1-3.979-1.324c-1.949-.9-3.771-2.309-5.914-2.426a3.2,3.2,0,0,0-1.691.314,1.822,1.822,0,0,0-.978,1.356c-.025.222,0,.452-.042.671a1.384,1.384,0,0,1-1.547.915,4.015,4.015,0,0,1-1.766-.844l-3.139-2.2c-.117.159-.233.314-.353.459l3.492,2.451a4.015,4.015,0,0,0,1.766.844,1.382,1.382,0,0,0,1.547-.915c.046-.219,0-.448.042-.671a1.822,1.822,0,0,1,.978-1.356,3.2,3.2,0,0,1,1.691-.314c2.143.117,3.965,1.525,5.914,2.426a23.49,23.49,0,0,0,3.979,1.324,3.2,3.2,0,0,0,2.33,0,2.21,2.21,0,0,0,.967-2.087C337.594,314.206,337.583,314.15,337.576,314.09Z" transform="translate(-314.89 -297.004)"/><path d="M317.437,298.543a2.738,2.738,0,0,1,.1.434,2.56,2.56,0,0,0-.1-1.14c-.106-.325-.282-.621-.4-.946a2.951,2.951,0,0,1-.162-.731,3.319,3.319,0,0,0,.162,1.437C317.154,297.922,317.331,298.222,317.437,298.543Z" transform="translate(-316.162 -286.831)"/></g><path class="f" d="M311.205,669.121a.463.463,0,0,1-.162.254.542.542,0,0,1-.279.06c-1.257.028-2.514,0-3.767.088a18.016,18.016,0,0,1-3.559.219,1.825,1.825,0,0,1-1.766-1.162,4.632,4.632,0,0,1-.2-.473,7.032,7.032,0,0,1-.484-2.613v-.706a5.355,5.355,0,0,0-.1-.77,1.169,1.169,0,0,1,.035-.893c.5-.915,1.713-1.1,2.645-1.169a21.839,21.839,0,0,1,6.444.473c.166.812.353,1.617.551,2.422q.219.886.466,1.765a9.886,9.886,0,0,1,.268,1.105A2.825,2.825,0,0,1,311.205,669.121Z" transform="translate(-224.217 -440.076)"/><path class="j" d="M312.411,679.808a.463.463,0,0,1-.162.254.539.539,0,0,1-.279.06c-1.257.028-2.514,0-3.767.088a18.011,18.011,0,0,1-3.559.219,1.825,1.825,0,0,1-1.765-1.162,4.616,4.616,0,0,1-.2-.473h.452c1.486,0,2.977-.053,4.463-.053a11.394,11.394,0,0,0,1.345-.074c.445-.053.809-.127,1.215-.177a16.665,16.665,0,0,1,1.829-.074h.5A2.825,2.825,0,0,1,312.411,679.808Z" transform="translate(-225.423 -450.763)"/><path class="f" d="M366.725,653.522a3.613,3.613,0,0,1-1.462,1.027c-2.514,1.059-5.42.583-8.015-.279a12.223,12.223,0,0,0-1.783-.512,12.021,12.021,0,0,0-1.67-.117c-.4,0-.8-.032-1.2-.057-1.01-.063-2.016-.162-3.019-.261a13.641,13.641,0,0,1-2.076-.314,2.209,2.209,0,0,1-.554-.226h0a.851.851,0,0,1-.508-.759c.028-.448.494-.706.9-.9a44.15,44.15,0,0,1,11.5-2.8,4.607,4.607,0,0,0,1.155-.353c.441-.177.487.113.706.438a2.72,2.72,0,0,0,.353.417,4.2,4.2,0,0,0,1.469.861c.953.353,1.974.448,2.927.784a4.015,4.015,0,0,1,.823.4,1.7,1.7,0,0,1,.431,2.655Z" transform="translate(-253.732 -431.035)"/><path class="j" d="M378.007,658.925a3.61,3.61,0,0,1-1.462,1.027c-2.514,1.059-5.42.583-8.015-.279a12.208,12.208,0,0,0-1.783-.512,12,12,0,0,0-1.67-.116c-.4,0-.8-.032-1.2-.057.325-.307.657-.607,1-.9a2.967,2.967,0,0,1,.837-.551,2.422,2.422,0,0,1,1.19-.081c2.02.279,3.835,1.695,5.872,1.571a7.223,7.223,0,0,0,2.7-.872,4.715,4.715,0,0,0,1.766-1.257,2.038,2.038,0,0,0,.328-.632,1.7,1.7,0,0,1,.431,2.655Z" transform="translate(-265.014 -436.437)"/><path class="k" d="M386.865,434.771a2.924,2.924,0,0,1-1.568,1.691c-1.109.318-2.175-.678-2.659-1.723a7.443,7.443,0,0,1-.353-4.859c.2-.816.508-1.6.681-2.419a14.721,14.721,0,0,0,.226-2.087,12.757,12.757,0,0,0-.074-3.135c-.568-3.033-3.178-5.3-4.046-8.276a15.445,15.445,0,0,1-.392-4.618,4.746,4.746,0,0,1,.12-1.165,1.817,1.817,0,0,1,.106-.3c.583-1.292,2.309-1.469,3.51-2.221.664-.413,2.172-1.744,2.729-.53a4,4,0,0,1,.268.844,22.446,22.446,0,0,1,.194,3.369c.215,3.856,1.176,7.7.731,11.539a12.037,12.037,0,0,0-.155,1.977c.1,1.66,1.133,3.1,1.61,4.686A10.115,10.115,0,0,1,386.865,434.771Z" transform="translate(-274.581 -273.647)"/><path class="e" d="M385.7,405.963a1.189,1.189,0,0,0-.812,0l-2.39.706a14.8,14.8,0,0,0-2.44.886,5.72,5.72,0,0,0-.971.6,1.817,1.817,0,0,1,.106-.3c.583-1.292,2.309-1.469,3.51-2.221.664-.413,2.172-1.744,2.729-.53A3.994,3.994,0,0,1,385.7,405.963Z" transform="translate(-274.853 -273.634)"/><path class="l" d="M377.19,350.6a1.08,1.08,0,0,0-.967-.078l-2.39.706a14.8,14.8,0,0,0-2.44.886,5.607,5.607,0,0,0-1.162.756,15.693,15.693,0,0,1-1.617-6.462c-.113-1.3-.2-2.6-.247-3.884a17.424,17.424,0,0,1,.057-2.782c.134-1.059.441-2.094.632-3.146a14.35,14.35,0,0,0,.219-1.864,18.23,18.23,0,0,0-.187-4.092,25.362,25.362,0,0,0-.982-4.237c-.226-.632-.5-1.243-.745-1.864l-.085-.219a25.744,25.744,0,0,1-1.091-3.5c-.113-.487-.12-1-.494-1.331a6.641,6.641,0,0,1,1.059-.042h.212A7.92,7.92,0,0,1,371,320.863a9.439,9.439,0,0,1,3.347,4.428,20.377,20.377,0,0,1,.964,6.271q.286,6.257.353,12.521a4,4,0,0,0,.494,2.316,4.724,4.724,0,0,1,.353.512c.166.353.141.745.275,1.1a5.578,5.578,0,0,0,.335.621,2.277,2.277,0,0,1,.067,1.97Z" transform="translate(-266.185 -218.543)"/><path class="k" d="M329.759,289.663c-.353-.117-.706-.24-1.059-.353l.734.056A1.483,1.483,0,0,1,329.759,289.663Z" transform="translate(-242.256 -199.049)"/><path class="k" d="M341.008,303.066c-.071.24-.141.48-.219.706a13.489,13.489,0,0,1-.653,1.7,7.9,7.9,0,0,1-1.67,2.422,2.217,2.217,0,0,1-.833.551,2.649,2.649,0,0,1-.819.078q-1.412,0-2.825-.042a10.033,10.033,0,0,1-2.182-.215,7.794,7.794,0,0,1-2.225-1,13.206,13.206,0,0,1-5.734-7.062,1.17,1.17,0,0,1,.06-1.116,1.367,1.367,0,0,1,.9-.307h.042a5.688,5.688,0,0,0,2.15-.738,2.21,2.21,0,0,0,.982-1,2.705,2.705,0,0,0-.032-1.561l-.784-3.559a3.686,3.686,0,0,0-.625-1.585c.229.081.459.155.706.219,2.182.59,4.569.233,6.709,1.006a2.859,2.859,0,0,1,1.885,1.681c.413,1.412-.967,2.878-.572,4.29.265.96,1.243,1.515,2.119,1.963l.59.3,1.635.83.226.113.035.018a2.218,2.218,0,0,1,1.239,1.141A2.119,2.119,0,0,1,341.008,303.066Z" transform="translate(-239.045 -199.709)"/><path class="e" d="M345.316,326.1a7.624,7.624,0,0,1-.65,2.613,10.675,10.675,0,0,0-1.112,4.59c-.272,4.767-2.083,10.441.512,14.445.064.1.127.2.187.3a5.607,5.607,0,0,0-1.162.756,15.693,15.693,0,0,1-1.617-6.462c-.113-1.3-.2-2.6-.247-3.884a17.427,17.427,0,0,1,.057-2.782c.134-1.059.441-2.094.632-3.146a14.354,14.354,0,0,0,.219-1.864,18.228,18.228,0,0,0-.187-4.092,25.362,25.362,0,0,0-.982-4.237c-.226-.632-.5-1.243-.745-1.864l-.085-.219a7.9,7.9,0,0,1-1.67,2.422,2.219,2.219,0,0,1-.833.551,2.649,2.649,0,0,1-.819.078q-1.412,0-2.825-.042a10.038,10.038,0,0,1-2.182-.215,7.793,7.793,0,0,1-2.224-1,13.206,13.206,0,0,1-5.734-7.062,1.17,1.17,0,0,1,.06-1.116,1.367,1.367,0,0,1,.9-.307h.042l3.178,3.93a6.353,6.353,0,0,1,.918,1.374.82.82,0,0,0,.282.42.723.723,0,0,0,.353.064h9.943a2.582,2.582,0,0,0-.438-1.487c-.092.021-.215.028-.025-.028a10.006,10.006,0,0,0-1.095-3.273,2.279,2.279,0,0,0-.109-.2,3.763,3.763,0,0,1-.523-1.144,1.45,1.45,0,0,1,2.009,1.091c.162.353.325.731.47,1.1,0,.039.035.081.049.12a8,8,0,0,1,.586,2.292c.021.289.092.657.332.752a.314.314,0,0,0,.12.028,1.335,1.335,0,0,1,1.444.353,3.177,3.177,0,0,1,.706,1.391,7.614,7.614,0,0,0,.5,1.5c.456.869-.24,1.257.583,1.79a2.868,2.868,0,0,1,.967.869,2.712,2.712,0,0,1,.212,1.607Z" transform="translate(-239.045 -214.448)"/><path class="e" d="M309.922,662.47c.166.812.353,1.617.551,2.422l-.021.049a16.389,16.389,0,0,0-5.028-1.6,5.571,5.571,0,0,0-4.523,1.487,5.356,5.356,0,0,0-.1-.77,1.169,1.169,0,0,1,.035-.893c.5-.914,1.713-1.1,2.645-1.169A21.837,21.837,0,0,1,309.922,662.47Z" transform="translate(-224.159 -440.102)"/><path class="e" d="M365.982,328.37c.166,0,.106,0,.025.028S365.791,328.426,365.982,328.37Z" transform="translate(-266.31 -224.317)"/><path class="e" d="M361.076,648.826a30.668,30.668,0,0,0-4.421,3.422,4.629,4.629,0,0,1-1.395,1.02,4.074,4.074,0,0,1-1.681.173,57.193,57.193,0,0,1-6.631-.657h0a.851.851,0,0,1-.508-.759c.028-.448.494-.706.9-.9a44.15,44.15,0,0,1,11.5-2.8,4.612,4.612,0,0,0,1.155-.353c.441-.177.487.113.706.438A2.723,2.723,0,0,0,361.076,648.826Z" transform="translate(-253.732 -431.035)"/><path class="m" d="M299.056,314.489c.519.463,1.112.837,1.638,1.285a14.822,14.822,0,0,1,3.178,4.5,2.945,2.945,0,0,1-1.621.109,11.624,11.624,0,0,0,.138,4.721,4.378,4.378,0,0,0-1.578,1.96,13.1,13.1,0,0,0-.515,2.472q-.763,5.512-1.532,11.024a1.709,1.709,0,0,1-.353.992,1.9,1.9,0,0,0-.268.265,1.464,1.464,0,0,0-.124.759c-.021.258-.191.565-.448.53a.558.558,0,0,1-.314-.2,7.215,7.215,0,0,1-.706-.876c-2.083,4-3.086,8.3-4.188,12.676a30.7,30.7,0,0,0-1.328,14.025l.311,3.1c.251,2.493.5,4.989.773,7.482a18.833,18.833,0,0,0,.922,4.668c.847,2.263-.092,4.816.268,7.21.282,1.875.844,3.813.279,5.621-.226.724-.621,1.384-.918,2.083a15.638,15.638,0,0,0-.865,5.551,23.307,23.307,0,0,0,.184,4.943c.3,1.691.985,3.347.851,5.056-.187,2.433-1.981,4.513-2.2,6.942a10.189,10.189,0,0,0,1.592,5.529c.674,1.268-.265,2.906-.621,4.3-.706,2.733.47,5.593,1.91,8.019a.385.385,0,0,0,.184.191c.166.06.314-.1.424-.24a5.434,5.434,0,0,1,4.767-1.765,15.955,15.955,0,0,1,5.028,1.6l2.292-5.1a4.568,4.568,0,0,0,.59-2.729,7.9,7.9,0,0,0-.869-1.833,10.7,10.7,0,0,1-.749-4.71l-.042-9.075a19.842,19.842,0,0,0,3.566-7.7,24.717,24.717,0,0,1,.212,12.005,10.888,10.888,0,0,0-.353,1.829c-.138,2.518,1.836,4.647,2.362,7.111a1.528,1.528,0,0,1,.042.579,2.184,2.184,0,0,1-.293.671c-.946,1.716-.844,3.8-.706,5.752a57.322,57.322,0,0,0,7.489.8,4.209,4.209,0,0,0,1.681-.173,4.64,4.64,0,0,0,1.395-1.024,30.8,30.8,0,0,1,5.25-3.972,12.224,12.224,0,0,0-4.29-4.237c.568-.837,1.864-.77,2.62-1.441a2.472,2.472,0,0,0,.706-1.391,9.453,9.453,0,0,0-.417-4.184,49.769,49.769,0,0,0-2.472-7.892,30.33,30.33,0,0,1-1.328-3.2c-.925-3.044-.279-6.356-.978-9.466a6.522,6.522,0,0,1-.335-3.015c.388-1.529,2.119-2.436,2.5-3.969,1.367-5.455,1.61-11.108,2.387-16.677a21.427,21.427,0,0,0,.279-3.217c0-1.126-.2-2.242-.282-3.365-.318-4.495,1.119-8.979.752-13.47a16.949,16.949,0,0,0-2.655-7.768c-2.6-4.008-.784-9.678-.512-14.445a10.621,10.621,0,0,1,1.109-4.59,7.532,7.532,0,0,0,.653-2.613,2.7,2.7,0,0,0-.2-1.649,2.786,2.786,0,0,0-.964-.869c-.823-.537-.127-.925-.583-1.794a7.53,7.53,0,0,1-.5-1.5,3.15,3.15,0,0,0-.706-1.388,1.335,1.335,0,0,0-1.444-.353c-.335,0-.427-.445-.455-.78a11,11,0,0,0-1.1-3.513,1.918,1.918,0,0,0-.851-1.091,1.947,1.947,0,0,0-1.162,0,3.752,3.752,0,0,0,.526,1.148,9.971,9.971,0,0,1,1.2,3.474c-.353.106.353,0,0,0a2.472,2.472,0,0,1,.463,1.515h-9.94a.706.706,0,0,1-.353-.064.848.848,0,0,1-.286-.42,6.118,6.118,0,0,0-.918-1.37l-3.5-4.311a.883.883,0,0,0-.3-.272.812.812,0,0,0-.441,0A7.94,7.94,0,0,0,299.056,314.489Z" transform="translate(-217.619 -214.531)"/><path class="e" d="M344.6,482.209a3.368,3.368,0,0,1,1.72.445,1.734,1.734,0,0,1,.855,1.49,3.95,3.95,0,0,1-.922,1.766,4.73,4.73,0,0,0-.544,1.116.449.449,0,0,0-.028.286c.042.134.187.2.311.261a2.652,2.652,0,0,1,1.557,2.316c-.032,1.377-1.377,2.493-1.3,3.884a8,8,0,0,0,.148.862,6.581,6.581,0,0,1-.477,3.492c-.427,1.109-1.01,2.15-1.469,3.248a23.045,23.045,0,0,0-1.412,9.534,18.38,18.38,0,0,1-1.412,6.4,91.969,91.969,0,0,0,.318-12.711c-.049-1.151-.194-2.239-.141-3.393.085-1.833,1.109-3.5,1.37-5.3a26.091,26.091,0,0,0,.074-3.111c.049-2.119.625-4.209.664-6.334C343.954,484.96,343.816,483.413,344.6,482.209Z" transform="translate(-250.614 -323.836)"/><path class="l" d="M298.231,317.189a9.681,9.681,0,0,0-1.956,1.292,8.332,8.332,0,0,0-1.547,2.119,27.057,27.057,0,0,0-1.31,2.74,6.105,6.105,0,0,0-.568,3.828,13.181,13.181,0,0,0,1.8,3.061,26.05,26.05,0,0,1,1.43,3.337c.621,1.494,1.472,2.885,2.087,4.382a7.761,7.761,0,0,1,.6,4.735c-.113.459-.858.816-.858,1.285,0,.777,1.123,1.621,1.868,1.847a2.8,2.8,0,0,0,2.5-.706,9.182,9.182,0,0,0,2.652-4.089,41.839,41.839,0,0,0,1.878-7.7c.325-1.914.629-3.831.8-5.759a14.659,14.659,0,0,0-.251-5.2,8.828,8.828,0,0,0-2.412-4.011c-.918-.883-2.422-2.069-3.757-2.1A6.19,6.19,0,0,0,298.231,317.189Z" transform="translate(-218.982 -216.476)"/><path class="k" d="M295.7,410.089a1.688,1.688,0,0,1-.787,1.176,4.637,4.637,0,0,1-1.345.551,5.587,5.587,0,0,1-2.906.286,5.834,5.834,0,0,1-2.041-1.162l-10.692-8.185a14.437,14.437,0,0,1-2.355-2.09,15.055,15.055,0,0,1-1.116-1.585,7.767,7.767,0,0,1-1.038-2.062,3.773,3.773,0,0,1-.127-.992,1.868,1.868,0,0,1,.226-.907c.258-.431.809-.519,1.261-.639a13.227,13.227,0,0,1,4.65-.353.632.632,0,0,1,.629.427c.237.434.441.886.653,1.338a9.675,9.675,0,0,0,1.26,2.157,18.2,18.2,0,0,0,1.571,1.515c1.13,1.059,2.055,2.33,3.259,3.3a27.214,27.214,0,0,0,4.678,2.631,8.64,8.64,0,0,1,3.955,3.513A2.058,2.058,0,0,1,295.7,410.089Z" transform="translate(-206.41 -266.81)"/><path class="e" d="M339.764,261.723a8.742,8.742,0,1,1-.244-2.048A8.743,8.743,0,0,1,339.764,261.723Z" transform="translate(-238.101 -175.547)"/><path class="k" d="M339.764,260.723a8.742,8.742,0,1,1-.244-2.048A8.743,8.743,0,0,1,339.764,260.723Z" transform="translate(-238.101 -174.9)"/><path class="e" d="M280.708,395.877a2.067,2.067,0,0,1-1.5.06c-1.963-.438-4.131-.752-5.921.088a1.868,1.868,0,0,1,.226-.907c.258-.431.809-.519,1.261-.639a13.226,13.226,0,0,1,4.65-.353.632.632,0,0,1,.629.427C280.292,394.973,280.5,395.425,280.708,395.877Z" transform="translate(-206.41 -266.81)"/><path class="l" d="M276.249,348.642a13.78,13.78,0,0,1-1.642,4.061,3,3,0,0,0-.621,1.087,3.391,3.391,0,0,1-.145.876c-.12.24-.374.4-.477.646-.152.353.046.809-.155,1.141a1.693,1.693,0,0,1-.335.353,2.471,2.471,0,0,0-.611,1.811,6.167,6.167,0,0,1-.162,1.946c1.864-1.112,4.237-.78,6.356-.307.59.131,1.321.23,1.7-.244s.162-1.095.215-1.663a6.606,6.606,0,0,1,.893-2.03,24.164,24.164,0,0,0,.745-2.4c.561-1.663,1.765-3.019,2.539-4.59a4.41,4.41,0,0,0,.5-1.744,5.2,5.2,0,0,0-.6-2.263,30.956,30.956,0,0,0-2.613-4.664c-.448-.66-1.222-1.882-1.917-.826a19.791,19.791,0,0,0-1.335,2.867A52.468,52.468,0,0,0,276.249,348.642Z" transform="translate(-205.641 -231.464)"/><path class="f" d="M337.536,280.625a7.136,7.136,0,0,1-5.713-2.256.876.876,0,0,1-.254-.413.83.83,0,0,1,.162-.579c.424-.653,1.155-1.084,1.494-1.787a5.672,5.672,0,0,0,.254-2.281c.056-1.381.6-2.747.646-4.106a4.288,4.288,0,0,0-.078-1.038,6.509,6.509,0,0,1-.3-1.564c.046-1.035.978-1.84,1.133-2.86.2-1.3-.876-2.429-1.96-3.178a11.677,11.677,0,0,0-2.669-1.381,8.69,8.69,0,0,0-1.794-.434,6.991,6.991,0,0,0-3.379.378,5.521,5.521,0,0,0-1.257.671,1.7,1.7,0,0,0-.561.583,1.9,1.9,0,0,0-.148.844c-.021,1.444.141,2.98-.547,4.237-.353.674-.953,1.222-1.246,1.935a3.216,3.216,0,0,0-.222.929,9.363,9.363,0,0,0-.053,1,10.386,10.386,0,0,0,.946,5.438,14.164,14.164,0,0,1,.907,1.522,1.734,1.734,0,0,1-.088,1.691,1.925,1.925,0,0,1-.706.53,5.649,5.649,0,0,1-4.516.162,5.724,5.724,0,0,0,1.335-6.384,3.768,3.768,0,0,1-.487-1.412,3.584,3.584,0,0,1,.353-1.292,7.062,7.062,0,0,0,.215-4.138,15.09,15.09,0,0,1-.657-2.518,7.613,7.613,0,0,1,.085-1.956,6.356,6.356,0,0,1,4.354-5.01c.18-.06.353-.117.551-.166a11.746,11.746,0,0,1,2.609-.279,19.81,19.81,0,0,1,5.837.392,7.832,7.832,0,0,1,3.023,1.554,5.456,5.456,0,0,1,1.462,1.931,6.707,6.707,0,0,1,.413,1.335c.081.378.141.759.2,1.141a25.621,25.621,0,0,1,.4,8.2c-.18,1.059-.494,2.119-.636,3.2A19.333,19.333,0,0,0,337.536,280.625Z" transform="translate(-235.068 -177.154)"/><circle class="n" cx="0.657" cy="0.657" r="0.657" transform="translate(89.266 105.646)"/><circle class="n" cx="0.657" cy="0.657" r="0.657" transform="translate(100.349 105.335)"/><path class="e" d="M335.962,235.008l-1.412-2.666a2.579,2.579,0,0,1,.293-.3,1.119,1.119,0,0,1,.681-.162Z" transform="translate(-246.04 -161.896)"/><path class="e" d="M344.98,230.69l-1.6,2.366-.911-2.6a2.889,2.889,0,0,1,1.232-.233A4.1,4.1,0,0,1,344.98,230.69Z" transform="translate(-251.163 -160.827)"/><g class="i" transform="translate(82.522 80.82)"><path d="M322.812,316.276a1.924,1.924,0,0,1-.706.53,5.674,5.674,0,0,1-4.015.335,5.5,5.5,0,0,1-.5.533,5.65,5.65,0,0,0,4.516-.162,1.925,1.925,0,0,0,.706-.53,1.522,1.522,0,0,0,.226-1.222A1.254,1.254,0,0,1,322.812,316.276Z" transform="translate(-317.59 -296.98)"/><path d="M320.277,277.216a6.957,6.957,0,0,1,.2,1.412,7.035,7.035,0,0,0-.2-2.119,15.1,15.1,0,0,1-.657-2.518,2.117,2.117,0,0,0-.018-.332,7.879,7.879,0,0,0,.018,1.038A15.1,15.1,0,0,0,320.277,277.216Z" transform="translate(-318.886 -269.745)"/><path d="M371.966,291.635a15.439,15.439,0,0,0,.191-2.825,14.713,14.713,0,0,1-.191,2.119c-.18,1.059-.494,2.119-.636,3.2a11.151,11.151,0,0,0-.081,1.748,10.434,10.434,0,0,1,.081-1.042C371.472,293.753,371.786,292.7,371.966,291.635Z" transform="translate(-352.299 -279.545)"/><path d="M320.437,299.1a5.806,5.806,0,0,1-.445-1.091,1.6,1.6,0,0,0-.042.388,3.768,3.768,0,0,0,.487,1.412,5.336,5.336,0,0,1,.441,1.871A5.473,5.473,0,0,0,320.437,299.1Z" transform="translate(-319.116 -285.497)"/><path d="M363.637,288.058a4.612,4.612,0,0,1,.067.487v-.155a4.289,4.289,0,0,0-.078-1.038c-.078-.371-.2-.738-.265-1.112a1.563,1.563,0,0,0-.032.254A6.509,6.509,0,0,0,363.637,288.058Z" transform="translate(-347.179 -277.883)"/><path d="M357.424,317.96a1.837,1.837,0,0,1-.152-.18.731.731,0,0,0-.1.473.876.876,0,0,0,.254.413,7.136,7.136,0,0,0,5.713,2.256c-.06-.233-.12-.463-.177-.706a7.126,7.126,0,0,1-5.537-2.256Z" transform="translate(-343.191 -298.286)"/><path d="M344.984,267.666a.152.152,0,0,1,0-.039c.2-1.3-.876-2.429-1.96-3.178a11.677,11.677,0,0,0-2.669-1.381,8.687,8.687,0,0,0-1.794-.434,6.992,6.992,0,0,0-3.379.378,5.523,5.523,0,0,0-1.257.671,1.7,1.7,0,0,0-.561.583,1.9,1.9,0,0,0-.148.844v.706a1.9,1.9,0,0,1,.148-.844,1.7,1.7,0,0,1,.561-.583,5.517,5.517,0,0,1,1.257-.671,6.991,6.991,0,0,1,3.379-.378,8.689,8.689,0,0,1,1.794.434,11.678,11.678,0,0,1,2.669,1.381A4.217,4.217,0,0,1,344.984,267.666Z" transform="translate(-327.696 -262.572)"/><path d="M328.9,276.692c-.353.674-.953,1.222-1.246,1.935a3.215,3.215,0,0,0-.222.929,9.348,9.348,0,0,0-.053,1v.706a9.363,9.363,0,0,1,.053-1,3.216,3.216,0,0,1,.222-.927A22.214,22.214,0,0,1,328.9,277.4a7.089,7.089,0,0,0,.547-3.489,5.889,5.889,0,0,1-.547,2.782Z" transform="translate(-323.923 -269.907)"/></g><path class="e" d="M338.158,258.493a1.026,1.026,0,0,1-.169.187,1.616,1.616,0,0,1-.413.247c-1.027.445-.985-1.006-1.522-1.5a1.825,1.825,0,0,0-1.193-.353q-1.55-.078-3.1-.138c-1.727-.064-3.45-.1-5.173-.057q-1.239.021-2.472.1a6.732,6.732,0,0,0-2.789.639,2.957,2.957,0,0,0-.745.583c-.194.212-.4.48-.667.53a6.356,6.356,0,0,1,4.354-5.01,8.739,8.739,0,0,1,12.005,1.5,5.456,5.456,0,0,1,1.462,1.931A6.7,6.7,0,0,1,338.158,258.493Z" transform="translate(-236.569 -174.905)"/><path class="o" d="M336.911,244.13c-1.027.445-.985-1.006-1.522-1.5a1.826,1.826,0,0,0-1.193-.353,94.106,94.106,0,0,0-10.748-.092,5.072,5.072,0,0,0-3.531,1.222c-.219.24-.448.551-.777.54-.109-.706-.187-1.441-.24-2.164a2.407,2.407,0,0,1,.042-.812c.088-.3.29-.561.392-.858a3.438,3.438,0,0,0,.106-1.158,8.368,8.368,0,0,1,4.117-7.118,3.74,3.74,0,0,0,.858-.579,2.579,2.579,0,0,1,.293-.3,1.119,1.119,0,0,1,.681-.162h.5a4.56,4.56,0,0,0,1.324-.353,2.888,2.888,0,0,1,1.232-.233,4.1,4.1,0,0,1,1.278.463,3.1,3.1,0,0,0,.6.215c.321.074.653.071.974.134a4.756,4.756,0,0,1,1.462.65,6.972,6.972,0,0,1,1.469,1.059,6.5,6.5,0,0,1,1.137,1.85,13.252,13.252,0,0,1,1.059,2.938c.286,1.462.145,3.044.823,4.371C337.659,242.721,338.037,243.646,336.911,244.13Z" transform="translate(-235.905 -160.814)"/><path class="e" d="M319.25,260.4s7.32-6.659,18.22-1.137C337.47,259.266,325.164,256.466,319.25,260.4Z" transform="translate(-236.142 -178.196)"/><path class="p" d="M89.185,300.974c-1-1.631-2.493-3.125-2.26-4.975a14.55,14.55,0,0,0,7.849-1.515,64.869,64.869,0,0,0,7.193-4.149c.925-.583,1.847-1.155,2.765-1.684,1.455-.833,2.9-1.765,4.378-2.581a16.524,16.524,0,0,1,6.659-2.3,12.151,12.151,0,0,1,1.3-.032c2.931.057,5.967.844,8.545-.47l.159-.085a22.81,22.81,0,0,0,3.778-3.27,16.873,16.873,0,0,1,2.927-2.034c1.9-1.059,3.965-1.907,5.911-2.906a8.96,8.96,0,0,0,1.412-.9l.332-.265.074-.064c.081-.067.162-.134.24-.2l.152-.134.155-.141.12-.113.194-.184.021-.025.307-.3.124-.124.215-.222.127-.127c.215-.222.431-.448.65-.667s.516-.516.78-.759h0l.254-.226.074-.064.2-.169.1-.081.2-.155.1-.078c.1-.074.2-.145.3-.215a2.211,2.211,0,0,1,.3-.173l-.66-1.6,1.9-.784,26.2,63.575-1.9.784L155.369,295.18l-.106.106a30.083,30.083,0,0,1-12.39,7.373h-.028c-2.609.787-5.529,1.345-7.726,2.807a7.414,7.414,0,0,0-1.995,1.91c-.516.734-.876,1.571-1.412,2.277-.1.131-.215.258-.328.378a12.281,12.281,0,0,1-2.119,1.681l-.335.229a68.66,68.66,0,0,1-7.1,4.375,28,28,0,0,1-4.41,1.836c-1.105.353-2.246.611-3.351.96a13.124,13.124,0,0,0-2.157.869,15.788,15.788,0,0,0-4.668,4.145c-1.19,1.434-2.32,2.952-3.626,4.258-.819.812-2.066,1.582-3.054,1.105l-.2-.117c.032-.053.057-.106.085-.162.78-1.635-.18-3.654-1.472-4.964-.134-.138-.272-.272-.413-.4s-.4-.353-.6-.53a14.378,14.378,0,0,1-3.047-3.058,9.974,9.974,0,0,1-1.172-3.323,14.118,14.118,0,0,0-1.494-4.791c-.593-.936-1.476-1.734-2.119-2.631a4.008,4.008,0,0,1-.777-1.815,11.779,11.779,0,0,1,.59-3.414,4.262,4.262,0,0,0,.074-.946A5.01,5.01,0,0,0,89.185,300.974Z" transform="translate(-85.834 -184.739)"/><rect class="q" width="2.023" height="67.607" transform="translate(85.724 145.492) rotate(157.6)"/><path class="o" d="M94.225,316.945a13.845,13.845,0,0,1,1.465,4.71,9.922,9.922,0,0,0,1.155,3.27,14.209,14.209,0,0,0,2.994,3c.2.173.4.353.586.523.138.124.275.258.406.388,1.271,1.289,2.214,3.277,1.448,4.883a1.34,1.34,0,0,1-.081.159,1.6,1.6,0,0,0,.194.113c.975.473,2.2-.283,3-1.084,1.285-1.285,2.4-2.775,3.566-4.184a15.459,15.459,0,0,1,4.59-4.078,12.712,12.712,0,0,1,2.119-.855c1.084-.353,2.207-.6,3.294-.943a27.725,27.725,0,0,0,4.336-1.8,67.988,67.988,0,0,0,6.991-4.3l.332-.226a12.129,12.129,0,0,0,2.083-1.649c.113-.12.222-.244.325-.374.544-.706.9-1.515,1.412-2.239a7.3,7.3,0,0,1,1.963-1.878c2.161-1.437,5.028-1.988,7.6-2.761h.028a29.638,29.638,0,0,0,12.182-7.249,1.984,1.984,0,0,0,.611-.9,2.071,2.071,0,0,0-.417-1.43c-.3-.516-.593-1.031-.883-1.554a69.388,69.388,0,0,1-3.481-7.32c-.222-.551-.438-1.1-.646-1.652q-.8-2.119-1.462-4.3c-.145-.48-.286-.964-.42-1.448-.025-.092-.053-.191-.078-.3-.586-2.355-1.37-7.867-3.785-6.218a13.968,13.968,0,0,0-1.995,1.734c-.47.477-.929.967-1.412,1.441A14.278,14.278,0,0,1,141,279.52a9.16,9.16,0,0,1-1.412.89c-1.917.982-3.944,1.8-5.812,2.857a16.519,16.519,0,0,0-2.881,2,22.365,22.365,0,0,1-3.715,3.217l-.155.085c-2.535,1.289-5.519.516-8.4.459a12.682,12.682,0,0,0-1.271.032,16.091,16.091,0,0,0-6.55,2.263c-1.455.805-2.874,1.716-4.3,2.539-.9.519-1.808,1.08-2.719,1.656a62.19,62.19,0,0,1-7.062,4.082A14.511,14.511,0,0,1,89,301.084c-.23,1.818,1.239,3.287,2.221,4.89a4.855,4.855,0,0,1,.83,2.32,4.1,4.1,0,0,1-.067.929,12.128,12.128,0,0,0-.579,3.361,3.9,3.9,0,0,0,.759,1.776C92.774,315.239,93.639,316.027,94.225,316.945Z" transform="translate(-87.174 -189.76)"/><path class="k" d="M306.986,414.71a30.776,30.776,0,0,0,6.229,4.135c3.135,1.437,1.059,6.592,1.059,6.592a5.685,5.685,0,0,1-5.65-2.472C306.3,419.731,306.986,414.71,306.986,414.71Z" transform="translate(-228.147 -280.171)"/><path class="r" d="M735.8,544.646s-8.192,10.78-14.989,10.868-10.787,4.541-7.56,7.323,38.4-1.589,38.4-1.589.332-13.248-2.715-15.183S735.8,544.646,735.8,544.646Z" transform="translate(-490.291 -364.187)"/><path class="r" d="M1022.321,576.636s1.254,8.538-2.62,14.36,7,8.068,7,8.068,7.9,2.2,8.474-5.6.388-13.771-.353-14.406-1.359-5.024-1.359-5.024Z" transform="translate(-688.729 -383.236)"/><path class="c" d="M677.45,460.256s-.286-27.615,27.04-38.84l6.345-12.072,3.044-7.415a18.043,18.043,0,0,1,12.743-10.755l4.922-1.105,1.522-6.412a18.036,18.036,0,0,1,14.41-13.608,50.46,50.46,0,0,1,9.075-.847,7.81,7.81,0,0,1,6.635,3.884h0s25.889-.286,27.036,13.809c0,0,2.592,12.941,6.331,15.243,0,0,6.327-1.437,12.655,7.768l6.9,23.587s18.121,16.97,12.655,32.485c0,0-7.479,10.642-45.447,3.45,0,0-40.556,12.358-62.144-4.59C721.17,464.857,685.218,471.76,677.45,460.256Z" transform="translate(-467.864 -250.73)"/><path class="s" d="M728.77,553.333s5.755-8.054,5.466-13.81,1.356-19.773,1.356-19.773" transform="translate(-501.063 -348.122)"/><path class="s" d="M788.24,505.183s5.752-10.642,5.176-16.394c0,0,6.042-10.946,10.642-10.07" transform="translate(-539.535 -321.546)"/><path class="s" d="M877.85,449.253s15.818-5.752,16.684-10.353" transform="translate(-597.504 -295.819)"/><path class="s" d="M894.14,488.3s16.684-7.479,16.684-9.495h8.337s12.083,15.822,10.646,22.725" transform="translate(-608.042 -321.637)"/><path class="s" d="M853.617,538.046s-16.108-1.151-21.863,3.453-16.108,6.9-16.108,6.9-6.041,12.944-8.344,15.243S801.26,574,801.26,574" transform="translate(-547.958 -359.875)"/><path class="s" d="M949.54,581.46s1.723,6.038,4.025,9.491,5.752,15.819,5.752,15.819" transform="translate(-643.881 -388.042)"/><path class="s" d="M1026.11,631.15s3.651,10.158,6.861,10.257" transform="translate(-693.414 -420.187)"/><path class="s" d="M958.38,507.66s9.484,2.563,13.449,8.774,16.076,11.843,16.076,11.843" transform="translate(-649.599 -340.301)"/><path class="s" d="M969.9,421s0,13.23,3.739,13.23a106,106,0,0,1,12.083,1.437" transform="translate(-657.052 -284.24)"/><path class="s" d="M907.287,376.5s-.957,22.856-5.847,28.774" transform="translate(-612.765 -255.452)"/><g class="t" transform="translate(227.975 118.195)"><path d="M952.505,432.711l-6.9-23.587c-6.327-9.205-12.655-7.768-12.655-7.768-3.739-2.3-6.327-15.247-6.327-15.247-1.151-14.1-27.04-13.806-27.04-13.806h0a7.81,7.81,0,0,0-6.649-3.884c-1.222,0-2.472.039-3.722.141q1.059.106,2.03.3l2.013,3.453s25.885-.29,27.036,13.806c0,0,2.592,12.944,6.331,15.247,0,0,6.327-1.441,12.655,7.768l6.9,23.587s18.121,16.97,12.655,32.485c0,0-3.69,5.25-19.039,5.886,20.695.759,25.366-5.886,25.366-5.886C970.626,449.681,952.505,432.711,952.505,432.711Z" transform="translate(-832.828 -368.42)"/><path d="M747.958,639.29a134.326,134.326,0,0,1-18.428,2.016,117.5,117.5,0,0,0,19.533-1.169C748.689,639.851,748.322,639.576,747.958,639.29Z" transform="translate(-729.53 -543.647)"/><path d="M907.92,652.33a118.136,118.136,0,0,1-27.16,4.294,115.186,115.186,0,0,0,30.995-3.612C910.5,652.8,909.237,652.567,907.92,652.33Z" transform="translate(-827.362 -552.083)"/></g><path class="c" d="M306.73,771.556s7.913-.244,10.3-1.942,12.168-3.725,12.761-1,11.889,13.541,2.955,13.615-20.751-1.391-23.131-2.842S306.73,771.556,306.73,771.556Z" transform="translate(-228.043 -508.251)"/><path class="u" d="M332.9,789.117c-8.933.074-20.755-1.391-23.135-2.825-1.811-1.105-2.535-5.067-2.775-6.892h-.265s.5,6.38,2.881,7.828,14.2,2.913,23.131,2.842c2.581-.021,3.471-.939,3.421-2.3C335.807,788.591,334.822,789.1,332.9,789.117Z" transform="translate(-228.043 -516.091)"/><path class="c" d="M786.056,706.422s-9.318-1.864-11.8-4.35-13.665-6.829-14.908-3.725-16.768,13.665-6.211,15.536,24.844,2.472,27.951,1.243S786.056,706.422,786.056,706.422Z" transform="translate(-514.46 -462.96)"/><path class="u" d="M753.142,729.336c10.561,1.861,24.844,2.472,27.951,1.239,2.362-.946,4.008-5.491,4.657-7.606l.311.067s-1.864,7.45-4.968,8.693-17.39.621-27.951-1.243c-3.047-.537-3.919-1.8-3.591-3.4C749.812,728.143,750.875,728.944,753.142,729.336Z" transform="translate(-514.464 -479.586)"/><path class="v" d="M558.933,142.837h-2.217a1.554,1.554,0,0,0,0-3.107H538.75a1.554,1.554,0,0,0,0,3.107h2.217a1.554,1.554,0,0,0,0,3.1h-3.1a1.554,1.554,0,0,0,0,3.107h17.965a1.554,1.554,0,0,0,0-3.107h3.1a1.554,1.554,0,1,0,0-3.1Z" transform="translate(-376.56 -102.284)"/><path class="v" d="M756.52,297.65H754.3a1.554,1.554,0,0,0,0-3.1H736.32a1.554,1.554,0,1,0,0,3.1h2.217a1.554,1.554,0,0,0,0,3.1h-3.1a1.554,1.554,0,0,0,0,3.107H753.4a1.554,1.554,0,0,0,0-3.107h3.125a1.554,1.554,0,1,0,0-3.1Z" transform="translate(-504.369 -202.435)"/><path class="v" d="M463.71,269.01h-2.217a1.554,1.554,0,1,0,0-3.1H443.523a1.554,1.554,0,1,0,0,3.1h2.217a1.554,1.554,0,1,0,0,3.1h-3.107a1.554,1.554,0,0,0,0,3.107H460.6a1.554,1.554,0,0,0,0-3.107h3.1a1.554,1.554,0,1,0,0-3.1Z" transform="translate(-314.955 -183.908)"/></svg>