<svg width="236" height="40" viewBox="0 0 236 40" fill="none" xmlns="http://www.w3.org/2000/svg">
<path d="M13.4208 14.0256V8.4384C13.4222 8.41816 13.4222 8.39784 13.4208 8.3776C13.2693 7.32626 12.7491 6.36297 11.9531 5.65962C11.1572 4.95626 10.1372 4.5586 9.0752 4.5376H4.5312V23.3216C4.53078 24.4888 4.76032 25.6447 5.20672 26.7233C5.65311 27.8018 6.30761 28.7818 7.13283 29.6073C7.95805 30.4328 8.93783 31.0877 10.0162 31.5345C11.0945 31.9812 12.2504 32.2112 13.4176 32.2112V22.6976H17.8624V40C17.7568 39.8528 16.1856 37.7408 11.1776 36.5344C10.72 36.4544 10.2656 36.3552 9.8176 36.2144C9.5275 36.1516 9.24367 36.0627 8.9696 35.9488C6.35299 35.0259 4.08613 33.3159 2.48016 31.0533C0.874196 28.7907 0.00783706 26.0866 0 23.312L0 0H8.9312C11.2996 0.000848144 13.5708 0.942084 15.2456 2.61682C16.9203 4.29157 17.8615 6.56276 17.8624 8.9312V14.0256H13.4208Z" fill="#38AD27"/>
<path d="M22.3008 14.0256V8.4384V8.3776C22.4487 7.32466 22.9677 6.35916 23.7645 5.6551C24.5613 4.95104 25.5833 4.55473 26.6464 4.5376H31.1936V23.3216C31.194 24.4888 30.9645 25.6447 30.5181 26.7233C30.0717 27.8018 29.4172 28.7818 28.592 29.6073C27.7668 30.4328 26.787 31.0877 25.7086 31.5345C24.6303 31.9812 23.4745 32.2112 22.3072 32.2112V22.6976H17.8624V40C17.968 39.8528 19.536 37.7408 24.5472 36.5344C25.0048 36.4544 25.4592 36.3552 25.9072 36.2144C26.1963 36.1516 26.4791 36.0627 26.752 35.9488C29.3694 35.0234 31.636 33.3102 33.2404 31.0446C34.8448 28.779 35.7082 26.0722 35.712 23.296V5.73735e-07H26.7936C25.6206 -0.000419925 24.4591 0.230305 23.3753 0.678991C22.2915 1.12768 21.3068 1.78553 20.4774 2.61495C19.648 3.44437 18.9901 4.42911 18.5414 5.51288C18.0927 6.59665 17.862 7.75822 17.8624 8.9312V14.0256H22.3008Z" fill="#34C134"/>
<path d="M31.1935 23.3088C31.194 24.476 30.9644 25.6319 30.518 26.7104C30.0716 27.789 29.4171 28.769 28.5919 29.5945C27.7667 30.42 26.7869 31.0749 25.7085 31.5216C24.6302 31.9684 23.4744 32.1984 22.3071 32.1984V22.6976H13.4175V32.1984C12.2503 32.1984 11.0945 31.9684 10.0161 31.5216C8.93776 31.0749 7.95798 30.42 7.13276 29.5945C6.30754 28.769 5.65304 27.789 5.20665 26.7104C4.76025 25.6319 4.53071 24.476 4.53113 23.3088V4.52478H9.06873C10.1307 4.54578 11.1507 4.94344 11.9467 5.6468C12.7426 6.35015 13.2628 7.31344 13.4143 8.36478C13.4157 8.38502 13.4157 8.40534 13.4143 8.42558V14.0256H22.3039V8.43838C22.3025 8.41814 22.3025 8.39782 22.3039 8.37758C22.4518 7.32464 22.9708 6.35914 23.7676 5.65508C24.5644 4.95102 25.5864 4.55471 26.6495 4.53758H31.1935V23.3088Z" fill="white"/>
<path d="M96.2208 15.1617V11.9969H99.0496V10.7169C99.0496 7.34091 101.424 5.18091 104.922 5.18091H106.989V8.47051H105.318C103.718 8.47051 102.883 9.41131 102.883 10.8417V11.9969H107.11V15.1617H102.915V28.0001H98.96V15.1617H96.2208Z" fill="#071211"/>
<path d="M109.12 27.9998V11.9998H112.861V14.6174H113.104C113.463 13.808 114.053 13.1223 114.8 12.646C115.547 12.1697 116.417 11.9238 117.302 11.939H118.762V15.7086H117.12C114.595 15.7086 113.075 17.5358 113.075 20.4254V27.9998H109.12Z" fill="#071211"/>
<path d="M126.579 11.6033C131.722 11.6033 134.522 15.4049 134.522 19.9233V21.1713H122.362C122.483 23.6065 124.186 25.2481 126.71 25.2481C128.63 25.2481 130.118 24.3649 130.698 23.0273H134.378C133.555 26.3137 130.698 28.4097 126.589 28.4097C125.512 28.4411 124.44 28.2495 123.44 27.8469C122.441 27.4444 121.535 26.8396 120.781 26.0705C119.29 24.4705 118.541 22.5089 118.541 20.1057C118.518 15.1009 121.92 11.6033 126.579 11.6033ZM130.739 18.3553C130.525 16.1953 128.883 14.7681 126.579 14.7681C125.565 14.7465 124.579 15.1011 123.811 15.7635C123.043 16.4259 122.547 17.3491 122.419 18.3553H130.739Z" fill="#071211"/>
<path d="M143.555 11.6033C148.694 11.6033 151.494 15.4049 151.494 19.9233V21.1713H139.334C139.456 23.6065 141.162 25.2481 143.686 25.2481C145.606 25.2481 147.091 24.3649 147.67 23.0273H151.35C150.531 26.3137 147.67 28.4097 143.565 28.4097C142.487 28.4411 141.415 28.2496 140.415 27.8471C139.415 27.4445 138.509 26.8397 137.754 26.0705C136.262 24.4705 135.514 22.5089 135.514 20.1057C135.494 15.1009 138.899 11.6033 143.555 11.6033ZM147.715 18.3553C147.504 16.1953 145.859 14.7681 143.555 14.7681C142.541 14.7473 141.556 15.1021 140.788 15.7643C140.02 16.4266 139.524 17.3494 139.395 18.3553H147.715Z" fill="#071211"/>
<path d="M152.886 28V5.18396H156.8V13.9456H157.043C157.773 12.6368 159.386 11.6032 161.485 11.6032C163.251 11.6032 164.65 12.1504 165.683 13.2768C166.717 14.4032 167.264 15.8016 167.264 17.536V28H163.318V18.56C163.318 16.6112 162.013 15.3056 160.186 15.3056C158.266 15.3056 156.842 16.7648 156.842 18.7424V28H152.886Z" fill="#071211"/>
<path d="M170.88 13.9744C171.538 13.2032 172.36 12.5897 173.287 12.1792C174.213 11.7688 175.221 11.5719 176.234 11.6032C177.184 11.58 178.126 11.7944 178.973 12.2269C179.82 12.6594 180.546 13.2963 181.085 14.08H181.299V11.9968H185.251V27.9968H181.36V25.9616H181.146C180.739 26.5216 180.246 27.0141 179.686 27.4208C178.925 28.0288 177.709 28.3808 176.339 28.3808C174.118 28.3808 172.294 27.6224 170.899 26.1024C169.504 24.5824 168.8 22.5408 168.8 20.0768C168.8 17.6128 169.494 15.5584 170.88 13.9744ZM177.117 24.8352C177.703 24.8548 178.286 24.7422 178.823 24.5056C179.36 24.2691 179.836 23.9147 180.218 23.4688C181.025 22.5083 181.448 21.2828 181.405 20.0288C181.405 17.0784 179.642 15.1936 177.085 15.1936C174.528 15.1936 172.8 17.2 172.8 20.0288C172.8 22.9184 174.544 24.8352 177.101 24.8352H177.117Z" fill="#071211"/>
<path d="M187.776 27.9999V11.9999H191.549V13.9487H191.763C192.493 12.6399 194.105 11.6063 196.265 11.6063C198.029 11.6063 199.427 12.1535 200.461 13.2799C201.494 14.4063 202.045 15.8047 202.045 17.5391V27.9999H198.08V18.5599C198.08 16.6111 196.832 15.3055 195.008 15.3055C193.088 15.3055 191.721 16.7967 191.721 18.8255V27.9999H187.776Z" fill="#071211"/>
<path d="M205.632 13.9744C206.29 13.2032 207.112 12.5897 208.039 12.1792C208.965 11.7688 209.973 11.5719 210.986 11.6032C211.94 11.5774 212.885 11.7904 213.735 12.223C214.586 12.6556 215.315 13.2939 215.856 14.08H216.067V5.18396H220.022V28H216.128V25.9616H215.917C215.51 26.5224 215.016 27.0149 214.454 27.4208C213.693 28.0288 212.477 28.3808 211.107 28.3808C208.89 28.3808 207.062 27.6224 205.667 26.1024C204.272 24.5824 203.568 22.5408 203.568 20.0768C203.568 17.6128 204.266 15.5584 205.632 13.9744ZM211.869 24.8352C212.456 24.8548 213.039 24.7422 213.576 24.5057C214.114 24.2691 214.591 23.9147 214.973 23.4688C215.779 22.5075 216.202 21.2825 216.16 20.0288C216.16 17.0784 214.394 15.1936 211.84 15.1936C209.286 15.1936 207.581 17.2 207.581 20.0288C207.581 22.9184 209.315 24.8352 211.869 24.8352Z" fill="#071211"/>
<path d="M225.28 23.1937C225.402 24.5313 226.528 25.2929 228.323 25.2929C230.118 25.2929 231.181 24.5025 231.181 23.3729C231.181 19.9649 221.997 23.1905 221.997 16.4961C221.993 15.8215 222.144 15.155 222.439 14.5485C222.735 13.9419 223.166 13.4115 223.699 12.9985C224.826 12.0385 226.378 11.6001 228.291 11.6001C231.853 11.6001 234.346 13.4241 234.589 16.5569H231.094C230.941 15.3409 229.968 14.6369 228.266 14.6369C226.685 14.6369 225.619 15.3057 225.619 16.3681C225.619 19.4113 235.018 16.1857 235.018 23.1521C235.018 26.2273 232.493 28.3841 228.266 28.3841C224.038 28.3841 221.786 26.4385 221.635 23.1841L225.28 23.1937Z" fill="#071211"/>
<path d="M43.7249 28.0001V6.72009H47.7697V15.3153H57.2001V6.72009H61.2481V28.0001H57.2001V19.1457H47.7697V28.0001H43.7249Z" fill="#071211"/>
<path d="M70.2432 28.0001V12.0001H73.9872V14.6177H74.24C74.599 13.808 75.1888 13.1221 75.9355 12.6457C76.6822 12.1694 77.5528 11.9237 78.4384 11.9393H79.8976V15.7089H78.256C75.7312 15.7089 74.208 17.5329 74.208 20.4257V28.0001H70.2432Z" fill="#071211"/>
<path d="M87.7055 11.6033C92.8447 11.6033 95.6447 15.4049 95.6447 19.9233V21.1713H83.4847C83.6063 23.6065 85.3119 25.2481 87.8367 25.2481C89.7567 25.2481 91.2415 24.3649 91.8207 23.0273H95.5007C94.6815 26.3137 91.8207 28.4097 87.7151 28.4097C86.6376 28.4411 85.5652 28.2496 84.5652 27.8471C83.5652 27.4445 82.6592 26.8397 81.9039 26.0705C80.4127 24.4705 79.6639 22.5089 79.6639 20.1057C79.6415 15.1009 83.0495 11.6033 87.7055 11.6033ZM91.8655 18.3553C91.6511 16.1953 90.0095 14.7681 87.7055 14.7681C86.6917 14.7473 85.7059 15.1021 84.938 15.7643C84.17 16.4266 83.674 17.3494 83.5455 18.3553H91.8655Z" fill="#071211"/>
<path d="M67.7215 12H63.7664V28H67.7215V12Z" fill="#071211"/>
<path d="M68.16 6.26869C68.1604 6.65062 68.0694 7.02711 67.8946 7.36669C67.7198 7.70627 67.4663 7.99909 67.1552 8.22069L67.0784 8.27509C66.5782 8.60535 66.1332 9.0125 65.76 9.48149C65.3857 9.0114 64.9397 8.60319 64.4384 8.27189L64.4096 8.25269C64.0675 8.01988 63.7915 7.7026 63.6082 7.33163C63.425 6.96066 63.3407 6.54862 63.3637 6.13549C63.3866 5.72237 63.516 5.32219 63.7392 4.97382C63.9625 4.62544 64.272 4.34069 64.6377 4.14721C65.0035 3.95373 65.413 3.85809 65.8266 3.86958C66.2402 3.88106 66.6438 3.99928 66.9983 4.21277C67.3527 4.42625 67.6459 4.72773 67.8495 5.08796C68.053 5.44819 68.16 5.85493 68.16 6.26869Z" fill="#071211"/>
</svg>
