<svg width="124" height="124" viewBox="0 0 124 124" fill="none" xmlns="http://www.w3.org/2000/svg">
<circle cx="62" cy="62" r="62" fill="#FDC0E3"/>
<g clip-path="url(#clip0_1688_1794)">
<path d="M78.0882 71.598C82.6236 67.0103 85.1671 60.8194 85.1671 54.3684C85.1671 47.9173 82.6236 41.7265 78.0882 37.1388C75.854 34.8773 73.1931 33.0819 70.2597 31.8564C67.3264 30.631 64.179 30 61 30C57.821 30 54.6736 30.631 51.7403 31.8564C48.8069 33.0819 46.146 34.8773 43.9117 37.1388C39.3659 41.737 36.8216 47.9456 36.8334 54.4115C36.8451 60.8775 39.412 67.0768 43.9746 71.6584L52.6359 79.7277C54.8541 81.9208 57.8452 83.1544 60.9645 83.1625C64.0838 83.1707 67.0813 81.9527 69.3109 79.7712L78.0882 71.598ZM64.2432 65.4017C63.2353 65.9008 62.1259 66.1604 61.0012 66.1604C59.8766 66.1604 58.7671 65.9008 57.7593 65.4017L52.9259 62.985C51.7186 62.3861 50.7032 61.4611 49.9946 60.3147C49.286 59.1683 48.9126 57.8464 48.9167 56.4987V49.3333C48.9119 47.9854 49.2847 46.6632 49.9929 45.5164C50.7011 44.3695 51.7163 43.444 52.9235 42.8445L57.7568 40.4279C58.7642 39.9272 59.8739 39.6666 60.9988 39.6666C62.1237 39.6666 63.2334 39.9272 64.2407 40.4279L69.0741 42.8445C70.2818 43.4436 71.2975 44.369 72.0061 45.5159C72.7147 46.6627 73.0879 47.9852 73.0833 49.3333V56.5011C73.0876 57.8485 72.7146 59.1703 72.0065 60.3166C71.2983 61.463 70.2834 62.3882 69.0765 62.9874L64.2432 65.4017ZM68.1267 48.5938C68.2061 48.8324 68.2476 49.0819 68.25 49.3333V56.5011C68.2519 56.9506 68.1276 57.3915 67.8914 57.7739C67.6552 58.1562 67.3164 58.4646 66.9136 58.664L62.0802 61.0807C61.7442 61.2476 61.374 61.3345 60.9988 61.3345C60.6236 61.3345 60.2534 61.2476 59.9173 61.0807L55.084 58.664C54.6813 58.4641 54.3428 58.1552 54.1069 57.7724C53.8711 57.3896 53.7474 56.9483 53.75 56.4987V49.3333C53.7539 49.0867 53.7954 48.8422 53.8732 48.6083L59.1416 51.2424C59.7186 51.5309 60.3549 51.681 61 51.681C61.6451 51.681 62.2814 51.5309 62.8584 51.2424L68.1267 48.5938ZM80.3333 85.5833C80.3333 86.2242 80.0787 86.8389 79.6255 87.2921C79.1723 87.7453 78.5576 87.9999 77.9167 87.9999H44.0833C43.4424 87.9999 42.8277 87.7453 42.3745 87.2921C41.9213 86.8389 41.6667 86.2242 41.6667 85.5833C41.6667 84.9423 41.9213 84.3276 42.3745 83.8744C42.8277 83.4212 43.4424 83.1666 44.0833 83.1666H77.9167C78.5576 83.1666 79.1723 83.4212 79.6255 83.8744C80.0787 84.3276 80.3333 84.9423 80.3333 85.5833Z" fill="#B70569"/>
</g>
<defs>
<clipPath id="clip0_1688_1794">
<rect width="58" height="58" fill="white" transform="translate(32 30)"/>
</clipPath>
</defs>
</svg>
