<svg width="155" height="30" viewBox="0 0 155 30" fill="none" xmlns="http://www.w3.org/2000/svg">
<g clip-path="url(#clip0_1688_1671)">
<path d="M10.4469 24.468C7.46073 27.4542 2.40329 27.4423 0.990883 23.4624C0.714354 22.6832 0.493259 21.882 0.330644 21.0645C-0.333309 17.7265 0.00745571 14.2667 1.30985 11.1224C2.61224 7.9782 4.81776 5.29076 7.64751 3.39998C10.4773 1.5092 13.8042 0.5 17.2075 0.5C20.6108 0.5 23.9377 1.5092 26.7674 3.39998C29.5972 5.29076 31.8027 7.9782 33.1051 11.1225C34.4075 14.2667 34.7482 17.7265 34.0843 21.0645C33.9217 21.882 33.7006 22.6832 33.424 23.4624C32.0116 27.4423 26.9542 27.4542 23.968 24.468L19.3584 19.8584C18.918 19.418 18.9635 18.6917 19.085 18.0809C19.1588 17.7096 19.1209 17.3247 18.976 16.9749C18.8311 16.6251 18.5858 16.3261 18.271 16.1158C17.9562 15.9055 17.5861 15.7932 17.2075 15.7932C16.8289 15.7932 16.4588 15.9055 16.144 16.1158C15.8291 16.3261 15.5838 16.6251 15.4389 16.9749C15.294 17.3247 15.2561 17.7096 15.33 18.0809C15.4515 18.6917 15.4969 19.418 15.0565 19.8584L10.4469 24.468Z" fill="#8B8B8B"/>
<path d="M48.4145 20.3363H53.0398V23.062H44.8835V8.56641H48.4145V20.3363Z" fill="#8B8B8B"/>
<path d="M59.3494 23.2275C58.2206 23.2275 57.2019 22.9866 56.2933 22.5048C55.3986 22.023 54.6896 21.3347 54.1665 20.4399C53.6572 19.5451 53.4025 18.4989 53.4025 17.3012C53.4025 16.1174 53.664 15.078 54.1871 14.1832C54.7103 13.2747 55.4261 12.5795 56.3346 12.0977C57.2432 11.6159 58.2619 11.375 59.3907 11.375C60.5195 11.375 61.5382 11.6159 62.4467 12.0977C63.3553 12.5795 64.0711 13.2747 64.5942 14.1832C65.1173 15.078 65.3789 16.1174 65.3789 17.3012C65.3789 18.4851 65.1104 19.5313 64.5736 20.4399C64.0505 21.3347 63.3278 22.023 62.4054 22.5048C61.4969 22.9866 60.4782 23.2275 59.3494 23.2275ZM59.3494 20.1714C60.0239 20.1714 60.5952 19.9237 61.0633 19.4281C61.5451 18.9325 61.786 18.2236 61.786 17.3012C61.786 16.3789 61.5519 15.67 61.0839 15.1744C60.6296 14.6788 60.0652 14.431 59.3907 14.431C58.7024 14.431 58.1311 14.6788 57.6768 15.1744C57.2225 15.6562 56.9954 16.3651 56.9954 17.3012C56.9954 18.2236 57.2157 18.9325 57.6562 19.4281C58.1105 19.9237 58.6749 20.1714 59.3494 20.1714Z" fill="#8B8B8B"/>
<path d="M71.0102 11.375C71.8224 11.375 72.5314 11.5402 73.1371 11.8706C73.7565 12.2009 74.2315 12.6346 74.5619 13.1714V11.5402H78.0928V23.0416C78.0928 24.1016 77.8795 25.0584 77.4527 25.9118C77.0397 26.7791 76.3996 27.4674 75.5324 27.9767C74.6789 28.4861 73.612 28.7408 72.3318 28.7408C70.6248 28.7408 69.2413 28.3347 68.1813 27.5225C67.1214 26.724 66.5156 25.6365 66.3642 24.2599H69.8539C69.964 24.7004 70.2256 25.0446 70.6386 25.2924C71.0515 25.5539 71.5609 25.6847 72.1666 25.6847C72.8962 25.6847 73.4743 25.4713 73.9011 25.0446C74.3416 24.6316 74.5619 23.964 74.5619 23.0416V21.4104C74.2177 21.9472 73.7428 22.3878 73.1371 22.7319C72.5314 23.0623 71.8224 23.2275 71.0102 23.2275C70.0604 23.2275 69.2 22.9866 68.4291 22.5048C67.6582 22.0092 67.0456 21.314 66.5914 20.4192C66.1509 19.5107 65.9306 18.4645 65.9306 17.2806C65.9306 16.0967 66.1509 15.0574 66.5914 14.1626C67.0456 13.2678 67.6582 12.5795 68.4291 12.0977C69.2 11.6159 70.0604 11.375 71.0102 11.375ZM74.5619 17.3012C74.5619 16.4202 74.3141 15.725 73.8185 15.2157C73.3367 14.7064 72.7447 14.4517 72.0427 14.4517C71.3406 14.4517 70.7418 14.7064 70.2462 15.2157C69.7644 15.7113 69.5235 16.3996 69.5235 17.2806C69.5235 18.1616 69.7644 18.8637 70.2462 19.3868C70.7418 19.8961 71.3406 20.1508 72.0427 20.1508C72.7447 20.1508 73.3367 19.8961 73.8185 19.3868C74.3141 18.8774 74.5619 18.1823 74.5619 17.3012Z" fill="#8B8B8B"/>
<path d="M85.2727 23.2275C84.1439 23.2275 83.1252 22.9866 82.2167 22.5048C81.3219 22.023 80.6129 21.3347 80.0898 20.4399C79.5805 19.5451 79.3258 18.4989 79.3258 17.3012C79.3258 16.1174 79.5873 15.078 80.1105 14.1832C80.6336 13.2747 81.3494 12.5795 82.2579 12.0977C83.1665 11.6159 84.1852 11.375 85.314 11.375C86.4428 11.375 87.4615 11.6159 88.37 12.0977C89.2786 12.5795 89.9944 13.2747 90.5175 14.1832C91.0406 15.078 91.3022 16.1174 91.3022 17.3012C91.3022 18.4851 91.0338 19.5313 90.4969 20.4399C89.9738 21.3347 89.2511 22.023 88.3287 22.5048C87.4202 22.9866 86.4015 23.2275 85.2727 23.2275ZM85.2727 20.1714C85.9472 20.1714 86.5185 19.9237 86.9866 19.4281C87.4684 18.9325 87.7093 18.2236 87.7093 17.3012C87.7093 16.3789 87.4752 15.67 87.0072 15.1744C86.5529 14.6788 85.9885 14.431 85.314 14.431C84.6257 14.431 84.0544 14.6788 83.6001 15.1744C83.1459 15.6562 82.9187 16.3651 82.9187 17.3012C82.9187 18.2236 83.139 18.9325 83.5795 19.4281C84.0338 19.9237 84.5982 20.1714 85.2727 20.1714Z" fill="#8B8B8B"/>
<path d="M94.3318 10.3425C93.7123 10.3425 93.203 10.1636 92.8038 9.80565C92.4183 9.43397 92.2256 8.97969 92.2256 8.44282C92.2256 7.89218 92.4183 7.4379 92.8038 7.07998C93.203 6.7083 93.7123 6.52246 94.3318 6.52246C94.9375 6.52246 95.4331 6.7083 95.8185 7.07998C96.2177 7.4379 96.4173 7.89218 96.4173 8.44282C96.4173 8.97969 96.2177 9.43397 95.8185 9.80565C95.4331 10.1636 94.9375 10.3425 94.3318 10.3425ZM96.0869 11.5402V23.0623H92.556V11.5402H96.0869Z" fill="#8B8B8B"/>
<path d="M101.557 13.1714C101.901 12.6346 102.376 12.2009 102.982 11.8706C103.588 11.5402 104.297 11.375 105.109 11.375C106.059 11.375 106.919 11.6159 107.69 12.0977C108.461 12.5795 109.067 13.2678 109.507 14.1626C109.961 15.0574 110.189 16.0967 110.189 17.2806C110.189 18.4645 109.961 19.5107 109.507 20.4192C109.067 21.314 108.461 22.0092 107.69 22.5048C106.919 22.9866 106.059 23.2275 105.109 23.2275C104.31 23.2275 103.602 23.0623 102.982 22.7319C102.376 22.4015 101.901 21.9748 101.557 21.4517V28.5549H98.0263V11.5402H101.557V13.1714ZM106.596 17.2806C106.596 16.3996 106.348 15.7113 105.852 15.2157C105.37 14.7064 104.772 14.4517 104.056 14.4517C103.354 14.4517 102.755 14.7064 102.259 15.2157C101.778 15.725 101.537 16.4202 101.537 17.3012C101.537 18.1823 101.778 18.8774 102.259 19.3868C102.755 19.8961 103.354 20.1508 104.056 20.1508C104.758 20.1508 105.357 19.8961 105.852 19.3868C106.348 18.8637 106.596 18.1616 106.596 17.2806Z" fill="#8B8B8B"/>
<path d="M116.109 23.2275C115.104 23.2275 114.209 23.0554 113.424 22.7113C112.64 22.3671 112.02 21.8991 111.566 21.3071C111.112 20.7014 110.857 20.0269 110.802 19.2835H114.292C114.333 19.6827 114.519 20.0062 114.849 20.254C115.18 20.5018 115.586 20.6257 116.068 20.6257C116.508 20.6257 116.845 20.5431 117.079 20.3779C117.327 20.199 117.451 19.9718 117.451 19.6965C117.451 19.3661 117.279 19.1252 116.935 18.9738C116.591 18.8086 116.033 18.6297 115.262 18.4369C114.436 18.2442 113.748 18.0446 113.197 17.8381C112.647 17.6179 112.172 17.2806 111.773 16.8263C111.373 16.3583 111.174 15.7319 111.174 14.9473C111.174 14.2865 111.353 13.6877 111.711 13.1508C112.082 12.6002 112.619 12.1665 113.321 11.8499C114.037 11.5333 114.884 11.375 115.861 11.375C117.306 11.375 118.442 11.7329 119.268 12.4487C120.108 13.1646 120.59 14.1144 120.714 15.2983H117.451C117.396 14.8991 117.217 14.5825 116.914 14.3484C116.625 14.1144 116.24 13.9974 115.758 13.9974C115.345 13.9974 115.028 14.08 114.808 14.2452C114.588 14.3966 114.478 14.61 114.478 14.8853C114.478 15.2157 114.65 15.4635 114.994 15.6287C115.352 15.7939 115.902 15.9591 116.646 16.1242C117.499 16.3445 118.194 16.5648 118.731 16.785C119.268 16.9915 119.736 17.3356 120.135 17.8175C120.548 18.2855 120.762 18.9187 120.776 19.7172C120.776 20.3917 120.583 20.9974 120.197 21.5343C119.826 22.0574 119.282 22.4704 118.566 22.7732C117.864 23.0761 117.045 23.2275 116.109 23.2275Z" fill="#8B8B8B"/>
<path d="M133.694 11.54V23.0621H130.163V21.4928C129.805 22.0021 129.316 22.4151 128.697 22.7317C128.091 23.0346 127.417 23.186 126.673 23.186C125.792 23.186 125.014 22.9933 124.34 22.6078C123.665 22.2086 123.142 21.6373 122.771 20.894C122.399 20.1506 122.213 19.2765 122.213 18.2715V11.54H125.723V17.7966C125.723 18.5675 125.923 19.1663 126.322 19.5931C126.721 20.0198 127.258 20.2332 127.933 20.2332C128.621 20.2332 129.165 20.0198 129.564 19.5931C129.963 19.1663 130.163 18.5675 130.163 17.7966V11.54H133.694Z" fill="#8B8B8B"/>
<path d="M150.313 11.416C151.744 11.416 152.88 11.8496 153.72 12.7169C154.573 13.5841 155 14.7886 155 16.3304V23.062H151.49V16.8054C151.49 16.062 151.29 15.4907 150.891 15.0915C150.505 14.6785 149.969 14.472 149.28 14.472C148.592 14.472 148.048 14.6785 147.649 15.0915C147.264 15.4907 147.071 16.062 147.071 16.8054V23.062H143.56V16.8054C143.56 16.062 143.361 15.4907 142.962 15.0915C142.576 14.6785 142.039 14.472 141.351 14.472C140.663 14.472 140.119 14.6785 139.72 15.0915C139.334 15.4907 139.142 16.062 139.142 16.8054V23.062H135.611V11.5399H139.142V12.9853C139.5 12.5035 139.968 12.1249 140.546 11.8496C141.124 11.5605 141.778 11.416 142.507 11.416C143.375 11.416 144.146 11.6018 144.82 11.9735C145.508 12.3452 146.045 12.8752 146.431 13.5635C146.83 12.9302 147.374 12.414 148.062 12.0148C148.75 11.6156 149.501 11.416 150.313 11.416Z" fill="#8B8B8B"/>
</g>
<defs>
<clipPath id="clip0_1688_1671">
<rect width="155" height="29" fill="white" transform="translate(0 0.5)"/>
</clipPath>
</defs>
</svg>
