<svg width="153" height="38" viewBox="0 0 153 38" fill="none" xmlns="http://www.w3.org/2000/svg">
<path d="M24.6091 19.0256C25.8577 17.98 26.6517 16.4095 26.6517 14.6535C26.6517 12.8976 25.8577 11.3271 24.6091 10.2815C24.7522 10.2122 24.8899 10.137 25.0211 10.0555C25.8493 9.54056 26.8268 9.24316 27.8738 9.24316C30.8619 9.24316 33.2842 11.6655 33.2842 14.6535C33.2842 17.6416 30.8619 20.0639 27.8738 20.0639C26.8268 20.0639 25.8493 19.7665 25.0211 19.2516C24.8899 19.1701 24.7522 19.0949 24.6091 19.0256Z" fill="#8B8B8B"/>
<path d="M23.1065 15.5047C23.665 13.9749 23.5674 12.2178 22.6894 10.6971C21.8114 9.17644 20.3385 8.21335 18.7344 7.93214C18.8237 7.80061 18.9053 7.66662 18.9781 7.53044C19.4379 6.67039 20.1358 5.92406 21.0425 5.40056C23.6303 3.90652 26.9393 4.79315 28.4333 7.3809C29.9273 9.96866 29.0407 13.2776 26.4529 14.7716C25.5462 15.2951 24.5509 15.5263 23.5762 15.4945C23.4219 15.4894 23.265 15.4932 23.1065 15.5047Z" fill="#8B8B8B"/>
<path d="M20.0446 13.2078C19.7634 11.6037 18.8003 10.1308 17.2796 9.25285C15.7589 8.37487 14.0018 8.27727 12.472 8.83578C12.4836 8.67724 12.4873 8.52037 12.4822 8.36605C12.4504 7.39132 12.6816 6.39604 13.2051 5.4893C14.6992 2.90155 18.0081 2.01492 20.5959 3.50896C23.1836 5.003 24.0703 8.31195 22.5762 10.8997C22.0527 11.8064 21.3064 12.5043 20.4463 12.9641C20.3102 13.0369 20.1762 13.1185 20.0446 13.2078Z" fill="#8B8B8B"/>
<path d="M16.2442 12.7484C15.1986 11.4998 13.6281 10.7058 11.8721 10.7058C10.1161 10.7058 8.54561 11.4998 7.50002 12.7484C7.43076 12.6053 7.35554 12.4676 7.27401 12.3364C6.75907 11.5082 6.46167 10.5307 6.46167 9.48365C6.46167 6.49556 8.88399 4.07324 11.8721 4.07324C14.8602 4.07324 17.2825 6.49556 17.2825 9.48365C17.2825 10.5307 16.9851 11.5082 16.4702 12.3364C16.3886 12.4676 16.3134 12.6053 16.2442 12.7484Z" fill="#8B8B8B"/>
<path d="M12.7231 14.2518C11.1933 13.6933 9.43613 13.7909 7.91542 14.6688C6.39471 15.5468 5.43162 17.0197 5.15042 18.6238C5.01889 18.5345 4.88489 18.4529 4.74871 18.3801C3.88866 17.9203 3.14233 17.2224 2.61883 16.3157C1.12478 13.7279 2.01141 10.419 4.59917 8.92498C7.18693 7.43093 10.4959 8.31756 11.99 10.9053C12.5135 11.812 12.7447 12.8073 12.7128 13.782C12.7078 13.9363 12.7115 14.0932 12.7231 14.2518Z" fill="#8B8B8B"/>
<path d="M10.4247 17.314C8.82056 17.5952 7.34767 18.5583 6.46969 20.079C5.59171 21.5997 5.49411 23.3568 6.05263 24.8866C5.89407 24.875 5.73718 24.8713 5.58284 24.8763C4.60812 24.9082 3.61284 24.677 2.70611 24.1535C0.118349 22.6594 -0.768282 19.3505 0.72576 16.7627C2.2198 14.175 5.52875 13.2883 8.11651 14.7824C9.02324 15.3059 9.72111 16.0522 10.1809 16.9122C10.2537 17.0484 10.3354 17.1824 10.4247 17.314Z" fill="#8B8B8B"/>
<path d="M9.96515 21.1146C8.71655 22.1602 7.92252 23.7307 7.92252 25.4866C7.92252 27.2426 8.71655 28.8131 9.96515 29.8587C9.82206 29.9279 9.68434 30.0032 9.5532 30.0847C8.72499 30.5996 7.74745 30.897 6.70044 30.897C3.71236 30.897 1.29004 28.4747 1.29004 25.4866C1.29004 22.4985 3.71236 20.0762 6.70044 20.0762C7.74745 20.0762 8.72499 20.3736 9.5532 20.8886C9.68434 20.9701 9.82206 21.0453 9.96515 21.1146Z" fill="#8B8B8B"/>
<path d="M11.4674 24.6357C10.9088 26.1655 11.0064 27.9226 11.8844 29.4433C12.7624 30.9641 14.2353 31.9271 15.8394 32.2083C15.7501 32.3399 15.6685 32.4739 15.5957 32.6101C15.1359 33.4701 14.438 34.2164 13.5313 34.7399C10.9435 36.234 7.6346 35.3473 6.14056 32.7596C4.64651 30.1718 5.53315 26.8629 8.1209 25.3688C9.02764 24.8453 10.0229 24.6141 10.9976 24.646C11.1519 24.651 11.3088 24.6473 11.4674 24.6357Z" fill="#8B8B8B"/>
<path d="M14.5293 26.9336C14.8105 28.5377 15.7736 30.0106 17.2943 30.8885C18.815 31.7665 20.5722 31.8641 22.102 31.3056C22.0904 31.4642 22.0867 31.621 22.0917 31.7754C22.1236 32.7501 21.8924 33.7454 21.3689 34.6521C19.8748 37.2399 16.5659 38.1265 13.9781 36.6324C11.3903 35.1384 10.5037 31.8295 11.9978 29.2417C12.5213 28.335 13.2676 27.6371 14.1276 27.1773C14.2638 27.1045 14.3978 27.0228 14.5293 26.9336Z" fill="#8B8B8B"/>
<path d="M18.33 27.3936C19.3756 28.6422 20.9461 29.4362 22.7021 29.4362C24.4581 29.4362 26.0286 28.6422 27.0742 27.3936C27.1434 27.5367 27.2186 27.6744 27.3002 27.8055C27.8151 28.6337 28.1125 29.6113 28.1125 30.6583C28.1125 33.6464 25.6902 36.0687 22.7021 36.0687C19.714 36.0687 17.2917 33.6464 17.2917 30.6583C17.2917 29.6113 17.5891 28.6337 18.104 27.8055C18.1856 27.6744 18.2608 27.5367 18.33 27.3936Z" fill="#8B8B8B"/>
<path d="M21.8514 25.8915C23.3812 26.45 25.1383 26.3524 26.659 25.4745C28.1797 24.5965 29.1428 23.1236 29.424 21.5195C29.5555 21.6087 29.6895 21.6904 29.8257 21.7632C30.6858 22.223 31.4321 22.9209 31.9556 23.8276C33.4497 26.4154 32.563 29.7243 29.9753 31.2184C27.3875 32.7124 24.0786 31.8258 22.5845 29.238C22.061 28.3313 21.8298 27.336 21.8616 26.3613C21.8667 26.207 21.863 26.0501 21.8514 25.8915Z" fill="#8B8B8B"/>
<path d="M28.108 20.0582C28.1069 20.0601 28.1058 20.062 28.1047 20.0639C27.2268 21.5846 25.7539 22.5477 24.1498 22.8289C24.239 22.9605 24.3207 23.0945 24.3935 23.2306C24.8533 24.0907 25.5512 24.837 26.4579 25.3605C29.0457 26.8546 32.3546 25.9679 33.8487 23.3802C35.1295 21.1616 34.6606 18.413 32.8701 16.7324C32.0835 18.6201 30.2582 19.9666 28.108 20.0582Z" fill="#8B8B8B"/>
<path d="M47.2605 9.8415V26.0005H43.6793V9.8415H47.2605ZM44.247 26.0005L44.3125 22.8342H53.593V26.0005H44.247ZM54.1535 20.5195C54.1535 19.3695 54.3937 18.365 54.8741 17.5061C55.3545 16.6326 56.0314 15.9557 56.9049 15.4753C57.7783 14.9949 58.7973 14.7547 59.962 14.7547C61.1266 14.7547 62.1383 14.9949 62.9972 15.4753C63.8707 15.9557 64.5476 16.6326 65.028 17.5061C65.5084 18.365 65.7486 19.3695 65.7486 20.5195C65.7486 21.6696 65.5084 22.6741 65.028 23.533C64.5476 24.3919 63.8707 25.0615 62.9972 25.5419C62.1383 26.0223 61.1266 26.2625 59.962 26.2625C58.7973 26.2625 57.7783 26.0223 56.9049 25.5419C56.0314 25.0615 55.3545 24.3919 54.8741 23.533C54.3937 22.6741 54.1535 21.6696 54.1535 20.5195ZM57.5381 20.4977C57.5381 21.0509 57.64 21.5386 57.8438 21.9608C58.0476 22.3684 58.3315 22.6886 58.6954 22.9216C59.0594 23.1399 59.4816 23.2491 59.962 23.2491C60.4424 23.2491 60.8645 23.1399 61.2285 22.9216C61.5924 22.6886 61.869 22.3684 62.0583 21.9608C62.2621 21.5386 62.364 21.0509 62.364 20.4977C62.364 19.9445 62.2621 19.4641 62.0583 19.0565C61.869 18.6489 61.5924 18.3359 61.2285 18.1175C60.8645 17.8846 60.4424 17.7681 59.962 17.7681C59.4816 17.7681 59.0594 17.8846 58.6954 18.1175C58.3315 18.3359 58.0476 18.6489 57.8438 19.0565C57.64 19.4641 57.5381 19.9445 57.5381 20.4977ZM66.508 20.3449C66.508 19.2239 66.7336 18.2413 67.1849 17.3969C67.6362 16.5526 68.2549 15.8975 69.041 15.4316C69.8271 14.9512 70.7297 14.711 71.7487 14.711C72.6076 14.711 73.3646 14.8857 74.0197 15.2351C74.6894 15.5845 75.1406 16.0431 75.3736 16.6108L75.046 16.8292L75.3081 15.0823H78.3433V25.3017C78.3433 26.5828 78.0958 27.6892 77.6009 28.6209C77.1059 29.5671 76.3999 30.295 75.4827 30.8045C74.5802 31.314 73.5029 31.5688 72.2509 31.5688C71.2028 31.5688 70.2566 31.3577 69.4122 30.9355C68.5824 30.5279 67.9055 29.9456 67.3814 29.1886C66.8719 28.4316 66.5662 27.5582 66.4643 26.5682H69.8708C69.8999 27.1942 70.1474 27.6746 70.6132 28.0095C71.0936 28.3443 71.705 28.5117 72.4475 28.5117C73.2773 28.5117 73.9178 28.2788 74.3691 27.8129C74.8204 27.3616 75.046 26.7575 75.046 26.0005V23.6858L75.3517 23.9697C75.1188 24.5375 74.6675 24.996 73.9979 25.3454C73.3282 25.6948 72.5567 25.8695 71.6832 25.8695C70.6787 25.8695 69.7834 25.6366 68.9973 25.1707C68.2258 24.7049 67.6143 24.0571 67.163 23.2273C66.7263 22.3975 66.508 21.4367 66.508 20.3449ZM69.9144 20.2575C69.9144 20.7816 70.0236 21.2474 70.242 21.655C70.4604 22.0627 70.7515 22.3829 71.1155 22.6158C71.4794 22.8342 71.8797 22.9434 72.3165 22.9434C72.8405 22.9434 73.2991 22.8342 73.6922 22.6158C74.0998 22.3829 74.4128 22.0627 74.6311 21.655C74.864 21.2474 74.9805 20.7816 74.9805 20.2575C74.9805 19.7189 74.864 19.2603 74.6311 18.8818C74.3982 18.4888 74.0779 18.183 73.6703 17.9647C73.2773 17.7463 72.8187 17.6371 72.2946 17.6371C71.8579 17.6371 71.4576 17.7463 71.0936 17.9647C70.7297 18.183 70.4385 18.4888 70.2202 18.8818C70.0163 19.2749 69.9144 19.7334 69.9144 20.2575ZM79.5418 20.5195C79.5418 19.3695 79.782 18.365 80.2624 17.5061C80.7428 16.6326 81.4197 15.9557 82.2932 15.4753C83.1666 14.9949 84.1857 14.7547 85.3503 14.7547C86.5149 14.7547 87.5266 14.9949 88.3856 15.4753C89.259 15.9557 89.9359 16.6326 90.4163 17.5061C90.8967 18.365 91.1369 19.3695 91.1369 20.5195C91.1369 21.6696 90.8967 22.6741 90.4163 23.533C89.9359 24.3919 89.259 25.0615 88.3856 25.5419C87.5266 26.0223 86.5149 26.2625 85.3503 26.2625C84.1857 26.2625 83.1666 26.0223 82.2932 25.5419C81.4197 25.0615 80.7428 24.3919 80.2624 23.533C79.782 22.6741 79.5418 21.6696 79.5418 20.5195ZM82.9264 20.4977C82.9264 21.0509 83.0283 21.5386 83.2321 21.9608C83.4359 22.3684 83.7198 22.6886 84.0838 22.9216C84.4477 23.1399 84.8699 23.2491 85.3503 23.2491C85.8307 23.2491 86.2529 23.1399 86.6168 22.9216C86.9807 22.6886 87.2573 22.3684 87.4466 21.9608C87.6504 21.5386 87.7523 21.0509 87.7523 20.4977C87.7523 19.9445 87.6504 19.4641 87.4466 19.0565C87.2573 18.6489 86.9807 18.3359 86.6168 18.1175C86.2529 17.8846 85.8307 17.7681 85.3503 17.7681C84.8699 17.7681 84.4477 17.8846 84.0838 18.1175C83.7198 18.3359 83.4359 18.6489 83.2321 19.0565C83.0283 19.4641 82.9264 19.9445 82.9264 20.4977ZM92.5514 26.0005V15.0823H95.936V26.0005H92.5514ZM94.2546 13.379C93.716 13.379 93.2574 13.197 92.8789 12.8331C92.515 12.4546 92.333 11.996 92.333 11.4574C92.333 10.9188 92.515 10.4675 92.8789 10.1035C93.2574 9.73959 93.716 9.55762 94.2546 9.55762C94.7787 9.55762 95.2227 9.73959 95.5866 10.1035C95.9651 10.4675 96.1544 10.9188 96.1544 11.4574C96.1544 11.996 95.9651 12.4546 95.5866 12.8331C95.2227 13.197 94.7787 13.379 94.2546 13.379ZM98.1246 31.2413V15.0823H101.204L101.378 16.4143C101.684 15.9048 102.172 15.4972 102.841 15.1914C103.511 14.8857 104.232 14.7329 105.003 14.7329C106.022 14.7329 106.91 14.9585 107.667 15.4098C108.424 15.8611 109.021 16.5089 109.458 17.3533C109.894 18.183 110.127 19.1875 110.157 20.3667C110.186 21.5167 109.996 22.5431 109.589 23.4456C109.181 24.3336 108.592 25.0324 107.82 25.5419C107.048 26.0515 106.117 26.3062 105.025 26.3062C104.268 26.3062 103.562 26.1752 102.907 25.9132C102.252 25.6511 101.764 25.3163 101.444 24.9087V31.2413H98.1246ZM101.509 20.5414C101.509 21.08 101.618 21.5604 101.837 21.9826C102.07 22.3902 102.383 22.7105 102.776 22.9434C103.183 23.1618 103.649 23.2709 104.173 23.2709C104.712 23.2709 105.171 23.1545 105.549 22.9216C105.942 22.6886 106.241 22.3684 106.444 21.9608C106.663 21.5531 106.772 21.08 106.772 20.5414C106.772 20.0027 106.663 19.5296 106.444 19.122C106.241 18.7144 105.942 18.3941 105.549 18.1612C105.171 17.9283 104.712 17.8118 104.173 17.8118C103.649 17.8118 103.183 17.9283 102.776 18.1612C102.383 18.3796 102.07 18.6926 101.837 19.1002C101.618 19.5078 101.509 19.9882 101.509 20.5414ZM110.733 22.5503H113.769C113.769 22.9288 113.892 23.2273 114.14 23.4456C114.402 23.664 114.78 23.7732 115.275 23.7732C115.566 23.7732 115.807 23.7368 115.996 23.664C116.2 23.5912 116.353 23.4893 116.454 23.3583C116.571 23.2127 116.629 23.0526 116.629 22.8779C116.629 22.6886 116.564 22.5285 116.433 22.3975C116.316 22.2665 116.112 22.1646 115.821 22.0918L113.9 21.5895C112.822 21.2984 112.058 20.8689 111.607 20.3012C111.155 19.7334 110.93 19.0856 110.93 18.3577C110.93 17.6298 111.112 16.9966 111.476 16.458C111.854 15.9048 112.364 15.4826 113.004 15.1914C113.645 14.8857 114.365 14.7329 115.166 14.7329C116.374 14.7329 117.364 15.0677 118.136 15.7374C118.922 16.3924 119.337 17.2877 119.381 18.4232H116.345C116.36 18.0447 116.251 17.7463 116.018 17.5279C115.785 17.295 115.479 17.1786 115.101 17.1786C114.766 17.1786 114.489 17.2659 114.271 17.4406C114.067 17.6007 113.965 17.8264 113.965 18.1175C113.965 18.3941 114.067 18.5979 114.271 18.729C114.475 18.8454 114.751 18.9473 115.101 19.0347L117.044 19.5151C117.947 19.7334 118.631 20.1047 119.097 20.6287C119.563 21.1528 119.795 21.8225 119.795 22.6377C119.795 23.7586 119.381 24.6466 118.551 25.3017C117.721 25.9568 116.644 26.2844 115.319 26.2844C113.951 26.2844 112.851 25.9423 112.022 25.2581C111.206 24.5593 110.777 23.6567 110.733 22.5503ZM125.161 26.2844C123.88 26.2844 122.89 25.884 122.191 25.0834C121.493 24.2827 121.143 23.2345 121.143 21.9389V15.0823H124.506V20.7161C124.506 21.7351 124.688 22.4193 125.052 22.7687C125.416 23.1181 125.896 23.2928 126.493 23.2928C127.265 23.2928 127.796 23.0744 128.087 22.6377C128.378 22.201 128.524 21.575 128.524 20.7597V15.0823H131.887V26.0005H128.721L128.502 24.7777C128.167 25.2289 127.694 25.5929 127.083 25.8695C126.471 26.1461 125.831 26.2844 125.161 26.2844ZM137.438 26.0005H134.053V15.0823H137.198L137.438 16.9602L137.067 16.5671C137.358 16.0139 137.795 15.5699 138.377 15.2351C138.974 14.8857 139.614 14.711 140.299 14.711C141.376 14.711 142.22 14.9512 142.832 15.4316C143.458 15.912 143.909 16.5453 144.185 17.3314H143.661C143.836 16.5453 144.258 15.912 144.928 15.4316C145.598 14.9512 146.398 14.711 147.33 14.711C148.742 14.711 149.783 15.0895 150.453 15.8465C151.122 16.6035 151.457 17.608 151.457 18.86V26.0005H148.182V19.6898C148.182 19.0055 148.014 18.496 147.679 18.1612C147.359 17.8264 146.93 17.659 146.391 17.659C146.071 17.659 145.765 17.7318 145.474 17.8773C145.183 18.0083 144.942 18.2485 144.753 18.5979C144.564 18.9328 144.469 19.4132 144.469 20.0391V26.0005H141.15V19.6898C141.15 19.0055 140.99 18.5033 140.67 18.183C140.349 17.8482 139.92 17.6808 139.381 17.6808C139.061 17.6808 138.748 17.7536 138.442 17.8992C138.151 18.0302 137.911 18.2704 137.722 18.6198C137.533 18.9546 137.438 19.4277 137.438 20.0391V26.0005Z" fill="#8B8B8B"/>
</svg>
