<svg width="172" height="40" viewBox="0 0 172 40" fill="none" xmlns="http://www.w3.org/2000/svg">
<g clip-path="url(#clip0_1688_1682)">
<path d="M49.0364 29.0002H60.3891V25.7675H52.4982V10.6729H49.0364V29.0002Z" fill="#8B8B8B"/>
<path d="M67.2113 29.3821C68.5859 29.3821 69.795 29.0766 70.8386 28.4657C71.8907 27.8463 72.7095 26.9936 73.295 25.9076C73.8889 24.813 74.1859 23.553 74.1859 22.1276C74.1859 20.7106 73.8931 19.4591 73.3077 18.373C72.7222 17.2785 71.9034 16.4215 70.8513 15.8021C69.8077 15.1827 68.5944 14.873 67.2113 14.873C65.8537 14.873 64.6531 15.1785 63.6095 15.7894C62.5659 16.4003 61.7471 17.253 61.1531 18.3476C60.5592 19.4336 60.2622 20.6936 60.2622 22.1276C60.2622 23.5445 60.5507 24.8003 61.1277 25.8948C61.7131 26.9809 62.5277 27.8336 63.5713 28.453C64.615 29.0724 65.8283 29.3821 67.2113 29.3821ZM67.2113 26.1494C66.1337 26.1494 65.315 25.7888 64.755 25.0676C64.2034 24.3379 63.9277 23.3579 63.9277 22.1276C63.9277 20.9312 64.1907 19.9639 64.7168 19.2257C65.2513 18.4791 66.0828 18.1057 67.2113 18.1057C68.3059 18.1057 69.1289 18.4706 69.6804 19.2003C70.2404 19.93 70.5204 20.9057 70.5204 22.1276C70.5204 23.307 70.2447 24.2742 69.6931 25.0294C69.1501 25.776 68.3228 26.1494 67.2113 26.1494Z" fill="#8B8B8B"/>
<path d="M81.0319 29.3821C81.6768 29.3821 82.2707 29.3057 82.8138 29.153C83.3653 29.0003 83.8659 28.7839 84.3156 28.5039V29.8912C84.3326 30.4003 84.201 30.8245 83.921 31.1639C83.6495 31.5118 83.2847 31.7706 82.8265 31.9403C82.3683 32.1185 81.8804 32.2076 81.3629 32.2076C80.8792 32.2076 80.4295 32.1015 80.0138 31.8894C79.6065 31.6773 79.2925 31.3676 79.0719 30.9603L75.8647 32.513C76.3907 33.4039 77.1416 34.1209 78.1174 34.6639C79.0932 35.2154 80.1665 35.4912 81.3374 35.4912C82.3471 35.4912 83.2847 35.3554 84.1501 35.0839C85.0156 34.8209 85.7453 34.4179 86.3392 33.8748C86.9416 33.3318 87.3532 32.6403 87.5738 31.8003C87.6501 31.5033 87.701 31.2021 87.7265 30.8966C87.7604 30.5997 87.7774 30.2815 87.7774 29.9421V15.2548H84.7483V16.0185C84.2816 15.6536 83.7513 15.3736 83.1574 15.1785C82.5719 14.9748 81.9229 14.873 81.2101 14.873C79.895 14.873 78.7495 15.187 77.7738 15.8148C76.798 16.4427 76.0386 17.3039 75.4956 18.3985C74.961 19.4845 74.6938 20.7276 74.6938 22.1276C74.6938 23.5021 74.9568 24.7366 75.4829 25.8312C76.0174 26.9257 76.7598 27.7912 77.7101 28.4276C78.6604 29.0639 79.7677 29.3821 81.0319 29.3821ZM81.5919 26.3021C80.8453 26.3021 80.2344 26.1154 79.7592 25.7421C79.2841 25.3688 78.9319 24.8682 78.7029 24.2403C78.4738 23.6039 78.3592 22.8997 78.3592 22.1276C78.3592 21.3639 78.478 20.6682 78.7156 20.0403C78.9532 19.4039 79.318 18.8991 79.8101 18.5257C80.3107 18.1439 80.9471 17.953 81.7192 17.953C82.8053 17.953 83.5816 18.3391 84.0483 19.1112C84.515 19.8748 84.7483 20.8803 84.7483 22.1276C84.7483 23.3748 84.5107 24.3845 84.0356 25.1566C83.5689 25.9203 82.7544 26.3021 81.5919 26.3021Z" fill="#8B8B8B"/>
<path d="M95.9998 29.3821C97.3744 29.3821 98.5835 29.0766 99.6271 28.4657C100.679 27.8463 101.498 26.9936 102.083 25.9076C102.677 24.813 102.974 23.553 102.974 22.1276C102.974 20.7106 102.682 19.4591 102.096 18.373C101.511 17.2785 100.692 16.4215 99.6398 15.8021C98.5962 15.1827 97.3828 14.873 95.9998 14.873C94.6422 14.873 93.4416 15.1785 92.398 15.7894C91.3544 16.4003 90.5356 17.253 89.9416 18.3476C89.3477 19.4336 89.0507 20.6936 89.0507 22.1276C89.0507 23.5445 89.3392 24.8003 89.9162 25.8948C90.5016 26.9809 91.3162 27.8336 92.3598 28.453C93.4035 29.0724 94.6168 29.3821 95.9998 29.3821ZM95.9998 26.1494C94.9222 26.1494 94.1034 25.7888 93.5434 25.0676C92.9919 24.3379 92.7162 23.3579 92.7162 22.1276C92.7162 20.9312 92.9792 19.9639 93.5053 19.2257C94.0398 18.4791 94.8713 18.1057 95.9998 18.1057C97.0944 18.1057 97.9174 18.4706 98.4689 19.2003C99.0289 19.93 99.3089 20.9057 99.3089 22.1276C99.3089 23.307 99.0331 24.2742 98.4816 25.0294C97.9386 25.776 97.1113 26.1494 95.9998 26.1494Z" fill="#8B8B8B"/>
<path d="M104.5 13.3455H107.962V10.291H104.5V13.3455ZM104.5 29.0001H107.962V15.2546H104.5V29.0001Z" fill="#8B8B8B"/>
<path d="M110.225 35.1094H113.712V28.5039C114.162 28.7839 114.658 29.0003 115.201 29.153C115.753 29.3057 116.351 29.3821 116.996 29.3821C118.26 29.3821 119.368 29.0639 120.318 28.4276C121.268 27.7912 122.006 26.9257 122.532 25.8312C123.067 24.7366 123.334 23.5021 123.334 22.1276C123.334 20.7276 123.063 19.4845 122.52 18.3985C121.985 17.3039 121.23 16.4427 120.254 15.8148C119.278 15.187 118.133 14.873 116.818 14.873C116.105 14.873 115.452 14.9748 114.858 15.1785C114.272 15.3736 113.746 15.6536 113.28 16.0185V15.2548H110.225V35.1094ZM116.436 26.3021C115.282 26.3021 114.468 25.9203 113.992 25.1566C113.517 24.3845 113.28 23.3748 113.28 22.1276C113.28 20.8803 113.513 19.8748 113.98 19.1112C114.455 18.3391 115.231 17.953 116.309 17.953C117.081 17.953 117.713 18.1439 118.205 18.5257C118.706 18.8991 119.075 19.4039 119.312 20.0403C119.55 20.6682 119.669 21.3639 119.669 22.1276C119.669 22.8997 119.554 23.6039 119.325 24.2403C119.096 24.8682 118.744 25.3688 118.269 25.7421C117.794 26.1154 117.183 26.3021 116.436 26.3021Z" fill="#8B8B8B"/>
<path d="M129.606 29.3821C131.404 29.3821 132.813 28.9791 133.831 28.173C134.849 27.3669 135.358 26.2597 135.358 24.8512C135.358 23.7821 135.027 22.9379 134.366 22.3185C133.712 21.6991 132.601 21.1857 131.031 20.7785C129.962 20.5069 129.164 20.2863 128.638 20.1166C128.121 19.947 127.777 19.7815 127.607 19.6203C127.446 19.4591 127.366 19.2597 127.366 19.0221C127.366 18.6233 127.556 18.3179 127.938 18.1057C128.329 17.8936 128.842 17.8088 129.478 17.8512C130.827 17.953 131.566 18.53 131.693 19.5821L135.231 18.9457C135.053 17.6985 134.442 16.71 133.398 15.9803C132.355 15.2421 131.023 14.873 129.402 14.873C127.739 14.873 126.411 15.2633 125.418 16.0439C124.426 16.8245 123.929 17.8766 123.929 19.2003C123.929 20.2524 124.273 21.0839 124.96 21.6948C125.647 22.2973 126.831 22.8148 128.511 23.2476C129.504 23.5106 130.233 23.7227 130.7 23.8839C131.175 24.0451 131.481 24.2106 131.616 24.3803C131.752 24.5415 131.82 24.7579 131.82 25.0294C131.82 25.4621 131.65 25.8015 131.311 26.0476C130.972 26.2851 130.488 26.4039 129.86 26.4039C129.096 26.4039 128.464 26.2215 127.964 25.8566C127.472 25.4918 127.153 24.987 127.009 24.3421L123.471 24.8766C123.7 26.3106 124.345 27.4221 125.406 28.2112C126.475 28.9918 127.875 29.3821 129.606 29.3821Z" fill="#8B8B8B"/>
<path d="M141.744 29.4077C142.737 29.4077 143.602 29.2422 144.341 28.9113C145.079 28.5804 145.698 28.1392 146.199 27.5877V29.0004H149.253V15.2549H145.766V22.2295C145.766 23.078 145.668 23.7652 145.473 24.2913C145.287 24.8089 145.045 25.2034 144.748 25.4749C144.451 25.738 144.133 25.9161 143.793 26.0095C143.454 26.1028 143.136 26.1495 142.839 26.1495C142.101 26.1495 141.528 25.984 141.121 25.6531C140.722 25.3222 140.433 24.9107 140.255 24.4186C140.077 23.9264 139.971 23.4386 139.937 22.9549C139.903 22.4628 139.886 22.0598 139.886 21.7458V15.2549H136.373V22.9677C136.373 23.1967 136.39 23.5616 136.424 24.0622C136.458 24.5628 136.556 25.1186 136.717 25.7295C136.878 26.3319 137.145 26.9131 137.519 27.4731C137.901 28.0331 138.431 28.4955 139.11 28.8604C139.788 29.2252 140.667 29.4077 141.744 29.4077Z" fill="#8B8B8B"/>
<path d="M151.258 29.0002H154.745V20.6765C154.745 19.8875 154.961 19.2469 155.394 18.7547C155.835 18.2541 156.416 18.0038 157.138 18.0038C157.893 18.0038 158.483 18.2584 158.907 18.7675C159.339 19.2681 159.556 19.9723 159.556 20.8802V29.0002H163.018V20.6765C163.018 19.8875 163.234 19.2469 163.667 18.7547C164.108 18.2541 164.689 18.0038 165.41 18.0038C166.166 18.0038 166.755 18.2584 167.179 18.7675C167.612 19.2681 167.829 19.9723 167.829 20.8802V29.0002H171.29V19.9638C171.29 18.462 170.887 17.2487 170.081 16.3238C169.284 15.3905 168.1 14.9238 166.53 14.9238C165.648 14.9238 164.838 15.1147 164.099 15.4965C163.361 15.8784 162.772 16.4002 162.33 17.062C161.974 16.4172 161.465 15.8996 160.803 15.5093C160.141 15.119 159.318 14.9238 158.334 14.9238C157.502 14.9238 156.739 15.0893 156.043 15.4202C155.347 15.7426 154.77 16.1881 154.312 16.7565V15.2547H151.258V29.0002Z" fill="#8B8B8B"/>
<path d="M20 0C8.9543 0 0 8.9543 0 20C11.0457 20 20 11.0457 20 0Z" fill="#8B8B8B"/>
<path d="M20 40C31.0457 40 40 31.0457 40 20C28.9543 20 20 28.9543 20 40Z" fill="#8B8B8B"/>
<path d="M20 0C31.0457 0 40 8.9543 40 20C28.9543 20 20 11.0457 20 0Z" fill="#8B8B8B"/>
<path d="M20 40C8.9543 40 -9.65645e-07 31.0457 0 20C11.0457 20 20 28.9543 20 40Z" fill="#8B8B8B"/>
</g>
<defs>
<clipPath id="clip0_1688_1682">
<rect width="172" height="40" fill="white"/>
</clipPath>
</defs>
</svg>
