<svg width="160" height="30" viewBox="0 0 160 30" fill="none" xmlns="http://www.w3.org/2000/svg">
<g clip-path="url(#clip0_1688_1696)">
<path d="M38.5656 1.27441H42.5603V23.0635H49.1333V26.6951H38.5656V1.27441Z" fill="#8B8B8B"/>
<path d="M56.6812 27.058C54.7202 27.058 53.2192 26.5012 52.1781 25.3875C51.1371 24.2738 50.6166 22.7002 50.6166 20.6665V7.3026C50.6166 5.26895 51.1371 3.69529 52.1781 2.58163C53.2192 1.46796 54.7202 0.911133 56.6812 0.911133C58.6422 0.911133 60.1432 1.46796 61.1843 2.58163C62.2253 3.69529 62.7458 5.26895 62.7458 7.3026V20.6665C62.7458 22.7002 62.2253 24.2738 61.1843 25.3875C60.1432 26.5012 58.6422 27.058 56.6812 27.058ZM56.6812 23.4265C58.0612 23.4265 58.7512 22.5912 58.7512 20.9207V7.04839C58.7512 5.37789 58.0612 4.54264 56.6812 4.54264C55.3012 4.54264 54.6112 5.37789 54.6112 7.04839V20.9207C54.6112 22.5912 55.3012 23.4265 56.6812 23.4265Z" fill="#8B8B8B"/>
<path d="M71.1125 27.058C69.1757 27.058 67.6989 26.5133 66.682 25.4238C65.6652 24.3102 65.1568 22.7244 65.1568 20.6665V7.3026C65.1568 5.24474 65.6652 3.67108 66.682 2.58163C67.6989 1.46796 69.1757 0.911133 71.1125 0.911133C73.0493 0.911133 74.5261 1.46796 75.5429 2.58163C76.5598 3.67108 77.0682 5.24474 77.0682 7.3026V9.4815H73.2914V7.04839C73.2914 5.37789 72.6014 4.54264 71.2214 4.54264C69.8415 4.54264 69.1515 5.37789 69.1515 7.04839V20.9571C69.1515 22.6034 69.8415 23.4265 71.2214 23.4265C72.6014 23.4265 73.2914 22.6034 73.2914 20.9571V15.9819H71.2941V12.3504H77.0682V20.6665C77.0682 22.7244 76.5598 24.3102 75.5429 25.4238C74.5261 26.5133 73.0493 27.058 71.1125 27.058Z" fill="#8B8B8B"/>
<path d="M85.407 27.058C83.446 27.058 81.945 26.5012 80.904 25.3875C79.8629 24.2738 79.3424 22.7002 79.3424 20.6665V7.3026C79.3424 5.26895 79.8629 3.69529 80.904 2.58163C81.945 1.46796 83.446 0.911133 85.407 0.911133C87.3681 0.911133 88.8691 1.46796 89.9101 2.58163C90.9512 3.69529 91.4717 5.26895 91.4717 7.3026V20.6665C91.4717 22.7002 90.9512 24.2738 89.9101 25.3875C88.8691 26.5012 87.3681 27.058 85.407 27.058ZM85.407 23.4265C86.787 23.4265 87.477 22.5912 87.477 20.9207V7.04839C87.477 5.37789 86.787 4.54264 85.407 4.54264C84.0271 4.54264 83.3371 5.37789 83.3371 7.04839V20.9207C83.3371 22.5912 84.0271 23.4265 85.407 23.4265Z" fill="#8B8B8B"/>
<path d="M94.1808 1.27441H98.1755V26.6951H94.1808V1.27441Z" fill="#8B8B8B"/>
<path d="M101.167 1.27441H107.05C109.035 1.27441 110.524 1.80703 111.517 2.87228C112.51 3.93752 113.006 5.49907 113.006 7.55693V10.0627C113.006 12.1206 112.51 13.6821 111.517 14.7474C110.524 15.8126 109.035 16.3452 107.05 16.3452H105.162V26.6951H101.167V1.27441ZM107.05 12.7137C107.704 12.7137 108.188 12.5321 108.503 12.169C108.842 11.8058 109.011 11.1885 109.011 10.3169V7.30273C109.011 6.43116 108.842 5.8138 108.503 5.45065C108.188 5.0875 107.704 4.90593 107.05 4.90593H105.162V12.7137H107.05Z" fill="#8B8B8B"/>
<path d="M120.51 27.058C118.574 27.058 117.109 26.5133 116.116 25.4238C115.124 24.3102 114.627 22.7244 114.627 20.6665V19.2139H118.404V20.9571C118.404 22.6034 119.094 23.4265 120.474 23.4265C121.152 23.4265 121.66 23.2328 121.999 22.8455C122.362 22.4339 122.544 21.7802 122.544 20.8844C122.544 19.8192 122.302 18.8871 121.818 18.0882C121.334 17.265 120.438 16.2845 119.13 15.1466C117.484 13.694 116.334 12.3867 115.68 11.2246C115.027 10.0383 114.7 8.70678 114.7 7.22997C114.7 5.22053 115.208 3.67108 116.225 2.58163C117.242 1.46796 118.719 0.911133 120.656 0.911133C122.568 0.911133 124.009 1.46796 124.977 2.58163C125.97 3.67108 126.466 5.24474 126.466 7.3026V8.35574H122.689V7.04839C122.689 6.17683 122.52 5.54736 122.181 5.16C121.842 4.74843 121.346 4.54264 120.692 4.54264C119.36 4.54264 118.695 5.35368 118.695 6.97576C118.695 7.89574 118.937 8.7552 119.421 9.55413C119.929 10.353 120.837 11.3214 122.145 12.4593C123.815 13.9119 124.965 15.2314 125.595 16.4177C126.224 17.604 126.539 18.996 126.539 20.5939C126.539 22.676 126.018 24.2738 124.977 25.3875C123.96 26.5012 122.471 27.058 120.51 27.058Z" fill="#8B8B8B"/>
<path d="M134.64 27.0582C132.703 27.0582 131.226 26.5135 130.209 25.424C129.192 24.3104 128.684 22.7246 128.684 20.6667V1.27441H132.679V20.9573C132.679 21.8288 132.848 22.4583 133.187 22.8457C133.55 23.233 134.059 23.4267 134.712 23.4267C135.366 23.4267 135.862 23.233 136.201 22.8457C136.564 22.4583 136.746 21.8288 136.746 20.9573V1.27441H140.595V20.6667C140.595 22.7246 140.087 24.3104 139.07 25.424C138.053 26.5135 136.576 27.0582 134.64 27.0582Z" fill="#8B8B8B"/>
<path d="M143.44 1.27441H149.142L151.684 19.4683H151.756L154.299 1.27441H160V26.6951H156.223V7.44799H156.151L153.245 26.6951H149.904L146.999 7.44799H146.927V26.6951H143.44V1.27441Z" fill="#8B8B8B"/>
<path d="M0 26.6953C4.91448 26.6953 8.89841 22.7113 8.89841 17.7969C8.89841 12.8824 4.91448 8.89844 0 8.89844V15.1273C1.47433 15.1273 2.66951 16.3225 2.66951 17.7969C2.66951 19.2712 1.47433 20.4664 0 20.4664V26.6953Z" fill="#8B8B8B"/>
<path d="M29.6614 11.8646C28.1408 11.3829 26.5215 11.123 24.8414 11.123C16.0363 11.123 8.89844 18.261 8.89844 27.066C8.89844 27.9498 8.97036 28.8168 9.10862 29.6614H19.0145C18.6609 28.8686 18.4643 27.9903 18.4643 27.066C18.4643 23.544 21.3194 20.6888 24.8414 20.6888C26.7664 20.6888 28.4921 21.5417 29.6614 22.8902V11.8646Z" fill="#8B8B8B"/>
<path d="M1.56451 0C2.30225 6.67374 7.9603 11.8646 14.8307 11.8646C21.701 11.8646 27.3591 6.67374 28.0968 0H18.5513C17.962 1.4773 16.5182 2.52121 14.8307 2.52121C13.1431 2.52121 11.6994 1.4773 11.11 0H1.56451Z" fill="#8B8B8B"/>
</g>
<defs>
<clipPath id="clip0_1688_1696">
<rect width="160" height="30" fill="white"/>
</clipPath>
</defs>
</svg>
