<svg xmlns="http://www.w3.org/2000/svg" xmlns:xlink="http://www.w3.org/1999/xlink" width="81.011" height="124.173" viewBox="0 0 81.011 124.173"><defs><style>.a{clip-rule:evenodd;}.b,.m{fill:#fff;}.b,.c,.d,.g,.k,.l{fill-rule:evenodd;}.c{fill:#ff1493;}.d{fill:#b70569;}.e{clip-path:url(#a);}.f{fill:#fefefe;}.g{fill:none;}.h{clip-path:url(#b);}.i{clip-path:url(#c);}.j{clip-path:url(#d);}.k{fill:#210d15;}.l{fill:#eeeef0;}</style><clipPath id="a"><path class="a" d="M157.233,183.3c2.556-.156,2.277-.3,3.95-1.763,1.071-.937,2.02-1.64,3.091-2.433,3.794-2.834,3.7-2.968.814-6.216-6.584-7.388-15.378-15.847-21.918-23.156l-10.959-11.573c-2.968-3.046-3.85-1-6.361,1.149-3.2,2.745-.814,4.33,1.194,6.785,8.772,10.68,22.487,27.085,30.176,37.217l.011-.011Z" transform="translate(-124.286 -136.612)"/></clipPath><clipPath id="b"><path class="a" d="M232.12,101.378l23.625,25.11c2.232,2.377,6.8,6.25,7.935,8.615a56.648,56.648,0,0,0,6.16-5.647c2.343-2.444,4.922-3.593,5.056-7.176l-31.649-21.929c-3.571-2.433-5.222-5.4-11.137,1.027h.011Z" transform="translate(-232.11 -97.504)"/></clipPath><clipPath id="c"><path class="a" d="M351.831,86.323c.524.692,14.474,10.524,15.835,11.2,2.243,1.127,14.832,3.381,19.039,4.419,1.8.446,1.708.111,2.288,1.384-2.355.949-13.626-3.069-17.354-3.08l13.437,9.285a18.413,18.413,0,0,0,6.807,1.172c.949-1.83,2.8-11.908,3.315-15,.725-4.386-2.834-3.449-12.956-5.446L358.906,86c-2.991-.536-5.535-1.852-7.086.324h.011Z" transform="translate(-351.82 -85.114)"/></clipPath><clipPath id="d"><path class="a" d="M416.76,5.827l.68.368a7.212,7.212,0,0,0,1.071.391L451.7,12.568c-.413-2.221-2.456-6.93-3.4-9.586-1.451-4.04-1.9-3.069-9.318-2.265-4.006.436-7.968.949-12.041,1.34-2.131.2-4.084.391-6.182.614-3.035.335-3.426.3-3.973,3.147l-.022.011Z" transform="translate(-416.76 0.002)"/></clipPath></defs><g transform="translate(-0.001 0.002)"><g transform="translate(0.001 -0.002)"><path class="b" d="M3.811,286.162c-1.149,1.384-1.406,1.015-2.913,1.7a4.658,4.658,0,0,0,.882,3.292c-.971.6-1.852.915-1.774,2.343.1,1.886-.224.29.58,1.227L1.981,295.8c-.368,8.6,1.205,7.845,9.084,7.812,8.738-.033,7.667.134,11.54,5.457a85.383,85.383,0,0,1,6.551,10.479L34.646,331c6.038-2.221,17.353-5.257,19.206-14.575-3.862-2.577-9.464-11.026-11.963-15.557-1.083,3.482-2.121,6.562-5.792,8.057-4.219,1.718-7.991-1.652-9.33-4.475-2.187-4.575-2.343-16.583,9.352-15.691-1.852-1.92-7.555-9.764-10.825-13.157-9.854,3.359-8.961,5-11.361,8.827-.5.8.045.224-.592.7L11.075,278.8c6.885-.4,5.97-1.35,10.144-3.136,1.786-.759,2.143-.636,3.091-1.462l-5.323-6.584c-1.964-2.411-3.537-4.5-5.613-6.673-6.116,6.238-2.076,7.343-5.1,8.727-2.634-3.315,3.906-8.683,4.006-9.865.3-3.482-3.828,1.272-5.569,6.428-1.92,5.647,1.886,8.325-1.819,11.953-4.062,3.973-5.96,2.622-1.942,6.875.558.592.413.268.837,1.093l.023.011Z" transform="translate(-0.001 -237.591)"/><path class="c" d="M157.233,183.3c2.556-.156,2.277-.3,3.95-1.763,1.071-.937,2.02-1.64,3.091-2.433,3.794-2.834,3.7-2.968.814-6.216-6.584-7.388-15.378-15.847-21.918-23.156l-10.959-11.573c-2.968-3.046-3.85-1-6.361,1.149-3.2,2.745-.814,4.33,1.194,6.785,8.772,10.68,22.487,27.085,30.176,37.217l.011-.011Z" transform="translate(-114.184 -125.508)"/><path class="d" d="M157.233,183.3c2.556-.156,2.277-.3,3.95-1.763,1.071-.937,2.02-1.64,3.091-2.433,3.794-2.834,3.7-2.968.814-6.216-6.584-7.388-15.378-15.847-21.918-23.156l-10.959-11.573c-2.968-3.046-3.85-1-6.361,1.149-3.2,2.745-.814,4.33,1.194,6.785,8.772,10.68,22.487,27.085,30.176,37.217l.011-.011Z" transform="translate(-114.184 -125.508)"/><g class="e" transform="translate(10.102 11.104)"><g transform="translate(-0.131 -0.198)"><path class="f" d="M130.884,135.475l-7.522,6.629-.692-.781,6.729-5.948-.436-.5.792-.692,1.127,1.272-.011.011Z" transform="translate(-122.67 -134.18)"/><path class="f" d="M161.185,180.564a4.794,4.794,0,0,0-1.6,2.656,2.6,2.6,0,0,0,2.9,3.281,4.751,4.751,0,0,0,2.824-1.261,4.688,4.688,0,0,0,1.607-2.645,2.659,2.659,0,0,0-.558-2.433,2.692,2.692,0,0,0-2.343-.849,4.786,4.786,0,0,0-2.834,1.25h0Zm-.67-.759a5.713,5.713,0,0,1,3.527-1.507,3.571,3.571,0,0,1,3.884,4.4,5.633,5.633,0,0,1-1.942,3.3,5.535,5.535,0,0,1-3.515,1.507,3.568,3.568,0,0,1-3.884-4.385,5.735,5.735,0,0,1,1.93-3.315Z" transform="translate(-155.595 -174.705)"/><path class="f" d="M234.505,262.8a4.794,4.794,0,0,0-1.6,2.656,2.6,2.6,0,0,0,2.9,3.281,4.75,4.75,0,0,0,2.824-1.261,4.688,4.688,0,0,0,1.607-2.645,2.659,2.659,0,0,0-.558-2.433,2.692,2.692,0,0,0-2.343-.849,4.786,4.786,0,0,0-2.834,1.25h0Zm-.67-.759a5.713,5.713,0,0,1,3.527-1.507,3.571,3.571,0,0,1,3.884,4.4,5.633,5.633,0,0,1-1.942,3.3,5.535,5.535,0,0,1-3.515,1.507,3.568,3.568,0,0,1-3.884-4.385,5.735,5.735,0,0,1,1.93-3.315Z" transform="translate(-222.955 -250.26)"/><path class="f" d="M307.685,344.914a4.793,4.793,0,0,0-1.6,2.656,2.6,2.6,0,0,0,2.9,3.281,4.75,4.75,0,0,0,2.824-1.261,4.688,4.688,0,0,0,1.607-2.645,2.659,2.659,0,0,0-.558-2.433,2.693,2.693,0,0,0-2.343-.849,4.786,4.786,0,0,0-2.834,1.25h0Zm-.67-.759a5.713,5.713,0,0,1,3.527-1.507,3.571,3.571,0,0,1,3.884,4.4,5.633,5.633,0,0,1-1.942,3.3,5.535,5.535,0,0,1-3.515,1.507,3.568,3.568,0,0,1-3.884-4.385,5.735,5.735,0,0,1,1.93-3.315Z" transform="translate(-290.187 -325.696)"/><path class="f" d="M370.324,403.894l-7.521,6.64-.693-.792,6.741-5.937-.446-.5.792-.7,1.127,1.272-.011.011Z" transform="translate(-342.648 -380.782)"/><path class="f" d="M389.964,425.995l-7.522,6.629-.692-.781,6.741-5.948-.447-.5.793-.692,1.127,1.272-.011.011Z" transform="translate(-360.691 -401.086)"/><path class="f" d="M420.265,471.084a4.794,4.794,0,0,0-1.6,2.656,2.6,2.6,0,0,0,2.9,3.281,4.751,4.751,0,0,0,2.824-1.261A4.688,4.688,0,0,0,426,473.116a2.659,2.659,0,0,0-.558-2.433,2.692,2.692,0,0,0-2.343-.849,4.786,4.786,0,0,0-2.834,1.25h0Zm-.67-.759a5.713,5.713,0,0,1,3.527-1.507,3.571,3.571,0,0,1,3.884,4.4,5.633,5.633,0,0,1-1.942,3.3,5.535,5.535,0,0,1-3.515,1.507,3.568,3.568,0,0,1-3.884-4.385,5.735,5.735,0,0,1,1.93-3.315Z" transform="translate(-393.616 -441.611)"/><path class="f" d="M493.576,553.324a4.794,4.794,0,0,0-1.6,2.656,2.6,2.6,0,0,0,2.9,3.281A4.746,4.746,0,0,0,497.705,558a4.688,4.688,0,0,0,1.607-2.645,2.659,2.659,0,0,0-.558-2.433,2.693,2.693,0,0,0-2.343-.849,4.786,4.786,0,0,0-2.834,1.25h0Zm-.67-.759a5.711,5.711,0,0,1,3.526-1.507,3.571,3.571,0,0,1,3.884,4.4,5.633,5.633,0,0,1-1.942,3.3,5.535,5.535,0,0,1-3.515,1.507,3.568,3.568,0,0,1-3.884-4.385,5.735,5.735,0,0,1,1.93-3.315h0Z" transform="translate(-460.967 -517.166)"/><path class="f" d="M556.094,612.3l-7.522,6.64-.692-.793,6.74-5.948-.446-.5.792-.693,1.127,1.273-.011.011Z" transform="translate(-513.318 -572.252)"/></g></g><path class="g" d="M157.233,183.3c2.556-.156,2.277-.3,3.95-1.763,1.071-.937,2.02-1.64,3.091-2.433,3.794-2.834,3.7-2.968.814-6.216-6.584-7.388-15.378-15.847-21.918-23.156l-10.959-11.573c-2.968-3.046-3.85-1-6.361,1.149-3.2,2.745-.814,4.33,1.194,6.785,8.772,10.68,22.487,27.085,30.176,37.217l.011-.011Z" transform="translate(-114.184 -125.508)"/><path class="c" d="M232.12,101.378l23.625,25.11c2.232,2.377,6.8,6.25,7.935,8.615a56.648,56.648,0,0,0,6.16-5.647c2.343-2.444,4.922-3.593,5.056-7.176l-31.649-21.929c-3.571-2.433-5.222-5.4-11.137,1.027h.011Z" transform="translate(-213.244 -89.578)"/><path class="d" d="M232.12,101.378l23.625,25.11c2.232,2.377,6.8,6.25,7.935,8.615a56.648,56.648,0,0,0,6.16-5.647c2.343-2.444,4.922-3.593,5.056-7.176l-31.649-21.929c-3.571-2.433-5.222-5.4-11.137,1.027h.011Z" transform="translate(-213.244 -89.578)"/><g class="h" transform="translate(18.866 7.925)"><g transform="translate(14.551 9.923)"><path class="f" d="M419.478,220.863l-7.455,8.47-.892-.781,6.7-7.589-.57-.492.782-.892,1.44,1.261-.011.011Z" transform="translate(-411.13 -219.58)"/><path class="f" d="M457.094,268.584a5.386,5.386,0,0,0-1.406,3.192,2.991,2.991,0,0,0,.96,2.634,3.022,3.022,0,0,0,2.745.625,5.873,5.873,0,0,0,4.4-4.988,2.924,2.924,0,0,0-3.694-3.259,5.452,5.452,0,0,0-2.991,1.8h-.011Zm-.859-.759a6.417,6.417,0,0,1,3.728-2.176,4.112,4.112,0,0,1,3.615.882A4.038,4.038,0,0,1,464.906,270a6.921,6.921,0,0,1-5.4,6.138,4,4,0,0,1-4.944-4.353,6.364,6.364,0,0,1,1.685-3.962h-.011Z" transform="translate(-451.023 -261.822)"/><path class="f" d="M550.174,350.144a5.385,5.385,0,0,0-1.406,3.192,3.016,3.016,0,0,0,.949,2.634,3.054,3.054,0,0,0,2.745.625,5.873,5.873,0,0,0,4.4-4.988,2.924,2.924,0,0,0-3.694-3.259,5.452,5.452,0,0,0-2.991,1.8h0Zm-.859-.759a6.417,6.417,0,0,1,3.728-2.176,4.113,4.113,0,0,1,3.615.882,4.038,4.038,0,0,1,1.328,3.471,6.921,6.921,0,0,1-5.4,6.138,4,4,0,0,1-4.944-4.353,6.363,6.363,0,0,1,1.685-3.962Z" transform="translate(-536.538 -336.752)"/><path class="f" d="M630.917,405.814l-7.466,8.46-.881-.781,6.684-7.589-.569-.491.792-.892,1.439,1.261-.011.023Z" transform="translate(-605.384 -389.488)"/></g></g><path class="g" d="M232.12,101.378l23.625,25.11c2.232,2.377,6.8,6.25,7.935,8.615a56.648,56.648,0,0,0,6.16-5.647c2.343-2.444,4.922-3.593,5.056-7.176l-31.649-21.929c-3.571-2.433-5.222-5.4-11.137,1.027h.011Z" transform="translate(-213.244 -89.578)"/><path class="c" d="M351.831,86.323c.524.692,14.474,10.524,15.835,11.2,2.243,1.127,14.832,3.381,19.039,4.419,1.8.446,1.708.111,2.288,1.384-2.355.949-13.626-3.069-17.354-3.08l13.437,9.285a18.413,18.413,0,0,0,6.807,1.172c.949-1.83,2.8-11.908,3.315-15,.725-4.386-2.834-3.449-12.956-5.446L358.906,86c-2.991-.536-5.535-1.852-7.086.324h.011Z" transform="translate(-323.223 -78.195)"/><path class="d" d="M351.831,86.323c.524.692,14.474,10.524,15.835,11.2,2.243,1.127,14.832,3.381,19.039,4.419,1.8.446,1.708.111,2.288,1.384-2.355.949-13.626-3.069-17.354-3.08l13.437,9.285a18.413,18.413,0,0,0,6.807,1.172c.949-1.83,2.8-11.908,3.315-15,.725-4.386-2.834-3.449-12.956-5.446L358.906,86c-2.991-.536-5.535-1.852-7.086.324h.011Z" transform="translate(-323.223 -78.195)"/><g class="i" transform="translate(28.597 6.918)"><g transform="translate(10.238 1.822)"><path class="f" d="M478.871,111.83a4.6,4.6,0,0,0,.279,2.968,2.5,2.5,0,0,0,4.118.882,4.518,4.518,0,0,0,1.462-2.589,4.6,4.6,0,0,0-.268-2.968,2.5,2.5,0,0,0-4.118-.893,4.59,4.59,0,0,0-1.473,2.589Zm-.96-.2a5.408,5.408,0,0,1,1.875-3.169,3.425,3.425,0,0,1,5.5,1.183,5.933,5.933,0,0,1-1.473,6.841,3.481,3.481,0,0,1-3.058.849,3.53,3.53,0,0,1-2.444-2.031,5.493,5.493,0,0,1-.4-3.66v-.011Z" transform="translate(-477.77 -107.533)"/><path class="f" d="M581.245,122.318l-2.031,9.43-.993-.212,1.819-8.448-.625-.134.212-.993,1.607.346-.011.011Z" transform="translate(-570.055 -120.787)"/><path class="f" d="M610.131,139.84a4.6,4.6,0,0,0,.279,2.968,2.5,2.5,0,0,0,4.118.882,4.518,4.518,0,0,0,1.462-2.589,4.6,4.6,0,0,0-.268-2.968,2.5,2.5,0,0,0-4.118-.893,4.59,4.59,0,0,0-1.473,2.589Zm-.96-.2a5.408,5.408,0,0,1,1.875-3.169,3.425,3.425,0,0,1,5.5,1.183,5.933,5.933,0,0,1-1.473,6.841,3.481,3.481,0,0,1-3.058.849,3.53,3.53,0,0,1-2.444-2.031,5.494,5.494,0,0,1-.4-3.66v-.011Z" transform="translate(-598.361 -133.266)"/><path class="f" d="M713.651,161.95a4.6,4.6,0,0,0,.279,2.968,2.5,2.5,0,0,0,4.118.882,4.518,4.518,0,0,0,1.462-2.589,4.6,4.6,0,0,0-.268-2.968,2.5,2.5,0,0,0-4.118-.893,4.59,4.59,0,0,0-1.473,2.589Zm-.96-.2a5.408,5.408,0,0,1,1.875-3.169,3.425,3.425,0,0,1,5.5,1.183A5.933,5.933,0,0,1,718.6,166.6a3.481,3.481,0,0,1-3.058.849,3.53,3.53,0,0,1-2.444-2.031,5.494,5.494,0,0,1-.4-3.66v-.011Z" transform="translate(-693.467 -153.579)"/><path class="f" d="M816.024,172.448l-2.031,9.43-.992-.223,1.83-8.448-.636-.133.211-.993,1.608.345v.011Z" transform="translate(-785.752 -166.833)"/><path class="f" d="M843.883,178.348l-2.031,9.43-.982-.212,1.819-8.459-.636-.134.212-.993,1.607.346v.022Z" transform="translate(-811.357 -172.254)"/></g></g><path class="g" d="M351.831,86.323c.524.692,14.474,10.524,15.835,11.2,2.243,1.127,14.832,3.381,19.039,4.419,1.8.446,1.708.111,2.288,1.384-2.355.949-13.626-3.069-17.354-3.08l13.437,9.285a18.413,18.413,0,0,0,6.807,1.172c.949-1.83,2.8-11.908,3.315-15,.725-4.386-2.834-3.449-12.956-5.446L358.906,86c-2.991-.536-5.535-1.852-7.086.324h.011Z" transform="translate(-323.223 -78.195)"/><path class="c" d="M416.76,5.827l.68.368a7.212,7.212,0,0,0,1.071.391L451.7,12.568c-.413-2.221-2.456-6.93-3.4-9.586-1.451-4.04-1.9-3.069-9.318-2.265-4.006.436-7.968.949-12.041,1.34-2.131.2-4.084.391-6.182.614-3.035.335-3.426.3-3.973,3.147l-.022.011Z" transform="translate(-382.885 0.002)"/><path class="d" d="M416.76,5.827l.68.368a7.212,7.212,0,0,0,1.071.391L451.7,12.568c-.413-2.221-2.456-6.93-3.4-9.586-1.451-4.04-1.9-3.069-9.318-2.265-4.006.436-7.968.949-12.041,1.34-2.131.2-4.084.391-6.182.614-3.035.335-3.426.3-3.973,3.147l-.022.011Z" transform="translate(-382.885 0.002)"/><g class="j" transform="translate(33.875 0)"><g transform="translate(3.272 -0.321)"><path class="f" d="M457.946.085a4.091,4.091,0,0,0,.424,2.634,2.32,2.32,0,0,0,1.708,1.295,2.341,2.341,0,0,0,2.02-.748,4.061,4.061,0,0,0,1.149-2.4,4.088,4.088,0,0,0-.413-2.634,2.291,2.291,0,0,0-1.718-1.295,2.32,2.32,0,0,0-2.008.748,4.14,4.14,0,0,0-1.161,2.4Zm-.871-.123a4.888,4.888,0,0,1,1.484-2.946,3.11,3.11,0,0,1,2.69-.937,3.086,3.086,0,0,1,2.3,1.674A4.791,4.791,0,0,1,464.105,1a4.849,4.849,0,0,1-1.473,2.946,3.068,3.068,0,0,1-4.988-.736,4.847,4.847,0,0,1-.569-3.247Z" transform="translate(-457.01 3.956)"/><path class="f" d="M553.033,5.213l-1.25,8.548-.893-.134,1.117-7.655-.57-.078.134-.9,1.451.211v.011Z" transform="translate(-543.259 -4.263)"/><path class="f" d="M578.163,8.794l-1.25,8.537-.893-.123,1.116-7.667-.569-.078.134-.9,1.45.211v.011Z" transform="translate(-566.347 -7.543)"/><path class="f" d="M601.966,20.685a4.091,4.091,0,0,0,.424,2.634,2.234,2.234,0,0,0,3.728.547,4.061,4.061,0,0,0,1.149-2.4,4.088,4.088,0,0,0-.413-2.634,2.291,2.291,0,0,0-1.718-1.295,2.32,2.32,0,0,0-2.008.748,4.14,4.14,0,0,0-1.161,2.4Zm-.871-.123a4.888,4.888,0,0,1,1.484-2.946,3.068,3.068,0,0,1,4.988.736,4.791,4.791,0,0,1,.558,3.247,4.849,4.849,0,0,1-1.473,2.946,3.068,3.068,0,0,1-4.988-.736,4.848,4.848,0,0,1-.569-3.247Z" transform="translate(-589.324 -14.969)"/><path class="f" d="M697.063,25.8l-1.25,8.548-.892-.123,1.116-7.667-.569-.078.134-.9,1.45.212V25.8Z" transform="translate(-675.582 -23.179)"/><path class="f" d="M720.726,37.7a4.091,4.091,0,0,0,.424,2.634,2.234,2.234,0,0,0,3.728.547,4.49,4.49,0,0,0,.736-5.033,2.291,2.291,0,0,0-1.718-1.295,2.32,2.32,0,0,0-2.008.748,4.14,4.14,0,0,0-1.161,2.4Zm-.871-.123a4.888,4.888,0,0,1,1.484-2.946,3.068,3.068,0,0,1,4.988.736,4.791,4.791,0,0,1,.558,3.247,4.848,4.848,0,0,1-1.473,2.946,3.068,3.068,0,0,1-4.988-.736A4.847,4.847,0,0,1,719.855,37.582Z" transform="translate(-698.431 -30.606)"/><path class="f" d="M815.834,42.824l-1.25,8.548-.9-.123,1.127-7.667-.569-.078.133-.9,1.451.212v.011Z" transform="translate(-784.689 -38.816)"/></g></g><path class="g" d="M416.76,5.827l.68.368a7.212,7.212,0,0,0,1.071.391L451.7,12.568c-.413-2.221-2.456-6.93-3.4-9.586-1.451-4.04-1.9-3.069-9.318-2.265-4.006.436-7.968.949-12.041,1.34-2.131.2-4.084.391-6.182.614-3.035.335-3.426.3-3.973,3.147l-.022.011Z" transform="translate(-382.885 0.002)"/><path class="b" d="M347.05,673.763c1.741,12.778-9.2,11.93-8.928,2.869.056-1.964.424-1.864-.3-3-3.449,8.527-.592,15.59,5.2,15.412,4.475-.145,7.332-5.982,6.116-11.171a7.2,7.2,0,0,0-1.819-3.839c-.056-.067-.179-.189-.268-.279v.011Z" transform="translate(-308.991 -618.876)"/><path class="k" d="M378.893,645.035c-4.933,2.3-2.143,11.93,1.25,10.278C383.871,653.494,382.621,643.305,378.893,645.035Z" transform="translate(-345.643 -592.424)"/><path class="l" d="M30.531,510.106c2.377.323,3.348-1.685,4.106-3.716-1.9.759-.781.58-2.411,1.875-1.1.871-1.194.245-1.7,1.841Z" transform="translate(-28.049 -465.229)"/><path class="l" d="M20.9,621.17c.725.937-1.116-.045.971,1.35a7.257,7.257,0,0,0,1.93.781C23.245,621.449,23.311,621.315,20.9,621.17Z" transform="translate(-19.143 -570.68)"/><path class="l" d="M13.545,667.308c.625.5-1.674,1.25,1.295.413,1.384-.391.245-.045.68-.971l-1.975.569v-.011Z" transform="translate(-12.201 -612.555)"/><path class="f" d="M251.93,82.671l-6.194,7.02L245,89.043l5.547-6.294-.469-.413.658-.736,1.194,1.049-.011.011Z" transform="translate(-225.086 -74.967)"/><path class="f" d="M282.871,122.313a4.576,4.576,0,0,0-1.172,2.645,2.427,2.427,0,0,0,3.069,2.7,4.362,4.362,0,0,0,2.466-1.507,4.457,4.457,0,0,0,1.183-2.634,2.427,2.427,0,0,0-3.069-2.7,4.47,4.47,0,0,0-2.477,1.5Zm-.714-.625a5.325,5.325,0,0,1,3.091-1.808,3.327,3.327,0,0,1,4.1,3.615,5.717,5.717,0,0,1-4.486,5.089,3.33,3.33,0,0,1-4.106-3.615,5.248,5.248,0,0,1,1.406-3.292v.011Z" transform="translate(-257.924 -110.067)"/><path class="f" d="M360.171,189.993A4.576,4.576,0,0,0,359,192.638a2.427,2.427,0,0,0,3.069,2.7,4.362,4.362,0,0,0,2.466-1.507,4.457,4.457,0,0,0,1.183-2.634,2.427,2.427,0,0,0-3.069-2.7,4.47,4.47,0,0,0-2.477,1.5Zm-.714-.625a5.325,5.325,0,0,1,3.091-1.808,3.327,3.327,0,0,1,4.1,3.615,5.717,5.717,0,0,1-4.486,5.089,3.33,3.33,0,0,1-4.106-3.615,5.248,5.248,0,0,1,1.406-3.292v.011Z" transform="translate(-328.941 -172.246)"/><path class="m" d="M424.243,1034.1c.334-.1.309.14-.034,1.173.938-.271,1.933-.577,2.985-.936a2.229,2.229,0,0,0-.5-1.9c-.367-.328-.919-.351-1.807.017a6.3,6.3,0,0,0-1.964,1.173,8.366,8.366,0,0,0-1.406,1.816c-.707,1.155-.363,1.624.2,1.931.659.359,1.532.522,1.27,1.3-.16.473-.341.778-.82.828-.594.063-.341-.552-.034-1.292-.944.1-1.792.167-2.547.2a2.845,2.845,0,0,0-.669,1.973c.156.519.927.873,2.642.741a8.022,8.022,0,0,0,4.231-1.254,2.5,2.5,0,0,0,1.006-2c.112-1.273-1.016-1.51-1.99-1.735-.85-.2-1.583-.383-1.287-1.116.266-.655.432-.841.723-.927Zm7.956-5.419c.269.52.537,1.043.806,1.564s.537,1.042.8,1.564c-.706.45-1.432.879-2.165,1.292q-.254-.849-.506-1.693t-.506-1.693c-.795.458-1.581.912-2.359,1.307.026,1.451.05,2.9.074,4.349s.049,2.9.074,4.349a45.6,45.6,0,0,0,4.657-1.808c-.16-.536-.322-1.071-.48-1.606s-.317-1.074-.477-1.608c.829-.446,1.649-.915,2.444-1.415q.386.74.766,1.485t.763,1.483a46.766,46.766,0,0,0,3.923-2.865q-1.416-1.6-2.833-3.206t-2.83-3.206c-.688.584-1.412,1.153-2.156,1.708Zm5.935-3.31a19.837,19.837,0,0,0,1.378-2.245l-1.649-.766a10.532,10.532,0,0,1-1.106,1.978,18.357,18.357,0,0,1-1.678,1.946c1.032.995,2.069,1.984,3.1,2.979s2.067,1.988,3.1,2.98a42.328,42.328,0,0,0,2.9-3.081c.8-.969,1.47-1.963,2.152-2.875l-1.649-.766q-.947,1.351-2.047,2.816l-1.609-1.061c.477-.641.921-1.269,1.341-1.884-.529-.267-1.055-.537-1.581-.806-.369.571-.766,1.153-1.2,1.742C439.106,1026.01,438.624,1025.688,438.134,1025.371Z" transform="translate(-384.834 -939.26)"/><path class="m" d="M362.433,1093.77c-.33-.015-.471-.112-.4-.463a10.814,10.814,0,0,1,.912-2.036,16.961,16.961,0,0,1,1.135-2.021c.269-.361.462-.46.715-.458.458,0,.338.5.034,1.192.685,0,1.4-.009,2.163-.066a2.53,2.53,0,0,0,.013-1.907,1.445,1.445,0,0,0-1.431-.723,3.026,3.026,0,0,0-2.227.9,14.973,14.973,0,0,0-2.188,2.953c-.9,1.443-1.426,2.407-1.4,3.054s.654,1,2.094,1.081a4.587,4.587,0,0,0,2.852-.7,3.651,3.651,0,0,0,1.452-2c-.865.043-1.687.043-2.475.039-.313.719-.651,1.18-1.251,1.154Zm5.066-2.084a19.438,19.438,0,0,0,2.527.958,27.758,27.758,0,0,0,3.109.637c0-.5,0-1-.008-1.505a35.779,35.779,0,0,1-3.649-.721c1.233-.659,2.45-1.366,3.641-2.082v-1.508c-.857.595-1.731,1.205-2.638,1.772s-1.829,1.056-2.75,1.555c-.072.3-.154.6-.231.894Zm9.885-6.634a37.073,37.073,0,0,1-.989,4.326,41.356,41.356,0,0,1-1.657,4.371c.921-.228,1.842-.522,2.771-.823a30.419,30.419,0,0,0,1.8-8.722C378.669,1084.506,378.026,1084.78,377.384,1085.052Zm9.7-1.494c-1.079.219-2.132.433-3.186.6-1.036.163-2.069.281-3.084.359q.309.674.617,1.345c1.366-.187,2.741-.445,4.12-.748a39.576,39.576,0,0,1-2.968,3.261q.308.674.617,1.345a35.934,35.934,0,0,0,2.5-2.725c.723-.906,1.357-1.838,1.961-2.738C387.47,1084.024,387.273,1083.793,387.085,1083.558Zm6.531-4.889a8.188,8.188,0,0,0-3.456-1.631c-.878-.072-1.595.349-2.548,1.291-.615.606-1.293,1.183-1.983,1.783q1.362,1.488,2.716,2.978c.9.993,1.812,1.984,2.715,2.976,1.011-.736,2.03-1.429,2.951-2.187,1.423-1.172,2.008-2.049,1.872-2.842s-1.01-1.531-2.518-2.538c.085.054.167.111.253.169Zm-1.957,1.466c1.1.864,1.622,1.361,1.7,1.774s-.266.753-.921,1.309l-2-1.792q-1-.9-2-1.8c.51-.484.817-.739,1.268-.663a6.024,6.024,0,0,1,2.167,1.35c-.072-.062-.15-.121-.227-.18Zm1.268-5.147q.6-.786,1.148-1.56l-1.786-.828q-.925,1.436-2.095,2.924,1.94,1.224,3.88,2.445t3.889,2.443q1.818-1.854,3.5-3.555c-.595-.276-1.195-.552-1.79-.828q-.79.855-1.619,1.74c-.612-.331-1.221-.663-1.837-.994.355-.406.706-.8,1.045-1.2-.583-.281-1.161-.561-1.743-.844-.3.383-.617.768-.938,1.158C394.036,1075.588,393.479,1075.289,392.927,1074.988Z" transform="translate(-330.517 -985.417)"/><path class="m" d="M434.362,1179.524c.1-.719.2-1.436.3-2.151s.2-1.435.3-2.154c.775-.072,1.569-.162,2.38-.291.062-.693.123-1.377.18-2.069-.776.136-1.53.221-2.27.3.1-.716.2-1.44.3-2.16.991-.114,2.012-.271,3.064-.48.04-.69.088-1.383.132-2.072-1.889.367-3.682.582-5.4.792-.346,1.731-.7,3.46-1.048,5.186s-.7,3.454-1.048,5.18q1.506.013,3.112-.079Zm9.955-5.934a1.82,1.82,0,0,1,1.179,1.586,9.391,9.391,0,0,0,.381,1.93q2.012-.742,4.068-1.586a9.041,9.041,0,0,1-.846-2.191,2.166,2.166,0,0,0-1.854-1.633,2.7,2.7,0,0,0,.9-2.91,2.1,2.1,0,0,0-1.6-1.868,8.385,8.385,0,0,0-3.862.55c-.975.292-1.942.553-2.893.757-.057,1.766-.12,3.533-.18,5.3s-.119,3.536-.176,5.3c1.236-.256,2.49-.571,3.774-.891-.031-.661-.066-1.316-.1-1.976s-.07-1.313-.1-1.97c.429-.134.863-.265,1.3-.4Zm-1.53-4.234c1.53-.466,1.894-.128,2.017,1.024s-.2,1.545-1.863,2.057c-.022-.515-.049-1.03-.075-1.539s-.053-1.027-.079-1.543Zm6.168-4.261q.638,2.423,1.271,4.845t1.266,4.849c1.381-.658,2.74-1.418,4.094-2.191q-.881-2.265-1.771-4.528t-1.771-4.531c-1.022.562-2.056,1.071-3.09,1.557Zm12.778,1.175c-.549.439-.922.607-1.319.393a5.747,5.747,0,0,1-1.5-1.895,7.184,7.184,0,0,1-1.1-2.2c-.076-.477.132-.779.6-1.12.812-.593,1.319-.267,1.81.376,1.057-.891,2.082-1.77,3.081-2.651a2.852,2.852,0,0,0-2.367-.812,7.421,7.421,0,0,0-3.4,1.54c-1.833,1.3-2.8,2.274-3.116,3.385-.323,1.127,0,2.363.736,4.022.766,1.717,1.449,2.74,2.581,2.873,1.155.135,2.8-.618,5.212-2.625a8.908,8.908,0,0,0,2.981-3.865,2.261,2.261,0,0,0-.553-2.468c-1.074,1-2.174,2.008-3.314,3.024C462.578,1164.9,462.686,1165.508,461.732,1166.271ZM463.9,1154.8c.723,1.188,1.439,2.43,2.086,3.748.663,1.351,1.245,2.791,1.824,4.287q1.4-1.6,2.726-3.123c-.241-.358-.487-.713-.727-1.07.645-.742,1.218-1.5,1.784-2.244.429.1.863.2,1.3.291.693-.952,1.372-1.871,2.03-2.759-1.539-.1-3.058-.224-4.558-.422s-2.977-.469-4.462-.774c-.631.684-1.3,1.365-2,2.066Zm3.191.361c.491.16.986.309,1.477.457s.982.285,1.477.413c-.364.463-.736.928-1.131,1.394-.293-.387-.589-.771-.9-1.149s-.618-.748-.925-1.114Z" transform="translate(-396.197 -1059.033)"/><path class="d" d="M302.776,1356.963c.07.052.034,0,.093.094a.435.435,0,0,1,.062.182l.482-.028c.045-.021-.032,0,.1-.041l.1-.028a1.6,1.6,0,0,1,.3-.042c-.034-.072.544,0,.637,0,.2-.1-.025-.1.238-.145.515-.079.351.2.565.307.156.079.34.014.49.079.3.132.059.554,0,.831l-.14.313a6.5,6.5,0,0,0,1.151-.044l1.3-.044.939-.028,2.017-.054c-.088.1-.052.081-.284.144-.111.03-.22.081-.313.112-.211.072-.393.122-.6.206-.658.264-3.382,1.088-3.686,1.271-.052.278.059.343.01.571-.043.2-.87.848-.445,1.531.266.427.01,1.443.3,1.857l.113.2,1.019-.116-.919.364c-.076.641-.233.267.115.736.4.094.192.014.469-.1.279-.053.522.316,1.364-.471.188-.176.327-.331.5-.487.385-.339.164-.278.323-.722.179-.157.375-.089.458-.333a4.52,4.52,0,0,0,.082-.781,4.445,4.445,0,0,0,1.163-.887c.2-.24.011-.25-.019-.477-.021-.159.011-.374-.011-.575-.35-.076-1.045.1-1.452.06l1.36-.469c.031-.844-.038-.444.352-.846a2.367,2.367,0,0,0,.272-.322,1.22,1.22,0,0,1,.7-.473l.256-.207c.093-.076,0-.016.111-.082a11.88,11.88,0,0,1,.612-1.126l-5.18.131c.413-.229,3.511-.791,4.016-1.06-.04-.232-.41-.323-.434-.71-.13-.075-.246-.41-.3-.608-.108-.387.086-.423-.146-.748-.38,0-6.1,1.141-7.2,1.188.25-.167,4.34-1.505,5.039-1.766.163-.061,1.491-.518,1.641-.632l-.152-.459c-.268-.026-.493-.015-.766-.062-.435-.074-.3-.013-.565-.268-.763-.229-.645.231-.663.427-.185-.065-.263-.086-.455-.147-.231-.073-.067-.145-.174-.336-.319-.041-.276.021-.543-.121-.17-.09-.324-.024-.54.015a8.674,8.674,0,0,1-1.134.188l1.6-.663-.017-.4a7.6,7.6,0,0,1-.855.05c-1.073-.1-.839.12-1.257.167-.488.054-.486-.161-.775.183-.245.292-.188.2-.3.245-.307.132-.218.3-.389.628s-.331.18-.564.461a1.561,1.561,0,0,1-.23.272c-.153.107-.231.029-.32.2,0,0-.236.836-.241.87l1.34-.228-1.388.528c-.035.185-.049.388-.091.567-.115.489-.506.248.126,1.1.189.256.118.658.3.74s1.5-.212,1.831-.215l-1.461.406c.089.115.037.027.051.12Z" transform="translate(-277.186 -1241.059)"/><path class="m" d="M219.769,1165.7c.608.072.68.584-.073,1.713l-4.36,6.541a9.96,9.96,0,0,0-1.512,3.153,1.73,1.73,0,0,0,.975,2.227l.737.289c.245.1.492.194.739.289l2.02-3.409c-.2-.063-.4-.129-.6-.194-.524-.173-.494-1.031.146-2.063q2.058-3.315,4.116-6.627c.9-1.444,1.048-2.334.858-2.836a7.291,7.291,0,0,0,2.569-2.684q2.056-3.309,4.114-6.625a4.37,4.37,0,0,1,1.918-1.908l.527-.1q1.011-1.706,2.022-3.412c-.209.054-.417.112-.626.167s-.415.111-.624.167a6.433,6.433,0,0,0-2.605,1.913,24.542,24.542,0,0,0-2.4,3.072l-4.36,6.543c-.749,1.125-1.437,1.567-2.037,1.529C220.8,1164.2,220.286,1164.953,219.769,1165.7Z" transform="translate(-196.376 -1056.581)"/><path class="m" d="M671.291,1005.294c-.492.39-.358.8.713,1.209l6.2,2.347a6.743,6.743,0,0,1,2.486,1.459,1.485,1.485,0,0,1,.014,2.165l-.519.62c-.173.207-.345.414-.52.621l-3.016-1.364c.146-.156.292-.315.436-.474.381-.417.031-1.026-.907-1.422q-3.013-1.274-6.025-2.547c-1.312-.556-1.779-1.12-1.808-1.592a5.948,5.948,0,0,1-3.209-.53l-6.021-2.546a3.646,3.646,0,0,0-2.36-.326l-.485.223-3.02-1.365c.2-.077.4-.15.6-.225l.6-.224a5.9,5.9,0,0,1,2.947-.051,18.568,18.568,0,0,1,3.21.909l6.2,2.35a2.4,2.4,0,0,0,2.317-.016C669.843,1004.774,670.567,1005.036,671.291,1005.294Z" transform="translate(-600.153 -919.741)"/></g></g></svg>