<svg xmlns="http://www.w3.org/2000/svg" xmlns:xlink="http://www.w3.org/1999/xlink" width="72" height="72" viewBox="0 0 72 72"><defs><style>.a{fill:rgba(255,255,255,0);}.b{clip-path:url(#a);}.c{fill:#b70569;}</style><clipPath id="a"><rect class="a" width="72" height="72"/></clipPath></defs><g class="b"><path class="c" d="M71.666,65.366l-15.134-24.6a2.256,2.256,0,0,0-3.843,0l-1.965,3.193a1.056,1.056,0,0,0,1.8,1.107l1.965-3.194a.144.144,0,0,1,.245,0l15.134,24.6a.144.144,0,0,1-.122.219H61.363l-23.441-38.1a2.25,2.25,0,0,0-.838-.8h0V20.627a9.764,9.764,0,0,0,2.573.34A19.9,19.9,0,0,0,46.53,19.31c3.058-1.135,5.947-2.208,9.071-.955a1.307,1.307,0,0,0,1.793-1.213V5.209a1.306,1.306,0,0,0-.795-1.2c-3.966-1.691-7.443-.4-10.805.847-3.15,1.169-6.125,2.273-9.364.826a1.056,1.056,0,0,0-1.487.964v.039a1.083,1.083,0,0,0-.029.244V27.8a2.252,2.252,0,0,0-.837.8L22.949,46.681l-3.638-5.912a2.256,2.256,0,0,0-3.843,0L.334,65.366A2.256,2.256,0,0,0,2.256,68.8H69.744a2.256,2.256,0,0,0,1.922-3.439ZM37.056,8.142c3.42.938,6.491-.2,9.474-1.309,2.951-1.1,5.747-2.133,8.752-1.075V16.022c-3.43-.941-6.5.2-9.487,1.308-2.946,1.094-5.739,2.13-8.739,1.075ZM13.118,66.692l3.624-5.89a1.056,1.056,0,0,0-1.8-1.107l-4.305,7H2.256a.144.144,0,0,1-.122-.219l15.134-24.6a.144.144,0,0,1,.245,0l4.2,6.821-4.19,6.811a1.056,1.056,0,1,0,1.8,1.107L35.878,29.7a.144.144,0,0,1,.245,0l22.76,36.991Z"/></g></svg>