<svg xmlns="http://www.w3.org/2000/svg" width="1193" height="406" viewBox="0 0 1193 406"><defs><style>.a,.c{fill:none;}.a{stroke:#707070;stroke-width:4px;}.b{fill:rgba(255,255,255,0);}.d,.e{fill:#b70569;}.e{fill-rule:evenodd;}.f{font-size:24px;font-family:Montserrat-Medium, Montserrat;font-weight:500;}</style></defs><g transform="translate(-609 -1233)"><path class="a" d="M10197.936,1544.787s84.608-15.9,101.08,46.825,8.87,62.086,29.776,116.571,71.57,40.507,71.57,40.507" transform="translate(-9403.747 -226.047)"/><path class="a" d="M10400.363,1544.787s-84.608-15.9-101.081,46.825-8.87,62.086-29.775,116.571-71.57,40.507-71.57,40.507" transform="translate(-8771.714 -234.047)"/><path class="a" d="M10740.415,1872H10890.4" transform="translate(-9599.921 -358.606)"/><g transform="translate(-1025 -633)"><rect class="b" width="197" height="171" transform="translate(1642 1866)"/><g transform="translate(1693 1904)"><rect class="c" width="96" height="96"/><g transform="translate(5.063)"><g transform="translate(0 75.188)"><path class="d" d="M30.2,401.549a1.874,1.874,0,1,0,.549,1.326A1.889,1.889,0,0,0,30.2,401.549Z" transform="translate(-27 -401)"/></g><path class="d" d="M105.493,21.748l0,0L92.99,13.3a11.3,11.3,0,0,0-7.985-1.815,8.909,8.909,0,0,0,.186-1.81,8.773,8.773,0,0,0-2.586-6.244l-.848-.848A8.83,8.83,0,0,0,69.27,15.074l.848.848a8.784,8.784,0,0,0,3.75,2.229L61.252,27.657a5.222,5.222,0,0,0-1.728,2.277,5.21,5.21,0,0,0-2.79.2L44.512,34.492a8.781,8.781,0,0,0,.693-3.43v-1.2a8.83,8.83,0,1,0-17.661,0v1.2a8.837,8.837,0,0,0,4.726,7.815A8.646,8.646,0,0,0,27,46.823V69.188a1.875,1.875,0,0,0,3.75,0V65.756h7.4a1.866,1.866,0,0,0,1.053-.324l8.479-5.755A5.009,5.009,0,0,1,55.5,63.822v11.62l-5.25,2.1V68.156a1.875,1.875,0,0,0-2.837-1.609l-9.5,5.683A3.949,3.949,0,0,0,36,75.6V92.25H30.75V84.379a1.875,1.875,0,0,0-3.75,0v9.746A1.875,1.875,0,0,0,28.875,96h9a1.875,1.875,0,0,0,1.875-1.875V75.6a.181.181,0,0,1,.088-.155L46.5,71.463V94.125A1.875,1.875,0,0,0,48.375,96H111a1.875,1.875,0,0,0,1.875-1.875V35.385A16.231,16.231,0,0,0,105.493,21.748ZM72.769,13.271l-.848-.848a5.08,5.08,0,1,1,7.185-7.184l.848.848a5.08,5.08,0,0,1-7.185,7.185ZM63.508,30.652l18.6-14.015a7.563,7.563,0,0,1,8.781-.227l10.394,7.021-9.174,7.379-7.194-4.86a1.874,1.874,0,0,0-1.76-.181L64.968,33.218a1.5,1.5,0,0,1-1.839-.612l-.005-.009A1.485,1.485,0,0,1,63.508,30.652Zm-32.214.41v-1.2a5.08,5.08,0,1,1,10.161,0v1.2a5.08,5.08,0,1,1-10.161,0ZM42,49.187V59l-4.43,3.008H30.75V46.823a4.888,4.888,0,0,1,3.239-4.594l24-8.567a1.487,1.487,0,0,1,1.342,2.626L42.813,47.642A1.875,1.875,0,0,0,42,49.187Zm8.491,5.875a8.724,8.724,0,0,0-4.741,1.4V50.174l15.709-10.8a5.206,5.206,0,0,0,1.907-2.414,5.281,5.281,0,0,0,1.06.109,5.17,5.17,0,0,0,1.963-.386L83.65,29.62,91.1,34.652A6.8,6.8,0,0,1,93.75,40.02V54.75H90.063a1.876,1.876,0,0,0-1.147.391l-18.638,14.4L59.25,73.949V63.822A8.769,8.769,0,0,0,50.491,55.063ZM109.125,92.25H50.25V81.582l21.663-8.654a1.873,1.873,0,0,0,.451-.257L90.7,58.5h18.422Zm0-37.5h-3.75V39.962a1.875,1.875,0,0,0-3.75,0V54.75H97.5V40.02a10.574,10.574,0,0,0-2.461-6.751l9.46-7.61a12.489,12.489,0,0,1,4.626,9.726Z" transform="translate(-27)"/><g transform="translate(68.75 66.062)"><path class="d" d="M399.917,352.333h-4.375a1.875,1.875,0,0,0,0,3.75h2.5v7.25a1.875,1.875,0,0,0,3.75,0v-9.125A1.875,1.875,0,0,0,399.917,352.333Z" transform="translate(-393.667 -352.333)"/></g><g transform="translate(73.125 82.504)"><path class="d" d="M420.2,440.57a1.874,1.874,0,1,0,.549,1.325A1.889,1.889,0,0,0,420.2,440.57Z" transform="translate(-417 -440.02)"/></g></g></g></g><g transform="translate(-55 22)"><g transform="translate(-335 -472)"><rect class="b" width="197" height="171" transform="translate(1642 1866)"/></g><path class="e" d="M82.254,5.074a62.732,62.732,0,0,0-5.21,5.546,33.574,33.574,0,0,0,.307,4.337l.427,3.865-.865.865-.865.865-1.126-.973a38.663,38.663,0,0,0-21.084-8.974l-2.175-.224V8.462c0-1.864-.016-1.936-.565-2.485a1.5,1.5,0,0,0-2.349,0c-.548.548-.565.622-.565,2.472v1.908l-2.755.332a38.8,38.8,0,0,0-18.7,7.449A53.881,53.881,0,0,0,18.6,26.432,38.909,38.909,0,0,0,11.467,45.08c-.113,1.032-.2,1.967-.2,2.078,0,.126-.729.2-1.948.2-1.9,0-1.963.015-2.513.565a1.5,1.5,0,0,0,0,2.349c.55.55.618.565,2.513.565,1.219,0,1.948.075,1.948.2,0,.111.092,1.046.2,2.078A38.867,38.867,0,0,0,32.623,83.653a39.435,39.435,0,0,0,14.256,4.01l1.3.127v1.933c0,1.878.016,1.948.565,2.5a1.5,1.5,0,0,0,2.349,0c.549-.549.565-.619.565-2.5V87.79l1.3-.127A38.876,38.876,0,0,0,73.99,79.349a50.812,50.812,0,0,0,6.5-6.571,38.878,38.878,0,0,0,7.921-19.8l.232-2.141h1.916c1.86,0,1.933-.016,2.481-.565a1.5,1.5,0,0,0,0-2.349c-.549-.549-.621-.565-2.481-.565H88.647l-.232-2.141A38.633,38.633,0,0,0,79.443,24.1l-.973-1.126.869-.869.869-.869,3.515.4c5.268.6,4.511.814,7.456-2.106l2.527-2.507.052-4.307a26.127,26.127,0,0,0-.1-4.085c-.1.155-.618.184-1.694.1L90.421,8.6l-.336-3.769-.336-3.769L89.163.532A1.825,1.825,0,0,0,87.961,0c-.549,0-1.18.561-5.707,5.074m1.28,3.768-3.017,3.045.312,2.837a18.887,18.887,0,0,0,.464,2.987,19.38,19.38,0,0,0,3,.475l2.844.324,3.045-3.02c3.476-3.447,3.457-3.164.225-3.405-3.024-.226-3.258-.465-3.484-3.576s.046-3.132-3.386.332m-37.091,5.2c-.266.039-1.136.164-1.933.277A35.339,35.339,0,0,0,15.02,44.653c-.4,2.977-.521,2.706,1.242,2.706,1.231,0,1.615.074,2.015.389a1.642,1.642,0,0,1,.431,2.118c-.4.766-.954.972-2.625.972-.958,0-1.341.07-1.341.247a39.666,39.666,0,0,0,1.683,8.742,35.417,35.417,0,0,0,26.25,23.688,52.555,52.555,0,0,0,5.364.763,3.232,3.232,0,0,0,.145-1.339c0-1.671.207-2.229.972-2.625a1.642,1.642,0,0,1,2.118.431c.315.4.389.784.389,2.015,0,1.1.067,1.52.247,1.52.136,0,.984-.089,1.885-.2A35.3,35.3,0,0,0,81.449,64.722a35.9,35.9,0,0,0,3.57-12.579l.131-1.3H83.764c-1.7,0-2.412-.325-2.714-1.241a1.305,1.305,0,0,1,.083-1.254c.426-.824.838-.984,2.532-.984h1.485l-.131-1.3A35.355,35.355,0,0,0,77.4,27.111a15.3,15.3,0,0,0-1.381-1.595c-.055,0-1.256,1.159-2.67,2.576l-2.571,2.576.72.855A29.016,29.016,0,0,1,77.307,44a36.074,36.074,0,0,1,.008,10.124A27.826,27.826,0,0,1,23.476,57.6,23.518,23.518,0,0,1,22.21,49a22.114,22.114,0,0,1,.438-5.316,27.139,27.139,0,0,1,7.658-14.207,27.411,27.411,0,0,1,10.979-6.821,23.136,23.136,0,0,1,8.638-1.284,23.642,23.642,0,0,1,8.384,1.18A29.981,29.981,0,0,1,67.5,27.527l.855.72,2.576-2.571c1.417-1.414,2.576-2.616,2.576-2.67a15.3,15.3,0,0,0-1.595-1.381A35.147,35.147,0,0,0,54.593,14.2c-3.19-.425-2.93-.53-2.93,1.181a6.127,6.127,0,0,1-.209,1.853,1.909,1.909,0,0,1-2.1.719c-.84-.293-1.17-1.048-1.17-2.671V13.918l-.628.026c-.345.014-.846.058-1.111.1m-.1,10.986A24.438,24.438,0,0,0,26.13,43.976a29.047,29.047,0,0,0-.1,9.717A24.7,24.7,0,0,0,45.329,73a29.941,29.941,0,0,0,9.223-.007,24.726,24.726,0,0,0,15.256-9.9A24.435,24.435,0,0,0,72.039,38.9a30.281,30.281,0,0,0-3.462-5.458c-.276-.229-.624.049-2.9,2.318L63.1,38.337l.774,1.14A15.872,15.872,0,0,1,66.8,49a15.854,15.854,0,0,1-4.674,11.76,16.239,16.239,0,0,1-12.2,5.213,16.857,16.857,0,0,1-15.5-10.055,16.952,16.952,0,0,1,8.362-22.18,14.526,14.526,0,0,1,7.135-1.511,13.939,13.939,0,0,1,4.156.416,19.2,19.2,0,0,1,5.466,2.507l1.14.774,2.578-2.583c2.268-2.273,2.547-2.621,2.318-2.9a30.568,30.568,0,0,0-5.328-3.4,24.8,24.8,0,0,0-13.906-2.013m1.16,10.813a12.83,12.83,0,0,0-5.027,2.072A13.4,13.4,0,0,0,38.336,55.9a13.784,13.784,0,0,0,8.687,6.359,16.829,16.829,0,0,0,6.186-.092,13.845,13.845,0,0,0,9.8-9.777,16.557,16.557,0,0,0,0-6.572,16.651,16.651,0,0,0-2.054-4.446l-.381-.483-4.995,4.978c-4.5,4.483-5.058,4.978-5.629,4.978a1.917,1.917,0,0,1-1.765-1.765c0-.571.495-1.131,4.978-5.629l4.978-4.995-.483-.381a16.438,16.438,0,0,0-4.349-2.02,15.387,15.387,0,0,0-5.8-.209M1.165,92.729a2.114,2.114,0,0,0,.773,0c.185-.048-.012-.086-.437-.084s-.576.042-.336.088m2.124.006a17.6,17.6,0,0,0,2.03,0c.558-.039.1-.071-1.015-.071s-1.573.032-1.015.071" transform="translate(1357.949 1433)"/></g><g transform="translate(0 28)"><g transform="translate(-674 -478)"><rect class="b" width="197" height="171" transform="translate(1642 1866)"/></g><g transform="translate(1018 1417.756)"><g transform="translate(0 9.244)"><path class="d" d="M95.117,72.6a5.272,5.272,0,0,0-4.305-1.162L59.817,76.832V65.768c2.389-.146,6.788-.836,9.823-3.869,4.252-4.249,3.919-11.226,3.9-11.52a1.611,1.611,0,0,0-1.525-1.525c-.293-.026-7.273-.349-11.52,3.9-.243.243-.466.5-.679.753V48c2.389-.145,6.788-.836,9.823-3.869,4.252-4.249,3.919-11.226,3.9-11.52a1.611,1.611,0,0,0-1.525-1.525c-.293-.023-7.273-.349-11.52,3.9-.243.242-.466.5-.679.753v-4.8l9.073-8.885a7.412,7.412,0,0,0,0-10.626,0,0,0,0,0,0,0A7.733,7.733,0,0,0,58.2,11.355a7.732,7.732,0,0,0-10.689.068,7.412,7.412,0,0,0,0,10.628l9.071,8.882v4.8c-.213-.259-.437-.511-.679-.753-4.247-4.252-11.228-3.924-11.52-3.9A1.611,1.611,0,0,0,42.859,32.6c-.018.294-.351,7.272,3.9,11.52,3.034,3.036,7.433,3.725,9.823,3.869v5.511c-.213-.259-.437-.512-.679-.753-4.249-4.249-11.225-3.924-11.52-3.9a1.611,1.611,0,0,0-1.525,1.525c-.018.294-.351,7.272,3.9,11.52,3.034,3.036,7.433,3.725,9.823,3.869V74.85l-6.94-6.94a1.615,1.615,0,0,0-1.143-.472H32.333a1.615,1.615,0,0,0-1.617-1.617H0v3.233H22.633V91.688H0v3.233H30.717A1.615,1.615,0,0,0,32.333,93.3H36.8l17.284,8.643a5.266,5.266,0,0,0,5.025-.16L94.379,81.212a5.285,5.285,0,0,0,.737-8.609ZM62.782,55.038c2.179-2.179,5.535-2.765,7.493-2.915-.147,1.953-.729,5.3-2.921,7.488s-5.535,2.764-7.492,2.915C60.009,60.573,60.591,57.23,62.782,55.038Zm0-17.77c2.179-2.181,5.535-2.766,7.493-2.916-.147,1.953-.729,5.3-2.921,7.488s-5.529,2.763-7.487,2.915C60.019,42.8,60.6,39.445,62.782,37.267ZM49.046,41.839C46.866,39.66,46.28,36.3,46.13,34.346c1.953.147,5.3.729,7.488,2.921s2.763,5.529,2.915,7.487C54.575,44.6,51.224,44.017,49.046,41.839Zm0,17.772c-2.181-2.179-2.766-5.537-2.916-7.493,1.953.147,5.3.728,7.488,2.92s2.763,5.531,2.915,7.488C54.575,62.374,51.224,61.789,49.046,59.611ZM29.1,91.688H25.867V69.054H29.1ZM49.774,19.741a4.18,4.18,0,0,1,0-6.008,4.481,4.481,0,0,1,6.235,0l1.062,1.041a1.613,1.613,0,0,0,2.26,0l1.062-1.041a4.482,4.482,0,0,1,6.232,0,4.178,4.178,0,0,1,0,6.008L58.2,27.993ZM92.75,78.418,57.482,98.993a2.041,2.041,0,0,1-1.95.061L37.908,90.242a1.612,1.612,0,0,0-.724-.171h-4.85v-19.4h15.5L60.568,83.409a2.956,2.956,0,0,1-4.181,4.181l-8.361-8.361L45.74,81.514,54.1,89.875a6.189,6.189,0,0,0,8.753-8.753l-1.31-1.309,29.818-5.186a2.026,2.026,0,0,1,1.672.451,2.049,2.049,0,0,1-.285,3.34Z" transform="translate(0 -9.244)"/></g><g transform="translate(25.867 14.088)"><path class="d" d="M136.083,33.211H132.85a4.856,4.856,0,0,1-4.85,4.85v3.233a4.856,4.856,0,0,1,4.85,4.85h3.233a4.856,4.856,0,0,1,4.85-4.85V38.061A4.856,4.856,0,0,1,136.083,33.211Zm-1.617,8.133a8.063,8.063,0,0,0-1.667-1.667,8.063,8.063,0,0,0,1.667-1.667,8.064,8.064,0,0,0,1.667,1.667A8.064,8.064,0,0,0,134.467,41.344Z" transform="translate(-128 -33.211)"/></g><g transform="translate(16.167 28.638)"><path class="d" d="M88.083,105.211H84.85a4.856,4.856,0,0,1-4.85,4.85v3.233a4.856,4.856,0,0,1,4.85,4.85h3.233a4.856,4.856,0,0,1,4.85-4.85v-3.233A4.856,4.856,0,0,1,88.083,105.211Zm-1.617,8.133a8.064,8.064,0,0,0-1.667-1.667,8.064,8.064,0,0,0,1.667-1.667,8.064,8.064,0,0,0,1.667,1.667A8.064,8.064,0,0,0,86.467,113.344Z" transform="translate(-80 -105.211)"/></g><g transform="translate(77.6 20.554)"><path class="d" d="M392.083,65.211H388.85a4.856,4.856,0,0,1-4.85,4.85v3.233a4.856,4.856,0,0,1,4.85,4.85h3.233a4.856,4.856,0,0,1,4.85-4.85V70.061A4.856,4.856,0,0,1,392.083,65.211Zm-1.617,8.133a8.063,8.063,0,0,0-1.667-1.667,8.063,8.063,0,0,0,1.667-1.667,8.066,8.066,0,0,0,1.667,1.667A8.066,8.066,0,0,0,390.467,73.344Z" transform="translate(-384 -65.211)"/></g><g transform="translate(29.1 59.354)"><rect class="d" width="3.233" height="3.233"/></g><g transform="translate(22.633 59.354)"><rect class="d" width="3.233" height="3.233"/></g><g transform="translate(16.167 59.354)"><rect class="d" width="3.233" height="3.233"/></g></g></g><g transform="translate(22 -27)"><g transform="translate(-59 -606)"><rect class="b" width="197" height="171" transform="translate(1642 1866)"/></g><g transform="translate(1633 1297)"><path class="d" d="M90.061,46.583H86.955V93.167H82.3V60.558H79.191V93.167H74.533V46.583H71.428V93.167h-3.7l-3.106-6.211H54.347V41.925H51.242v45.03H46.583V54.347H43.478V86.955H38.819v-48.4l-7.7-21.565a1.094,1.094,0,0,1,1.033-1.458h.374a1.086,1.086,0,0,1,.979.606l5.316,10.63V27.95a7.773,7.773,0,0,0,7.764,7.764,7.685,7.685,0,0,0,3.106-.658v1.709l6.787,2.714a1.548,1.548,0,0,1,.977,1.443V57.453h3.106V40.922A4.64,4.64,0,0,0,57.629,36.6l-4.835-1.933v-2.1a7.692,7.692,0,0,0,1.553-4.611V24.845A7.743,7.743,0,0,0,39.634,21.45l-3.353-6.7a4.168,4.168,0,0,0-3.673-2.312V0H20.186V9.317H29.5V13.39A4.154,4.154,0,0,0,28.2,18.036l7.518,21.052V86.955H31.648l-3.106,6.211h-3.7V46.583H21.739V93.167H17.081v-29.5H13.975v29.5H9.317V46.583H6.211V93.167H0v3.106H96.272V93.167H90.061ZM41.925,24.845a4.658,4.658,0,0,1,9.317,0V27.95a4.658,4.658,0,0,1-9.317,0ZM23.292,6.211V3.106H29.5V6.211Zm10.277,83.85H62.7l1.553,3.106H32.015Zm0,0" transform="translate(0)"/><path class="d" d="M363.677,125.161l-7.491-2.14v-1.974a7.733,7.733,0,0,0,3.106-6.171v-3.106a7.764,7.764,0,0,0-15.528,0v3.106a7.728,7.728,0,0,0,3.106,6.171v1.974l-7.492,2.14A4.68,4.68,0,0,0,336,129.64v16.29h3.106V129.64a1.56,1.56,0,0,1,1.126-1.494l9.744-2.784v-2.88a7.759,7.759,0,0,0,3.106,0v2.88l9.742,2.783a1.561,1.561,0,0,1,1.127,1.5v16.29h3.106V129.64a4.68,4.68,0,0,0-3.378-4.479ZM346.87,114.875V111.77a4.658,4.658,0,0,1,9.317,0v3.106a4.658,4.658,0,0,1-9.317,0Zm0,0" transform="translate(-270.784 -83.82)"/><path class="d" d="M3.105,129.64a1.56,1.56,0,0,1,1.126-1.494l9.743-2.784v-2.88a7.76,7.76,0,0,0,3.106,0v2.88l9.742,2.783a1.561,1.561,0,0,1,1.127,1.5v19.4h3.106v-19.4a4.68,4.68,0,0,0-3.379-4.479l-7.491-2.14v-1.974a7.733,7.733,0,0,0,3.106-6.171v-3.106a7.764,7.764,0,0,0-15.528,0v3.106a7.728,7.728,0,0,0,3.106,6.171v1.974l-7.492,2.14A4.68,4.68,0,0,0,0,129.64v19.4H3.105Zm7.764-17.871a4.658,4.658,0,0,1,9.317,0v3.106a4.658,4.658,0,0,1-9.317,0Zm0,0" transform="translate(0 -83.82)"/></g></g><text class="f" transform="translate(994 1581)"><tspan x="6.436" y="23">Technical </tspan><tspan x="19.396" y="52">growth</tspan></text><text class="f" transform="translate(1291 1596)"><tspan x="13.132" y="23">Visibility</tspan></text><text class="f" transform="translate(1634 1403.16)"><tspan x="3.452" y="23">Leadership</tspan></text><text class="f" transform="translate(609 1394.16)"><tspan x="39.408" y="23">Team work </tspan><tspan x="35.556" y="52">community</tspan></text></g></svg>