<svg width="25" height="24" viewBox="0 0 25 24" fill="none" xmlns="http://www.w3.org/2000/svg">
<g clip-path="url(#clip0_94_289)">
<path d="M12.7197 14.5014C12.2937 14.9274 12.2937 15.6181 12.7197 16.0442C12.9327 16.2572 13.2119 16.3637 13.4911 16.3637C13.7703 16.3637 14.0495 16.2572 14.2625 16.0442L17.535 12.7717C17.5603 12.7464 17.5842 12.7199 17.6069 12.6923C17.6119 12.6862 17.6162 12.6795 17.6211 12.6733C17.6382 12.6515 17.6551 12.6296 17.6706 12.6066C17.6746 12.6006 17.6779 12.5942 17.6818 12.5881C17.6971 12.5642 17.7122 12.54 17.7257 12.5149C17.728 12.5105 17.7298 12.5059 17.7321 12.5015C17.7462 12.4743 17.7595 12.4467 17.7714 12.4182C17.7726 12.4153 17.7734 12.4123 17.7746 12.4094C17.7867 12.3795 17.7979 12.3491 17.8073 12.3179C17.8083 12.3146 17.8089 12.3111 17.8099 12.3078C17.8189 12.2773 17.827 12.2464 17.8333 12.2148C17.835 12.206 17.8358 12.197 17.8374 12.1881C17.8419 12.1619 17.8465 12.1358 17.8491 12.109C17.8528 12.0729 17.8547 12.0366 17.8547 12.0001C17.8547 11.9635 17.8528 11.9272 17.8491 11.8912C17.8465 11.8643 17.8419 11.8379 17.8372 11.8115C17.8357 11.8028 17.835 11.794 17.8332 11.7854C17.8269 11.7536 17.8187 11.7226 17.8097 11.6919C17.8088 11.6887 17.8083 11.6855 17.8073 11.6823C17.7977 11.6509 17.7865 11.6203 17.7742 11.5902C17.7731 11.5875 17.7724 11.5847 17.7713 11.5821C17.7593 11.5534 17.7459 11.5257 17.7317 11.4983C17.7295 11.4941 17.7278 11.4897 17.7255 11.4855C17.7119 11.4602 17.6969 11.4359 17.6814 11.4118C17.6776 11.4059 17.6744 11.3996 17.6705 11.3937C17.655 11.3707 17.6381 11.3486 17.6209 11.3269C17.6161 11.3206 17.6118 11.314 17.6067 11.3079C17.5841 11.2803 17.5601 11.2538 17.5349 11.2286L14.2623 7.956C13.8364 7.52997 13.1456 7.52997 12.7196 7.956C12.2935 8.38203 12.2935 9.07272 12.7196 9.49875L14.13 10.9092H1.49129C0.888824 10.9092 0.400391 11.3977 0.400391 12.0001C0.400391 12.6026 0.888824 13.091 1.49129 13.091H14.1301L12.7197 14.5014Z" fill="#F2F2F2"/>
<path d="M15.4766 3.07642C12.4988 3.07642 9.72823 4.55364 8.06547 7.02789C7.7294 7.52796 7.86235 8.20577 8.36242 8.54177C8.86249 8.87784 9.5403 8.74489 9.8763 8.24482C11.1331 6.37473 13.2267 5.25822 15.4766 5.25822C19.1941 5.25822 22.2184 8.28264 22.2184 12.0001C22.2184 15.7175 19.194 18.7419 15.4766 18.7419C13.2334 18.7419 11.1431 17.6304 9.88539 15.7687C9.54808 15.2695 8.86998 15.1382 8.37071 15.4755C7.87151 15.8128 7.74017 16.4909 8.07747 16.9902C9.74161 19.4533 12.5076 20.9237 15.4766 20.9237C20.3971 20.9237 24.4002 16.9206 24.4002 12.0001C24.4002 7.0796 20.397 3.07642 15.4766 3.07642Z" fill="#F2F2F2"/>
</g>
<defs>
<clipPath id="clip0_94_289">
<rect width="24" height="24" fill="white" transform="translate(0.400391)"/>
</clipPath>
</defs>
</svg>
