<svg width="205" height="84" viewBox="0 0 205 84" fill="none" xmlns="http://www.w3.org/2000/svg">
<path fill-rule="evenodd" clip-rule="evenodd" d="M12.1565 35.0115C-0.0122465 45.3904 -5.96341 60.2392 9.69579 70.653C23.2098 79.643 45.9716 81.9246 64.4399 82.9157C82.9806 83.9125 101.547 82.9356 119.778 80.9054C150.611 77.4753 207.46 68.2364 204.181 42.1989C202.301 27.2762 181.886 13.1137 161.6 6.59106C137.157 -1.26829 108.824 0.699262 83.6112 5.29762C58.0141 9.96443 33.8725 18.3228 18.4874 32.3706C6.03813 43.7382 -3.24654 61.9547 13.778 73.5894C28.8187 83.8692 56.1872 83.7344 76.0575 81.8711C100.131 79.6126 124.088 76.5136 146.795 70.9506C167.625 65.8452 189.542 57.9828 199.238 44.6265C206.125 35.1346 204.776 24.9697 191.078 18.3077C177.044 11.4794 157.016 9.88672 140.014 9.02762C121.32 8.08357 103.13 8.72808 84.7799 10.8374C80.3957 11.3426 76.0073 11.8439 71.6189 12.3269C69.6611 12.5436 70.5068 14.4292 72.446 14.2137C84.6675 12.8654 96.7468 11.1518 109.169 10.7425C117.893 10.4568 126.654 10.49 135.389 10.7843C153.528 11.3974 174.366 12.9658 189.528 19.9831C207.744 28.4174 199.754 43.6261 187.318 52.5379C170.341 64.7065 143.185 70.4843 119.054 74.5281C96.1618 78.3645 70.6015 82.0648 46.7478 80.4723C35.1899 79.7002 23.2417 77.2044 15.145 71.6701C5.79224 65.2787 6.64133 56.0205 9.98532 48.2885C18.19 29.3371 43.5308 16.7294 71.4175 9.93401C98.2476 3.39939 129.7 -0.0665153 157.185 7.41877C170.88 11.1468 181.951 17.7226 190.277 25.4527C196.904 31.6085 201.987 38.7527 201.13 46.2945C199.665 59.1834 178.727 66.8721 162.027 71.3625C142.515 76.6058 120.994 79.3353 99.9147 80.7113C80.2463 81.9944 59.8447 81.5976 40.5442 78.5301C29.7774 76.8166 18.9164 73.9713 11.1189 68.7862C2.38456 62.9755 1.6991 54.7344 5.22921 47.475C9.94831 37.774 21.9296 29.7049 34.0992 23.4695C46.1451 17.2961 61.237 12.0733 76.9607 11.1502C78.921 11.0354 78.9304 9.08392 76.9515 9.19989C51.1496 10.7135 27.0994 22.265 12.1565 35.0115Z" fill="#B70569"/>
</svg>
