<svg xmlns="http://www.w3.org/2000/svg" width="32" height="32" viewBox="0 0 32 32"><defs><style>.a{fill:#fff;}</style></defs><path class="a" d="M16,0A16,16,0,1,0,32,16,16,16,0,0,0,16,0Zm7.689,12.061c.011.168.011.343.011.514a11.3,11.3,0,0,1-17.382,9.5,8.517,8.517,0,0,0,.957.05A7.958,7.958,0,0,0,12.2,20.436a3.968,3.968,0,0,1-3.707-2.75,4.338,4.338,0,0,0,1.789-.071,3.964,3.964,0,0,1-3.175-3.893v-.05a3.969,3.969,0,0,0,1.789.5,3.969,3.969,0,0,1-1.768-3.3,3.888,3.888,0,0,1,.539-2,11.261,11.261,0,0,0,8.179,4.146,3.979,3.979,0,0,1,6.771-3.629,7.835,7.835,0,0,0,2.518-.954,3.948,3.948,0,0,1-1.743,2.182A7.845,7.845,0,0,0,25.679,10,8.314,8.314,0,0,1,23.689,12.061Z"/></svg>