<svg width="36" height="36" viewBox="0 0 36 36" fill="none" xmlns="http://www.w3.org/2000/svg">
<rect width="36" height="36" rx="18" fill="#F2F4F7"/>
<path fill-rule="evenodd" clip-rule="evenodd" d="M15.2422 12.5234C13.896 12.5234 12.8047 13.6147 12.8047 14.9609V20.9609C12.8047 22.3071 13.896 23.3984 15.2422 23.3984H21.2422C22.5884 23.3984 23.6797 22.3071 23.6797 20.9609V14.9609C23.6797 13.6147 22.5884 12.5234 21.2422 12.5234H15.2422ZM11.6797 14.9609C11.6797 12.9934 13.2747 11.3984 15.2422 11.3984H21.2422C23.2097 11.3984 24.8047 12.9934 24.8047 14.9609V20.9609C24.8047 22.9285 23.2097 24.5234 21.2422 24.5234H15.2422C13.2747 24.5234 11.6797 22.9285 11.6797 20.9609V14.9609ZM18.2422 16.2734C17.3102 16.2734 16.5547 17.029 16.5547 17.9609C16.5547 18.8929 17.3102 19.6484 18.2422 19.6484C19.1742 19.6484 19.9297 18.8929 19.9297 17.9609C19.9297 17.029 19.1742 16.2734 18.2422 16.2734ZM15.4297 17.9609C15.4297 16.4076 16.6889 15.1484 18.2422 15.1484C19.7955 15.1484 21.0547 16.4076 21.0547 17.9609C21.0547 19.5142 19.7955 20.7734 18.2422 20.7734C16.6889 20.7734 15.4297 19.5142 15.4297 17.9609ZM22.1797 14.5859C22.1797 14.2753 21.9278 14.0234 21.6172 14.0234C21.3065 14.0234 21.0547 14.2753 21.0547 14.5859V14.5869C21.0547 14.8976 21.3065 15.1494 21.6172 15.1494C21.9278 15.1494 22.1797 14.8976 22.1797 14.5869V14.5859Z" fill="#B70569"/>
</svg>
