<svg width="36" height="36" viewBox="0 0 36 36" fill="none" xmlns="http://www.w3.org/2000/svg">
<rect width="36" height="36" rx="18" fill="#F2F4F7"/>
<path d="M25.2275 11.9296C24.4775 12.2971 23.7425 12.4464 22.9775 12.6721C22.1368 11.7234 20.8903 11.6709 19.6925 12.1194C18.4948 12.5679 17.7103 13.6644 17.7275 14.9221V15.6721C15.2938 15.7344 13.1263 14.6259 11.7275 12.6721C11.7275 12.6721 8.59104 18.2469 14.7275 20.9221C13.3235 21.8574 11.9233 22.4881 10.2275 22.4221C12.7085 23.7744 15.4123 24.2394 17.753 23.5599C20.438 22.7799 22.6445 20.7676 23.4913 17.7534C23.7439 16.8366 23.8693 15.8895 23.864 14.9386C23.8625 14.7519 24.9965 12.8596 25.2275 11.9289V11.9296Z" stroke="#B70569" stroke-width="1.125" stroke-linecap="round" stroke-linejoin="round"/>
</svg>
